<?xml version="1.0" encoding="UTF-8" standalone="no"?>
<!-- Generator: Adobe Illustrator 16.0.0, SVG Export Plug-In . SVG Version: 6.00 Build 0)  -->

<svg
   xmlns:dc="http://purl.org/dc/elements/1.1/"
   xmlns:cc="http://creativecommons.org/ns#"
   xmlns:rdf="http://www.w3.org/1999/02/22-rdf-syntax-ns#"
   xmlns:svg="http://www.w3.org/2000/svg"
   xmlns="http://www.w3.org/2000/svg"
   xmlns:sodipodi="http://sodipodi.sourceforge.net/DTD/sodipodi-0.dtd"
   xmlns:inkscape="http://www.inkscape.org/namespaces/inkscape"
   version="1.1"
   x="20px"
   y="45px"
   width="160px"
   height="160px"
   viewBox="20 45 160 160"
   xml:space="preserve"
   id="svg3213"
   inkscape:version="0.48.4 r9939"
   sodipodi:docname="endless-weather-wind-speed.svg"><metadata
     id="metadata3223"><rdf:RDF><cc:Work
         rdf:about=""><dc:format>image/svg+xml</dc:format><dc:type
           rdf:resource="http://purl.org/dc/dcmitype/StillImage" /><dc:title /></cc:Work></rdf:RDF></metadata><defs
     id="defs3221" /><sodipodi:namedview
     pagecolor="#ffffff"
     bordercolor="#666666"
     borderopacity="1"
     objecttolerance="10"
     gridtolerance="10"
     guidetolerance="10"
     inkscape:pageopacity="0"
     inkscape:pageshadow="2"
     inkscape:window-width="1366"
     inkscape:window-height="606"
     id="namedview3219"
     showgrid="false"
     inkscape:zoom="1.475"
     inkscape:cx="80"
     inkscape:cy="80"
     inkscape:window-x="0"
     inkscape:window-y="0"
     inkscape:window-maximized="1"
     inkscape:current-layer="svg3213" /><g
     id="WIND"
     style="fill:#ffffff"
     transform="matrix(1.4899499,0,0,1.4899499,-49.08663,-67.672559)"><path
       d="m 56.165,107.478 c 10.413,-8.941 18.635,-16.01 40.949,-3.4 10.718,6.055 19.366,8.342 26.562,8.34 12.604,0 20.768,-7.012 27.832,-13.08 2.518,-2.158 2.841,-6.002 0.724,-8.574 -2.12,-2.572 -5.877,-2.904 -8.396,-0.742 -10.411,8.947 -18.633,16.014 -40.956,3.402 -29.481,-16.654 -43.291,-4.793 -54.387,4.742 -2.517,2.162 -2.843,6 -0.723,8.574 2.116,2.568 5.873,2.9 8.395,0.738 z m 87.669,12.976 c -10.411,8.941 -18.633,16.01 -40.956,3.4 -29.481,-16.656 -43.291,-4.791 -54.387,4.738 -2.517,2.164 -2.843,6 -0.723,8.574 2.117,2.572 5.875,2.906 8.396,0.74 10.413,-8.941 18.635,-16.008 40.949,-3.402 10.718,6.057 19.366,8.342 26.562,8.342 12.604,0 20.768,-7.012 27.832,-13.078 2.518,-2.164 2.841,-6.006 0.724,-8.576 -2.12,-2.574 -5.877,-2.904 -8.397,-0.738 z m 0,30.428 c -10.411,8.943 -18.633,16.01 -40.956,3.4 -29.481,-16.656 -43.291,-4.793 -54.387,4.742 -2.517,2.16 -2.843,6.002 -0.723,8.574 2.117,2.57 5.875,2.902 8.396,0.738 10.413,-8.943 18.635,-16.004 40.949,-3.4 10.718,6.053 19.366,8.34 26.562,8.34 12.604,0 20.768,-7.012 27.832,-13.078 2.518,-2.162 2.841,-6.004 0.724,-8.578 -2.12,-2.568 -5.877,-2.898 -8.397,-0.738 z"
       id="path3216"
       style="fill:#ffffff"
       inkscape:connector-curvature="0" /></g><g
     id="LAYOUT" /></svg>