<?xml version="1.0" encoding="utf-8"?>
<!-- Generator: Adobe Illustrator 16.0.0, SVG Export Plug-In . SVG Version: 6.00 Build 0)  -->
<!DOCTYPE svg PUBLIC "-//W3C//DTD SVG 1.1//EN" "http://www.w3.org/Graphics/SVG/1.1/DTD/svg11.dtd">
<svg version="1.1" xmlns="http://www.w3.org/2000/svg" xmlns:xlink="http://www.w3.org/1999/xlink" x="20px" y="45px" width="160px"
	 height="160px" viewBox="20 45 160 160" xml:space="preserve">
<g id="SNOW" fill="white">
	<path d="M144.952,146.631l-10.363-5.984c-0.715-0.414-0.699-1.059,0.035-1.438l8.367-4.312c0.734-0.379,0.75-1.023,0.035-1.438
		l-5.09-2.938c-0.715-0.414-1.898-0.441-2.633-0.062l-8.367,4.312c-0.734,0.379-1.918,0.348-2.633-0.062l-5.473-3.16
		c-0.715-0.41-1.297-1.426-1.297-2.25v-8.586c0-0.824,0.582-1.836,1.297-2.25l5.473-3.16c0.715-0.414,1.898-0.441,2.633-0.062
		l8.367,4.309c0.734,0.379,1.918,0.352,2.633-0.062l5.094-2.938c0.715-0.41,0.699-1.059-0.035-1.438l-8.371-4.316
		c-0.734-0.375-0.75-1.023-0.035-1.438l10.363-5.977c0.715-0.414,0.961-1.336,0.547-2.051l-2.23-3.863
		c-0.41-0.715-1.332-0.961-2.047-0.551l-10.293,5.941c-0.715,0.414-1.297,0.078-1.297-0.75v-9.113c0-0.824-0.586-1.16-1.301-0.75
		l-5.141,2.969c-0.715,0.41-1.297,1.422-1.297,2.25v9.109c0,0.824-0.586,1.836-1.301,2.25l-5.477,3.16
		c-0.715,0.414-1.883,0.414-2.598,0l-7.477-4.312c-0.715-0.414-1.297-1.426-1.297-2.25v-6.332c0-0.824,0.566-1.863,1.262-2.312
		l7.805-5.016c0.695-0.449,1.289-0.828,1.32-0.848c0.031-0.023,0.059-0.715,0.059-1.539v-5.867c0-0.828-0.57-1.137-1.262-0.691
		l-7.922,5.094c-0.695,0.445-1.262,0.137-1.262-0.691V75.248c0-0.824-0.676-1.5-1.5-1.5H97.78c-0.824,0-1.5,0.676-1.5,1.5v11.977
		c0,0.824-0.57,1.133-1.262,0.688l-7.965-5.121c-0.695-0.449-1.262-0.137-1.262,0.688v5.867c0,0.828,0.566,1.867,1.262,2.312
		l7.965,5.121c0.691,0.445,1.262,1.484,1.262,2.309v6.301c0,0.824-0.586,1.836-1.301,2.25l-7.477,4.316
		c-0.715,0.41-1.883,0.41-2.598,0l-5.5-3.18c-0.715-0.414-1.297-1.426-1.297-2.25v-9.055c0-0.824-0.586-1.84-1.301-2.25
		l-5.137-2.965c-0.715-0.414-1.297-0.078-1.297,0.75v9.055c0,0.828-0.586,1.164-1.301,0.75l-10.289-5.941
		c-0.715-0.41-1.637-0.164-2.051,0.551l-2.234,3.867c-0.41,0.715-0.164,1.637,0.551,2.051l10.367,5.98
		c0.715,0.41,0.699,1.059-0.035,1.438l-8.418,4.34c-0.734,0.379-0.75,1.023-0.035,1.438l4.965,2.871
		c0.715,0.414,1.328,0.766,1.359,0.785s0.656-0.273,1.391-0.652l8.422-4.34c0.734-0.379,1.918-0.352,2.633,0.062l5.449,3.145
		c0.715,0.414,1.301,1.426,1.301,2.25v8.699c0,0.828-0.586,1.84-1.301,2.25l-5.449,3.152c-0.715,0.41-1.898,0.441-2.633,0.062
		l-8.418-4.344c-0.734-0.375-1.918-0.348-2.633,0.062l-5.086,2.938c-0.715,0.414-0.699,1.062,0.035,1.438l8.418,4.344
		c0.734,0.375,0.75,1.023,0.035,1.438l-10.367,5.98c-0.715,0.41-0.961,1.332-0.551,2.047l2.23,3.871
		c0.414,0.711,1.336,0.961,2.051,0.547l10.293-5.941c0.715-0.414,1.301-0.074,1.301,0.75v9.059c0,0.824,0.582,1.164,1.297,0.75
		l5.137-2.961c0.715-0.414,1.301-1.426,1.301-2.25v-9.059c0-0.824,0.582-1.84,1.297-2.25l5.5-3.18c0.715-0.414,1.883-0.414,2.598,0
		l7.43,4.293c0.715,0.41,1.301,1.426,1.301,2.25v6.312c0,0.824-0.57,1.867-1.262,2.312l-7.805,5.02
		c-0.691,0.445-1.285,0.828-1.316,0.848c-0.035,0.02-0.059,0.711-0.059,1.535v5.875c0,0.824,0.566,1.133,1.262,0.688l7.918-5.098
		c0.691-0.445,1.262-0.137,1.262,0.691v11.969c0,0.824,0.676,1.5,1.5,1.5h4.465c0.824,0,1.5-0.676,1.5-1.5v-11.969
		c0-0.828,0.566-1.137,1.262-0.691l7.969,5.129c0.691,0.445,1.262,0.137,1.262-0.691v-5.871c0-0.824-0.57-1.867-1.262-2.312
		l-7.969-5.121c-0.695-0.445-1.262-1.488-1.262-2.312v-6.293c0-0.824,0.582-1.836,1.297-2.25l7.523-4.34
		c0.715-0.414,1.883-0.414,2.598,0l5.477,3.16c0.715,0.41,1.301,1.422,1.301,2.25v9.113c0,0.824,0.582,1.836,1.297,2.25l5.141,2.961
		c0.715,0.414,1.301,0.074,1.301-0.75V147.9c0-0.824,0.582-1.16,1.297-0.75l10.293,5.945c0.715,0.414,1.637,0.168,2.047-0.547
		l2.23-3.871C145.913,147.963,145.667,147.041,144.952,146.631z M110.069,129.326c0,0.824-0.586,1.836-1.301,2.25l-7.477,4.316
		c-0.715,0.41-1.883,0.41-2.598,0l-7.484-4.316c-0.715-0.414-1.297-1.426-1.297-2.25v-8.641c0-0.828,0.582-1.84,1.297-2.25
		l7.484-4.316c0.715-0.414,1.883-0.414,2.598,0l7.477,4.316c0.715,0.41,1.301,1.422,1.301,2.25V129.326z"/>
</g>
</svg>
