<?xml version="1.0" encoding="UTF-8" standalone="no"?>
<!-- Generator: Adobe Illustrator 16.0.0, SVG Export Plug-In . SVG Version: 6.00 Build 0)  -->
<!DOCTYPE svg PUBLIC "-//W3C//DTD SVG 1.1//EN" "http://www.w3.org/Graphics/SVG/1.1/DTD/svg11.dtd">
<svg version="1.1" xmlns="http://www.w3.org/2000/svg" xmlns:xlink="http://www.w3.org/1999/xlink" x="20px" y="45px" width="160px"
   height="160px" viewBox="20 45 160 160" xml:space="preserve">
<g id="g3089" fill="white">
  <path
     d="m 84.055764,96.165538 c -2.887,0 -5.246,-1.889 -5.246,-4.197 0,-2.308 2.359,-4.195 5.246,-4.195 l 71.197966,0 c 2.887,0 5.246,1.887 5.246,4.195 0,2.308 -2.359,4.197 -5.246,4.197 z"
  /><path
     d="m 40.519402,123.03139 c -2.887,0 -5.25,-1.891 -5.25,-4.197 0,-2.306 2.363,-4.197 5.25,-4.197 l 79.378988,0 c 2.887,0 5.246,1.891 5.246,4.197 0,2.306 -2.359,4.197 -5.246,4.197 z"
  /><path
     d="m 78.027916,158.14683 c -2.887,0 -5.25,-1.889 -5.25,-4.197 0,-2.308 2.363,-4.195 5.25,-4.195 l 63.083684,0 c 2.887,0 5.246,1.887 5.246,4.195 0,2.308 -2.359,4.197 -5.246,4.197 z"
  />
</g>
</svg>