<?xml version="1.0" encoding="utf-8"?>
<!-- Generator: Adobe Illustrator 16.0.0, SVG Export Plug-In . SVG Version: 6.00 Build 0)  -->
<!DOCTYPE svg PUBLIC "-//W3C//DTD SVG 1.1//EN" "http://www.w3.org/Graphics/SVG/1.1/DTD/svg11.dtd">
<svg version="1.1" xmlns="http://www.w3.org/2000/svg" xmlns:xlink="http://www.w3.org/1999/xlink" x="20px" y="45px" width="160px"
	 height="160px" viewBox="20 45 160 160" xml:space="preserve">
<g id="MOON_x2B_CLOUD" fill="white">
	<path d="M160.302,130.385c-0.217-0.227-0.52-0.34-0.82-0.324c-0.117,0.006-0.234,0.031-0.346,0.076
		c-2.289,0.928-4.676,1.463-7.094,1.588c-12.059,0.633-22.379-8.66-23.012-20.717c-0.32-6.141,1.855-11.955,6.129-16.367
		c0.303-0.318,0.383-0.779,0.207-1.178c-0.172-0.395-0.568-0.646-1-0.637l-0.16,0.006c-0.131-0.002-0.252,0.002-0.379,0.008
		c-11.495,0.602-20.983,8.201-24.58,18.445c-3.963-1.672-8.31-2.625-12.887-2.625c-11.906,0-22.828,6.484-28.582,16.402
		c-15.831,1.062-28.382,14.074-28.382,29.918c0,16.543,13.672,30,30.476,30h52.02c13.914,0,25.227-11.152,25.227-24.863
		c0-4.893-1.446-9.457-3.933-13.309c7.658-2.264,14.016-7.734,17.325-15.252C160.688,131.158,160.606,130.697,160.302,130.385z
		 M121.892,175.98h-52.02c-11.863,0-21.476-9.402-21.476-21c0-11.586,9.612-20.988,21.476-20.988h3.734
		c3.039-9.461,12.072-16.332,22.754-16.332c13.18,0,23.859,10.445,23.859,23.328v3.266h1.672c8.965,0,16.23,7.105,16.23,15.863
		C138.122,168.871,130.856,175.98,121.892,175.98z"/>
</g>
</svg>
