<?xml version="1.0" encoding="utf-8"?>
<!-- Generator: Adobe Illustrator 16.0.0, SVG Export Plug-In . SVG Version: 6.00 Build 0)  -->
<!DOCTYPE svg PUBLIC "-//W3C//DTD SVG 1.1//EN" "http://www.w3.org/Graphics/SVG/1.1/DTD/svg11.dtd">
<svg version="1.1" xmlns="http://www.w3.org/2000/svg" xmlns:xlink="http://www.w3.org/1999/xlink" x="20px" y="45px" width="160px"
	 height="160px" viewBox="20 45 160 160" xml:space="preserve">
<g id="SUN" fill="white">
	<g>
		<path d="M100,97.617c-15.184,0-27.379,12.195-27.379,27.379c0,15.188,12.195,27.383,27.379,27.383
			c15.188,0,27.379-12.195,27.379-27.383C127.379,109.812,115.188,97.617,100,97.617L100,97.617z"/>
		<path d="M100,88.297c2.858,0,5.177-2.895,5.177-6.469c0-1.18,0-9.172,0-10.359c0-3.574-2.318-6.469-5.177-6.469
			c-2.856,0-5.175,2.895-5.175,6.469c0,1.188,0,9.18,0,10.359C94.825,85.402,97.144,88.297,100,88.297z"/>
		<path d="M125.951,99.047c2.021,2.023,5.706,1.613,8.232-0.914c0.838-0.836,6.489-6.488,7.328-7.328
			c2.526-2.523,2.935-6.211,0.914-8.23c-2.021-2.023-5.708-1.613-8.234,0.914c-0.839,0.84-6.489,6.488-7.325,7.324
			C124.339,93.34,123.928,97.027,125.951,99.047z"/>
		<path d="M136.7,124.996c0,2.863,2.896,5.176,6.468,5.176c1.185,0,9.176,0,10.36,0c3.574,0,6.47-2.312,6.47-5.176
			c0-2.855-2.896-5.172-6.47-5.172c-1.185,0-9.176,0-10.36,0C139.596,119.824,136.7,122.141,136.7,124.996z"/>
		<path d="M125.949,150.949c-2.021,2.02-1.612,5.707,0.917,8.234c0.836,0.836,6.486,6.488,7.325,7.328
			c2.526,2.523,6.214,2.934,8.234,0.914c2.021-2.023,1.612-5.711-0.916-8.238c-0.837-0.836-6.49-6.488-7.326-7.324
			C131.657,149.336,127.973,148.926,125.949,150.949z"/>
		<path d="M100,161.699c-2.859,0-5.177,2.898-5.177,6.469c0,1.184,0,9.176,0,10.359c0,3.574,2.317,6.473,5.177,6.473
			c2.856,0,5.174-2.898,5.174-6.473c0-1.184,0-9.176,0-10.359C105.174,164.598,102.856,161.699,100,161.699z"/>
		<path d="M74.048,150.949c-2.02-2.02-5.706-1.613-8.232,0.914c-0.838,0.836-6.486,6.488-7.328,7.324
			c-2.526,2.531-2.935,6.215-0.913,8.238c2.02,2.023,5.707,1.609,8.233-0.914c0.839-0.84,6.489-6.492,7.326-7.328
			C75.662,156.656,76.071,152.969,74.048,150.949z"/>
		<path d="M63.3,124.996c0-2.855-2.896-5.172-6.469-5.172c-1.182,0-9.173,0-10.36,0c-3.573,0-6.469,2.316-6.469,5.172
			c0,2.863,2.896,5.176,6.469,5.176c1.188,0,9.179,0,10.36,0C60.404,130.172,63.3,127.859,63.3,124.996z"/>
		<path d="M74.051,99.047c2.021-2.02,1.611-5.707-0.915-8.234c-0.839-0.836-6.489-6.484-7.328-7.324
			c-2.526-2.527-6.214-2.934-8.231-0.914c-2.023,2.02-1.615,5.707,0.913,8.23c0.84,0.84,6.49,6.492,7.326,7.328
			C68.342,100.66,72.028,101.07,74.051,99.047z"/>
	</g>
</g>
</svg>
