<?xml version="1.0" encoding="utf-8"?>
<!-- Generator: Adobe Illustrator 16.0.0, SVG Export Plug-In . SVG Version: 6.00 Build 0)  -->
<!DOCTYPE svg PUBLIC "-//W3C//DTD SVG 1.1//EN" "http://www.w3.org/Graphics/SVG/1.1/DTD/svg11.dtd">
<svg version="1.1" xmlns="http://www.w3.org/2000/svg" xmlns:xlink="http://www.w3.org/1999/xlink" x="20px" y="45px" width="160px"
	 height="160px" viewBox="20 45 160 160" xml:space="preserve">
<g id="CLOUD" fill="white">
	<path d="M135.606,114.398c-2.352-15.57-16.031-27.559-32.504-27.559c-11.906,0-22.828,6.484-28.582,16.402
		c-15.83,1.062-28.381,14.074-28.381,29.918c0,16.543,13.672,30,30.475,30h52.02c13.914,0,25.227-11.152,25.227-24.863
		C153.86,126.969,146.138,117.387,135.606,114.398z M128.634,154.16h-52.02c-11.863,0-21.475-9.402-21.475-21
		c0-11.586,9.611-20.988,21.475-20.988h3.734c3.039-9.461,12.074-16.332,22.754-16.332c13.18,0,23.859,10.445,23.859,23.328v3.266
		h1.672c8.965,0,16.23,7.105,16.23,15.863C144.864,147.051,137.599,154.16,128.634,154.16z"/>
</g>
</svg>
