<?xml version="1.0" encoding="utf-8"?>
<!-- Generator: Adobe Illustrator 16.0.0, SVG Export Plug-In . SVG Version: 6.00 Build 0)  -->
<!DOCTYPE svg PUBLIC "-//W3C//DTD SVG 1.1//EN" "http://www.w3.org/Graphics/SVG/1.1/DTD/svg11.dtd">
<svg version="1.1" xmlns="http://www.w3.org/2000/svg" xmlns:xlink="http://www.w3.org/1999/xlink" x="20px" y="45px" width="160px"
	 height="160px" viewBox="20 45 160 160" xml:space="preserve">
<g id="MOON" fill="white">
	<path d="M102.357,90.244c-19.164,0-34.751,15.592-34.751,34.759c0,19.16,15.587,34.753,34.751,34.753
		c13.21,0,25.099-7.294,31.024-19.038c0.249-0.487,0.178-1.072-0.186-1.486c-0.259-0.3-0.632-0.463-1.013-0.463
		c-0.148,0-0.296,0.024-0.438,0.074c-2.941,1.014-5.98,1.53-9.03,1.53c-15.215,0-27.59-12.373-27.59-27.587
		c0-7.747,3.123-14.918,8.792-20.189c0.4-0.379,0.532-0.955,0.335-1.467c-0.188-0.506-0.67-0.851-1.215-0.866l-0.202-0.005
		C102.671,90.249,102.518,90.244,102.357,90.244L102.357,90.244z"/>
</g>
</svg>
