<?xml version="1.0" encoding="utf-8"?>
<!-- Generator: Adobe Illustrator 16.0.0, SVG Export Plug-In . SVG Version: 6.00 Build 0)  -->
<!DOCTYPE svg PUBLIC "-//W3C//DTD SVG 1.1//EN" "http://www.w3.org/Graphics/SVG/1.1/DTD/svg11.dtd">
<svg version="1.1" xmlns="http://www.w3.org/2000/svg" xmlns:xlink="http://www.w3.org/1999/xlink" x="20px" y="45px" width="160px"
	 height="160px" viewBox="20 45 160 160" xml:space="preserve">
<g id="RAIN" fill="white">
	<g>
		<g>
			<path d="M82.988,187.75c0,2.887-1.889,5.246-4.197,5.246s-4.195-2.359-4.195-5.246v-11.801c0-2.887,1.887-5.246,4.195-5.246
				s4.197,2.359,4.197,5.246V187.75z"/>
			<path d="M104.197,193.574c0,2.887-1.891,5.25-4.197,5.25s-4.197-2.363-4.197-5.25v-17.625c0-2.887,1.891-5.246,4.197-5.246
				s4.197,2.359,4.197,5.246V193.574z"/>
			<path d="M125.406,199.199c0,2.887-1.889,5.25-4.197,5.25s-4.195-2.363-4.195-5.25v-23.25c0-2.887,1.887-5.246,4.195-5.246
				s4.197,2.359,4.197,5.246V199.199z"/>
		</g>
		<path d="M135.607,114.398c-2.352-15.57-16.031-27.559-32.504-27.559c-11.906,0-22.828,6.484-28.582,16.402
			c-15.832,1.062-28.383,14.074-28.383,29.918c0,16.543,13.672,30,30.477,30h52.02c13.914,0,25.227-11.152,25.227-24.863
			C153.861,126.969,146.139,117.387,135.607,114.398z M128.635,154.16h-52.02c-11.863,0-21.477-9.402-21.477-21
			c0-11.586,9.613-20.988,21.477-20.988h3.734c3.039-9.461,12.07-16.332,22.754-16.332c13.18,0,23.859,10.445,23.859,23.328v3.266
			h1.672c8.965,0,16.23,7.105,16.23,15.863C144.865,147.051,137.6,154.16,128.635,154.16z"/>
	</g>
</g>
</svg>
