<?xml version="1.0" encoding="utf-8"?>
<!-- Generator: Adobe Illustrator 16.0.0, SVG Export Plug-In . SVG Version: 6.00 Build 0)  -->
<!DOCTYPE svg PUBLIC "-//W3C//DTD SVG 1.1//EN" "http://www.w3.org/Graphics/SVG/1.1/DTD/svg11.dtd">
<svg version="1.1" xmlns="http://www.w3.org/2000/svg" xmlns:xlink="http://www.w3.org/1999/xlink" x="20px" y="45px" width="160px"
	 height="160px" viewBox="20 45 160 160" xml:space="preserve">
<g id="DRIZZLE" fill="white">
	<g>
		<g>
			<path d="M86.861,170.887c-0.02-0.125-0.133-0.184-0.238-0.184c-0.109,0-0.215,0.059-0.238,0.184
				c-0.996,5.879-6.277,9.965-6.277,15.711c0,3.551,2.984,6.43,6.516,6.43s6.512-2.879,6.512-6.43
				C93.135,180.852,87.861,176.766,86.861,170.887z"/>
			<path d="M113.623,170.887c-0.021-0.125-0.135-0.184-0.238-0.184c-0.109,0-0.219,0.059-0.238,0.184
				c-0.998,5.879-6.275,9.965-6.275,15.711c0,3.551,2.98,6.43,6.514,6.43c3.529,0,6.508-2.879,6.508-6.43
				C119.893,180.852,114.623,176.766,113.623,170.887z"/>
		</g>
		<path d="M135.607,114.398c-2.352-15.57-16.031-27.559-32.504-27.559c-11.906,0-22.828,6.484-28.582,16.402
			c-15.832,1.062-28.383,14.074-28.383,29.918c0,16.543,13.672,30,30.477,30h52.02c13.914,0,25.227-11.152,25.227-24.863
			C153.861,126.969,146.139,117.387,135.607,114.398z M128.635,154.16h-52.02c-11.863,0-21.477-9.402-21.477-21
			c0-11.586,9.613-20.988,21.477-20.988h3.734c3.039-9.461,12.072-16.332,22.754-16.332c13.18,0,23.859,10.445,23.859,23.328v3.266
			h1.672c8.965,0,16.23,7.105,16.23,15.863C144.865,147.051,137.6,154.16,128.635,154.16z"/>
	</g>
</g>
</svg>
