<?xml version="1.0" encoding="UTF-8" standalone="no"?>
<!-- Generator: Adobe Illustrator 16.0.0, SVG Export Plug-In . SVG Version: 6.00 Build 0)  -->

<svg
   xmlns:dc="http://purl.org/dc/elements/1.1/"
   xmlns:cc="http://creativecommons.org/ns#"
   xmlns:rdf="http://www.w3.org/1999/02/22-rdf-syntax-ns#"
   xmlns:svg="http://www.w3.org/2000/svg"
   xmlns="http://www.w3.org/2000/svg"
   xmlns:sodipodi="http://sodipodi.sourceforge.net/DTD/sodipodi-0.dtd"
   xmlns:inkscape="http://www.inkscape.org/namespaces/inkscape"
   version="1.1"
   x="20px"
   y="45px"
   width="160px"
   height="160px"
   viewBox="20 45 160 160"
   xml:space="preserve"
   id="svg3127"
   inkscape:version="0.48.4 r9939"
   sodipodi:docname="endless-weather-precipitation.svg"><metadata
     id="metadata3139"><rdf:RDF><cc:Work
         rdf:about=""><dc:format>image/svg+xml</dc:format><dc:type
           rdf:resource="http://purl.org/dc/dcmitype/StillImage" /><dc:title /></cc:Work></rdf:RDF></metadata><defs
     id="defs3137" /><sodipodi:namedview
     pagecolor="#ffffff"
     bordercolor="#666666"
     borderopacity="1"
     objecttolerance="10"
     gridtolerance="10"
     guidetolerance="10"
     inkscape:pageopacity="0"
     inkscape:pageshadow="2"
     inkscape:window-width="1366"
     inkscape:window-height="606"
     id="namedview3135"
     showgrid="false"
     inkscape:zoom="1.475"
     inkscape:cx="-35.59322"
     inkscape:cy="129.20653"
     inkscape:window-x="0"
     inkscape:window-y="0"
     inkscape:window-maximized="1"
     inkscape:current-layer="svg3127" /><g
     id="UMBRELLA"
     transform="matrix(1.3261416,0,0,1.3261416,-32.16554,-40.145962)"
     style="fill:#ffffff"><path
       d="m 104.447,73.335 v -4.009 c 0,-2.387 -1.936,-4.326 -4.327,-4.326 -2.386,0 -4.328,1.939 -4.328,4.326 v 3.972 C 83.145,75.152 47.181,84.17 46.877,126.877 h 3.373 c 0.103,-7.421 6.138,-13.42 13.59,-13.42 7.45,0 13.483,5.999 13.588,13.42 h 6.002 c 1.595,-8.6 6.861,-12.98 13.769,-14.001 v 3.562 50.334 c -0.009,5.966 -4.839,10.794 -10.808,10.808 -5.971,-0.014 -10.8,-4.842 -10.807,-10.808 0,-1.857 -1.508,-3.356 -3.36,-3.356 -1.852,0 -3.35,1.499 -3.35,3.356 0,9.679 7.841,17.519 17.517,17.519 9.678,0 17.519,-7.84 17.524,-17.519 v -50.334 -3.195 c 6.744,0.977 12.165,6.536 12.654,13.634 h 6.003 c 0.104,-7.421 6.138,-13.42 13.586,-13.42 7.453,0 13.486,5.999 13.592,13.42 h 3.371 C 152.822,84.438 117.304,75.271 104.447,73.335 z"
       id="path3130"
       inkscape:connector-curvature="0"
       style="fill:#ffffff" /><line
       x1="97.198997"
       y1="117.79"
       x2="97.198997"
       y2="112.362"
       id="line3132"
       style="fill:#ffffff" /></g><g
     id="LAYOUT" /></svg>