<?xml version="1.0" encoding="utf-8"?>
<!-- Generator: Adobe Illustrator 16.0.0, SVG Export Plug-In . SVG Version: 6.00 Build 0)  -->
<!DOCTYPE svg PUBLIC "-//W3C//DTD SVG 1.1//EN" "http://www.w3.org/Graphics/SVG/1.1/DTD/svg11.dtd">
<svg version="1.1" xmlns="http://www.w3.org/2000/svg" xmlns:xlink="http://www.w3.org/1999/xlink" x="20px" y="45px" width="160px"
	 height="160px" viewBox="20 45 160 160" xml:space="preserve">
<g id="RAIN_x2B_THUNDER" fill="white">
	<g>
		<path d="M75.131,174.801c0.746-2.789,3.184-4.582,5.414-3.984c2.227,0.598,3.441,3.367,2.695,6.156l-3.055,11.398
			c-0.746,2.789-3.184,4.578-5.41,3.984c-2.23-0.598-3.445-3.371-2.699-6.156L75.131,174.801z"/>
		<path d="M93.693,174.801c0.746-2.789,3.184-4.582,5.41-3.984c2.23,0.598,3.445,3.367,2.695,6.156l-4.559,17.023
			c-0.75,2.789-3.184,4.582-5.414,3.984c-2.227-0.598-3.441-3.367-2.695-6.156L93.693,174.801z"/>
		<path d="M124.049,171.746c0.254-0.574-0.055-1.043-0.684-1.043h-9.652c-0.629,0-0.852,0.496-1.016,1.102l-3.961,14.934
			c-0.164,0.605,0.215,1.105,0.844,1.105h5.371c0.629,0,0.992,0.488,0.809,1.09l-4.863,15.098c-0.207,0.523,0.48,0.918,0.887,0.594
			l16.977-22.672c0.379-0.504,0.172-0.914-0.457-0.914h-7.031c-0.629,0-0.938-0.473-0.684-1.047L124.049,171.746z"/>
		<path d="M135.607,114.398c-2.352-15.57-16.031-27.559-32.504-27.559c-11.906,0-22.828,6.484-28.582,16.402
			c-15.832,1.062-28.383,14.074-28.383,29.918c0,16.543,13.672,30,30.477,30h52.02c13.914,0,25.227-11.152,25.227-24.863
			C153.861,126.969,146.139,117.387,135.607,114.398z M128.635,154.16h-52.02c-11.863,0-21.477-9.402-21.477-21
			c0-11.586,9.613-20.988,21.477-20.988h3.734c3.039-9.461,12.074-16.332,22.754-16.332c13.18,0,23.859,10.445,23.859,23.328v3.266
			h1.672c8.965,0,16.23,7.105,16.23,15.863C144.865,147.051,137.6,154.16,128.635,154.16z"/>
	</g>
</g>
</svg>
