<?xml version="1.0" encoding="utf-8"?>
<!-- Generator: Adobe Illustrator 16.0.0, SVG Export Plug-In . SVG Version: 6.00 Build 0)  -->
<!DOCTYPE svg PUBLIC "-//W3C//DTD SVG 1.1//EN" "http://www.w3.org/Graphics/SVG/1.1/DTD/svg11.dtd">
<svg version="1.1" xmlns="http://www.w3.org/2000/svg" xmlns:xlink="http://www.w3.org/1999/xlink" x="20px" y="45px" width="160px"
	 height="160px" viewBox="20 45 160 160" xml:space="preserve">
<g id="SUN_x2B_CLOUD" fill="white">
	<g>
		<path d="M117.291,88.316c2.858,0,5.177-2.895,5.177-6.469c0-1.18,0-9.172,0-10.359c0-3.574-2.318-6.469-5.177-6.469
			c-2.856,0-5.175,2.895-5.175,6.469c0,1.188,0,9.18,0,10.359C112.116,85.422,114.434,88.316,117.291,88.316z"/>
		<path d="M143.242,99.066c2.021,2.023,5.706,1.613,8.232-0.914c0.838-0.836,6.489-6.488,7.328-7.328
			c2.526-2.523,2.935-6.211,0.914-8.23c-2.021-2.023-5.708-1.613-8.234,0.914c-0.839,0.84-6.489,6.488-7.325,7.324
			C141.629,93.359,141.218,97.047,143.242,99.066z"/>
		<path d="M153.991,125.016c0,2.863,2.896,5.176,6.468,5.176c1.185,0,9.176,0,10.36,0c3.574,0,6.47-2.312,6.47-5.176
			c0-2.855-2.896-5.172-6.47-5.172c-1.185,0-9.176,0-10.36,0C156.886,119.844,153.991,122.16,153.991,125.016z"/>
		<path d="M143.24,150.969c-2.021,2.02-1.612,5.707,0.917,8.234c0.836,0.836,6.486,6.488,7.325,7.328
			c2.526,2.523,6.214,2.934,8.234,0.914c2.021-2.023,1.612-5.711-0.916-8.238c-0.837-0.836-6.49-6.488-7.326-7.324
			C148.948,149.355,145.263,148.945,143.24,150.969z"/>
		<path d="M91.341,99.066c2.021-2.02,1.611-5.707-0.915-8.234c-0.839-0.836-6.489-6.484-7.328-7.324
			c-2.526-2.527-6.214-2.934-8.231-0.914c-2.023,2.02-1.615,5.707,0.913,8.23c0.84,0.84,6.49,6.492,7.326,7.328
			C85.632,100.68,89.319,101.09,91.341,99.066z"/>
		<path d="M144.669,125.016c0-15.184-12.191-27.379-27.379-27.379c-10.312,0-19.233,5.633-23.904,14
			c-4.178-1.896-8.815-2.977-13.711-2.977c-11.906,0-22.828,6.484-28.582,16.402c-15.831,1.062-28.382,14.074-28.382,29.918
			c0,16.543,13.672,30,30.476,30h52.02c13.914,0,25.227-11.152,25.227-24.863c0-3.561-0.766-6.949-2.139-10.014
			C137.956,145.885,144.669,136.279,144.669,125.016z M105.207,175.98h-52.02c-11.863,0-21.476-9.402-21.476-21
			c0-11.586,9.612-20.988,21.476-20.988h3.734c3.039-9.461,12.072-16.332,22.754-16.332c13.18,0,23.859,10.445,23.859,23.328v3.266
			h1.672c8.965,0,16.23,7.105,16.23,15.863C121.437,168.871,114.171,175.98,105.207,175.98z"/>
	</g>
</g>
</svg>
