<?xml version="1.0" encoding="utf-8"?>
<!DOCTYPE svg PUBLIC "-//W3C//DTD SVG 1.1//EN" "http://www.w3.org/Graphics/SVG/1.1/DTD/svg11.dtd">
<svg version="1.1" xmlns="http://www.w3.org/2000/svg" x="0px"
	 y="0px" width="16px" height="16px" viewBox="0.5 16.5 16 16" enable-background="new 0.5 16.5 16 16" xml:space="preserve">
<path d="M9.914,24.5l3.293-3.293c0.391-0.391,0.391-1.023,0-1.414s-1.023-0.391-1.414,0L8.5,23.086l-3.293-3.293
	c-0.391-0.391-1.023-0.391-1.414,0s-0.391,1.023,0,1.414L7.086,24.5l-3.293,3.293c-0.391,0.391-0.391,1.023,0,1.414
	C3.988,29.402,4.244,29.5,4.5,29.5s0.512-0.098,0.707-0.293L8.5,25.914l3.293,3.293c0.195,0.195,0.451,0.293,0.707,0.293
	s0.512-0.098,0.707-0.293c0.391-0.391,0.391-1.023,0-1.414L9.914,24.5z"/>
</svg>
