<?xml version="1.0" encoding="utf-8"?>
<!-- Generator: Adobe Illustrator 17.0.0, SVG Export Plug-In . SVG Version: 6.00 Build 0)  -->
<!DOCTYPE svg PUBLIC "-//W3C//DTD SVG 1.1//EN" "http://www.w3.org/Graphics/SVG/1.1/DTD/svg11.dtd">
<svg version="1.1" xmlns="http://www.w3.org/2000/svg"
  x="0px" y="0px" width="16px" height="16px"
  viewBox="-5.5 96.5 16 16" enable-background="new -5.5 96.5 16 16"
  xml:space="preserve">
<path d="M3.962,104.501l4.234-4.234c0.405-0.403,0.405-1.059,0-1.462c-0.403-0.405-1.06-0.405-1.463,0l-4.234,4.234l-4.234-4.234
  c-0.403-0.405-1.059-0.405-1.462,0c-0.403,0.403-0.403,1.059,0,1.462l4.234,4.234l-4.234,4.234c-0.403,0.403-0.403,1.06,0,1.463
  c0.201,0.201,0.467,0.302,0.732,0.302c0.266,0,0.529-0.101,0.73-0.302l4.234-4.234l4.234,4.234c0.202,0.201,0.468,0.302,0.732,0.302
  c0.266,0,0.529-0.101,0.731-0.302c0.405-0.403,0.405-1.06,0-1.463L3.962,104.501z"/>
</svg>
