<svg xmlns="http://www.w3.org/2000/svg" xmlns:xlink="http://www.w3.org/1999/xlink" viewBox="0 0 24 24" version="1.1" x="0px" y="0px"><title>29 -Coding- (Solid)</title><desc>Created with Sketch.</desc><g stroke="none" stroke-width="1" fill="none" fill-rule="evenodd"><g fill="#000000"><path d="M19.707,12.7065 L16.707,15.7065 C16.512,15.9015 16.256,15.9995 16,15.9995 C15.744,15.9995 15.488,15.9015 15.293,15.7065 C14.902,15.3155 14.902,14.6835 15.293,14.2925 L17.586,11.9995 L15.293,9.7065 C14.902,9.3155 14.902,8.6835 15.293,8.2925 C15.684,7.9015 16.316,7.9015 16.707,8.2925 L19.707,11.2925 C20.098,11.6835 20.098,12.3155 19.707,12.7065 L19.707,12.7065 Z M13.948,9.3155 L11.948,15.3155 C11.809,15.7345 11.419,15.9995 11,15.9995 C10.895,15.9995 10.789,15.9835 10.684,15.9485 C10.16,15.7735 9.877,15.2065 10.052,14.6835 L12.052,8.6835 C12.227,8.1595 12.788,7.8735 13.316,8.0505 C13.84,8.2255 14.123,8.7915 13.948,9.3155 L13.948,9.3155 Z M8.728,14.3135 C9.106,14.7155 9.088,15.3485 8.686,15.7275 C8.492,15.9095 8.246,15.9995 8,15.9995 C7.734,15.9995 7.469,15.8945 7.272,15.6855 L4.487,12.7275 C4.389,12.6355 4.309,12.5235 4.253,12.3955 C4.095,12.0285 4.167,11.6035 4.44,11.3125 L7.272,8.3125 C7.652,7.9115 8.284,7.8925 8.686,8.2725 C9.088,8.6515 9.106,9.2845 8.728,9.6855 L6.546,11.9965 L8.728,14.3135 Z M20.003,-0.0005 L3.997,-0.0005 C1.793,-0.0005 0,1.7925 0,3.9965 L0,20.0025 C0,22.2065 1.793,23.9995 3.997,23.9995 L20.003,23.9995 C22.207,23.9995 24,22.2065 24,20.0025 L24,3.9965 C24,1.7925 22.207,-0.0005 20.003,-0.0005 L20.003,-0.0005 Z"></path></g></g></svg>