<?xml version="1.0" encoding="utf-8"?>
<!-- Generator: Adobe Illustrator 17.0.0, SVG Export Plug-In . SVG Version: 6.00 Build 0)  -->
<!DOCTYPE svg PUBLIC "-//W3C//DTD SVG 1.1//EN" "http://www.w3.org/Graphics/SVG/1.1/DTD/svg11.dtd">
<svg version="1.1" id="Layer_1" xmlns="http://www.w3.org/2000/svg" xmlns:xlink="http://www.w3.org/1999/xlink" x="0px" y="0px"
	 width="64px" height="64px" viewBox="-0.5 0.5 64 64" enable-background="new -0.5 0.5 64 64" xml:space="preserve">
<g id="Captions">
</g>
<g>
	<path d="M23.424,33.976l1.656,1.013c0.279,0,0.42-0.115,0.42-0.346c0-0.147-0.067-0.353-0.198-0.617l-3.658-6.871l-8.107,0.198
		c-0.363,0.017-0.544,0.206-0.544,0.568c0,0.083,0.115,0.198,0.346,0.346l1.681,1.013l-1.78,2.768
		c-0.494,0.791-0.741,1.444-0.741,1.954c0,0.462,0.164,0.981,0.494,1.557l5.512,9.614c-0.132-0.609-0.197-1.186-0.197-1.73
		c0-0.971,0.304-1.927,0.914-2.867L23.424,33.976L23.424,33.976z"/>
	<path d="M25.55,28.366l4.548-7.044c-1.698-3.872-3.502-5.809-5.413-5.809c-1.154,0-1.927,0.322-2.322,0.964l-4.302,6.872
		L25.55,28.366L25.55,28.366z"/>
	<path d="M21.843,47.446h8.774v-9.12h-8.453c-1.038,1.483-1.69,2.49-1.953,3.016c-0.429,0.84-0.642,1.698-0.642,2.57
		C19.569,46.269,20.326,47.446,21.843,47.446L21.843,47.446z"/>
	<path d="M39.91,26.685l3.904-6.575c0.132-0.23,0.198-0.47,0.198-0.716c0-0.297-0.099-0.445-0.296-0.445
		c0.031,0-0.099,0.05-0.396,0.148l-1.78,0.816l-1.631-3.237c-0.726-1.45-2.175-2.175-4.35-2.175H25.402
		c1.235,0.38,2.075,0.75,2.52,1.112c1.039,0.824,2.101,2.373,3.188,4.646l2.027,4.252l-1.509,0.717
		c-0.148,0.066-0.222,0.197-0.222,0.395c0,0.247,0.156,0.388,0.47,0.42L39.91,26.685L39.91,26.685z"/>
	<path d="M43.815,46.088L49.5,35.756c-0.84,0.957-1.755,1.599-2.743,1.928c-0.791,0.264-1.922,0.396-3.387,0.396h-6.327v-1.311
		c0-0.51-0.124-0.766-0.371-0.766c-0.182,0-0.314,0.067-0.395,0.198l-4.003,6.945l4.152,6.377c0.313,0.478,0.584,0.667,0.816,0.568
		c0.23-0.065,0.346-0.188,0.346-0.37v-2.176h3.51C42.382,47.545,43.287,47.059,43.815,46.088L43.815,46.088z"/>
	<path d="M41.343,36.769h3.782c0.905,0,1.845-0.395,2.817-1.186c1.038-0.824,1.557-1.697,1.557-2.621
		c0-0.427-0.141-0.848-0.421-1.26l-4.498-6.871l-7.737,4.499L41.343,36.769L41.343,36.769z"/>
</g>
</svg>
