<?xml version="1.0" encoding="utf-8"?>
<!-- Generator: Adobe Illustrator 17.0.0, SVG Export Plug-In . SVG Version: 6.00 Build 0)  -->
<!DOCTYPE svg PUBLIC "-//W3C//DTD SVG 1.1//EN" "http://www.w3.org/Graphics/SVG/1.1/DTD/svg11.dtd">
<svg version="1.1" id="Layer_1" xmlns="http://www.w3.org/2000/svg" xmlns:xlink="http://www.w3.org/1999/xlink" x="0px" y="0px"
	 width="64px" height="64px" viewBox="-0.5 0.5 64 64" enable-background="new -0.5 0.5 64 64" xml:space="preserve">
<g id="Captions">
</g>
<path fill-rule="evenodd" clip-rule="evenodd" d="M46.26,40.839l-15.589-15.59c-0.123-0.124-0.252-0.234-0.385-0.338
	c0.087-0.472,0.134-0.956,0.134-1.452c0-4.396-3.564-7.959-7.959-7.959c-0.953,0-1.866,0.168-2.713,0.474l4.689,4.689
	c0.648,0.649,0.648,1.699,0,2.348l-2.424,2.424c-0.648,0.648-1.699,0.648-2.347,0l-4.69-4.69c-0.306,0.848-0.475,1.761-0.475,2.713
	c0,4.397,3.564,7.96,7.96,7.96c0.516,0,1.02-0.05,1.509-0.144c0.099,0.124,0.203,0.244,0.318,0.359l15.589,15.589
	c1.653,1.653,4.334,1.653,5.987,0l0.396-0.396C47.913,45.172,47.914,42.491,46.26,40.839z M43.071,46.503
	c-1.356,0-2.454-1.098-2.454-2.453c0-1.355,1.099-2.454,2.454-2.454c1.355,0,2.452,1.099,2.452,2.454
	C45.525,45.405,44.426,46.503,43.071,46.503z M21.125,40.649h-2.302l-3.827,6.283l0.582,0.581l0.323,0.323l0.582,0.582l6.283-3.827
	v-2.301l4.862-4.862l-1.642-1.641L21.125,40.649z M42.558,17.929c0.233-0.233,0.613-0.233,0.846,0c0.234,0.234,0.234,0.612,0,0.848
	l-8.651,8.648l1.073,1.073l8.65-8.651c0.234-0.233,0.612-0.233,0.846,0c0.234,0.234,0.234,0.613,0,0.846l-8.651,8.651L38,30.671
	l8.396-8.397c1.403-1.402,1.403-3.676,0-5.08l-0.338-0.338c-1.403-1.403-3.677-1.403-5.08,0l-8.397,8.396l1.327,1.327L42.558,17.929
	z"/>
</svg>
