<?xml version="1.0" encoding="utf-8"?>
<!-- Generator: Adobe Illustrator 17.0.0, SVG Export Plug-In . SVG Version: 6.00 Build 0)  -->
<!DOCTYPE svg PUBLIC "-//W3C//DTD SVG 1.1//EN" "http://www.w3.org/Graphics/SVG/1.1/DTD/svg11.dtd">
<svg version="1.1" id="Layer_1" xmlns="http://www.w3.org/2000/svg" xmlns:xlink="http://www.w3.org/1999/xlink" x="0px" y="0px"
	 width="64px" height="64px" viewBox="-0.5 0.5 64 64" enable-background="new -0.5 0.5 64 64" xml:space="preserve">
<g id="Captions">
</g>
<g>
	<path d="M24.471,38.285c1.184,3.028,3.946,5.175,7.392,5.175s6.208-2.147,7.392-5.175H24.471z"/>
	<path d="M28.167,28.306c0,1.429-1.158,2.587-2.587,2.587s-2.587-1.159-2.587-2.587c0-1.43,1.158-2.587,2.587-2.587
		S28.167,26.876,28.167,28.306"/>
	<path d="M40.734,28.306c0,1.429-1.158,2.587-2.587,2.587c-1.429,0-2.587-1.159-2.587-2.587c0-1.43,1.158-2.587,2.587-2.587
		C39.576,25.719,40.734,26.876,40.734,28.306"/>
	<path d="M52.338,42.878c0.034,0.008,0.068,0.013,0.1,0.017c0.046,0.008,0.092,0.01,0.138,0.01c0.51,0,0.924-0.413,0.924-0.924
		c0-0.441-0.309-0.81-0.723-0.902l-0.056-0.019c-0.427-0.169-2.372-1.147-2.941-5.122c-0.121-0.849,0.001-1.945,0.142-3.213
		c0.53-4.762,1.328-11.958-10.27-17.452c-0.255-0.12-0.55-0.118-0.805,0.006c-0.013,0.007-0.024,0.017-0.038,0.025
		c-0.047-0.021-0.095-0.04-0.144-0.06c-0.045-0.343-0.261-0.646-0.611-0.757c-0.127-0.04-3.175-0.988-7.219-0.988
		c-4.594,0-10.97,1.257-15.248,7.246c-2.642,3.698-3.806,8.378-3.117,12.516c0.053,0.315,0.111,0.622,0.166,0.919
		c0.468,2.481,0.749,3.979-2.723,6.294c-0.328,0.218-0.48,0.617-0.382,0.999s0.425,0.657,0.818,0.691
		c0.373,0.031,0.734,0.046,1.079,0.046h0.002c0.391,0,0.765-0.031,1.133-0.07c-0.058,1.176-0.339,2.475-1.17,3.029
		c-0.639,0.427-0.883,0.903-0.725,1.42c0.067,0.227,0.322,0.752,1.199,0.752c0.404,0,1.006-0.106,1.683-0.281l-0.707,2.83
		c-0.068,0.275-0.006,0.568,0.169,0.792c0.175,0.224,0.443,0.356,0.728,0.356c0.334,0,7.699-0.053,8.608-4.435
		c2.751,1.753,6.014,2.772,9.518,2.772c3.373,0,6.526-0.942,9.213-2.576c1.087,4.184,8.228,4.239,8.556,4.239
		c0.006,0.001,0.012,0.001,0.014,0c0.51,0,0.924-0.413,0.924-0.923c0-0.135-0.029-0.263-0.081-0.379l-0.675-2.694
		c0.774,0.198,1.4,0.3,1.69,0.3c0.876,0,1.131-0.525,1.198-0.752c0.158-0.517-0.086-0.994-0.725-1.42
		c-0.787-0.524-1.086-1.692-1.165-2.806c0.434,0.152,0.865,0.299,1.284,0.439C52.251,42.858,52.338,42.878,52.338,42.878
		 M18.631,38.189c0.198-0.347,0.38-0.712,0.539-1.106c1.051-2.608,1.051-5.526,1.051-6.929c0-4.352,2.115-6.469,6.469-6.469
		c8.604,0,11.074-4.745,11.175-4.947c0.03-0.06,0.053-0.122,0.07-0.189l0.085-0.342c0.051,0.024,0.099,0.049,0.15,0.073
		c0.051,2.105,0.67,5.183,3.465,7.42c2.563,2.051,2.251,4.904,2,7.199c-0.067,0.609-0.129,1.183-0.129,1.689
		c0,1.737,0.507,3.077,1.321,4.139c-2.515,4.579-7.382,7.688-12.964,7.688C26.067,46.416,21.054,43.055,18.631,38.189"/>
</g>
</svg>
