<?xml version="1.0" encoding="utf-8"?>
<!-- Generator: Adobe Illustrator 17.0.0, SVG Export Plug-In . SVG Version: 6.00 Build 0)  -->
<!DOCTYPE svg PUBLIC "-//W3C//DTD SVG 1.1//EN" "http://www.w3.org/Graphics/SVG/1.1/DTD/svg11.dtd">
<svg version="1.1" id="Layer_1" xmlns="http://www.w3.org/2000/svg" xmlns:xlink="http://www.w3.org/1999/xlink" x="0px" y="0px"
	 width="64px" height="64px" viewBox="-0.5 0.5 64 64" enable-background="new -0.5 0.5 64 64" xml:space="preserve">
<g id="Captions">
</g>
<path d="M33.246,16.518c-11.516-0.47-21.274,8.519-21.745,20.038c-0.004,0.103,0.011,0.203,0.034,0.299
	c-0.021,0.084-0.035,0.171-0.035,0.261c0,3.14,5.332,6.319,15.523,6.319c0.024,0,0.046-0.006,0.069-0.007
	c1.962,2.285,4.827,3.784,8.066,3.917c0.19,0.008,0.378,0.011,0.567,0.011c7.34,0,13.459-5.816,13.76-13.215
	C49.866,24.805,42.581,16.9,33.246,16.518z M47.292,34.052c-0.26,6.38-5.68,11.356-12.045,11.099
	c-4.983-0.204-8.872-4.424-8.669-9.407c0.158-3.866,3.427-6.888,7.298-6.725c1.439,0.059,2.769,0.675,3.746,1.734
	c0.976,1.06,1.482,2.436,1.422,3.876c-0.044,1.094-0.512,2.104-1.316,2.845c-0.804,0.741-1.847,1.129-2.943,1.08
	c-0.816-0.033-1.57-0.382-2.123-0.983c-0.554-0.6-0.839-1.381-0.806-2.196c0.05-1.227,1.08-2.184,2.315-2.134
	c0.86,0.035,1.532,0.764,1.497,1.624c-0.024,0.606,0.447,1.117,1.052,1.142c0.622,0.02,1.116-0.447,1.142-1.053
	c0.084-2.068-1.531-3.821-3.601-3.906c-2.431-0.095-4.498,1.802-4.598,4.237c-0.057,1.402,0.435,2.742,1.385,3.774
	c0.951,1.031,2.247,1.631,3.648,1.688c1.68,0.068,3.285-0.52,4.521-1.659c1.235-1.139,1.954-2.691,2.022-4.37
	c0.083-2.025-0.628-3.962-2.001-5.453c-1.374-1.491-3.246-2.357-5.271-2.44c-5.087-0.202-9.372,3.754-9.58,8.829
	c-0.081,1.998,0.369,3.895,1.22,5.559c-7.316-0.262-11.911-2.517-11.911-4.098c0-0.087-0.013-0.171-0.032-0.252
	c0.017-0.07,0.028-0.143,0.031-0.217c0.421-10.31,9.152-18.36,19.461-17.934C41.282,19.043,47.624,25.925,47.292,34.052z"/>
</svg>
