<?xml version="1.0" encoding="utf-8"?>
<!-- Generator: Adobe Illustrator 17.0.0, SVG Export Plug-In . SVG Version: 6.00 Build 0)  -->
<!DOCTYPE svg PUBLIC "-//W3C//DTD SVG 1.1//EN" "http://www.w3.org/Graphics/SVG/1.1/DTD/svg11.dtd">
<svg version="1.1" id="Layer_1" xmlns="http://www.w3.org/2000/svg" xmlns:xlink="http://www.w3.org/1999/xlink" x="0px" y="0px"
	 width="64px" height="64px" viewBox="-0.5 0.5 64 64" enable-background="new -0.5 0.5 64 64" xml:space="preserve">
<g id="Captions">
</g>
<path d="M54.498,45.695c-0.022-0.454-13.119-8.724-13.387-8.975c-13.427,4.657-22.12-8.316-22.12-8.316
	c0.359,1.053,11.121,11.13,24.318,5.419c-3.185-3.072-11.773-7.224-17.081-11.853c-1.017-0.888-1.82-2.722-4.296-3.929
	c-3.582-1.748-7.493,1.3-7.493,1.3s-1.643,0.348-2.779,0.593c-0.792,0.172,1.561,1.21,2.233,2.355s-0.692,3.404-0.903,4.542
	c-1.73,9.367,12.735,14.562,13.068,15.148c0.333,0.588-1.52,1.989-1.52,1.989s0.627,0.24,1.082,0.215
	c0.453-0.02,1.952-1.903,1.952-1.903c5.459,1.382,14.709-1.408,16.623-0.476c1.701,0.828,9.245,4.692,9.677,4.778
	C54.305,46.668,54.521,46.149,54.498,45.695z M16.859,21.454c-0.626-0.124-1.034-0.736-0.91-1.361
	c0.125-0.628,0.736-1.034,1.361-0.91c0.626,0.124,1.035,0.733,0.91,1.361C18.096,21.17,17.484,21.579,16.859,21.454z"/>
</svg>
