<?xml version="1.0" encoding="utf-8"?>
<!-- Generator: Adobe Illustrator 17.0.0, SVG Export Plug-In . SVG Version: 6.00 Build 0)  -->
<!DOCTYPE svg PUBLIC "-//W3C//DTD SVG 1.1//EN" "http://www.w3.org/Graphics/SVG/1.1/DTD/svg11.dtd">
<svg version="1.1" id="Layer_1" xmlns="http://www.w3.org/2000/svg" xmlns:xlink="http://www.w3.org/1999/xlink" x="0px" y="0px"
	 width="64px" height="64px" viewBox="-0.5 0.5 64 64" enable-background="new -0.5 0.5 64 64" xml:space="preserve">
<g id="Captions">
</g>
<g>
	<path d="M39.829,42.544c0.002,2.093,1.722,3.785,3.835,3.782c2.126-0.003,3.838-1.698,3.835-3.792
		c-0.004-2.089-1.72-3.783-3.846-3.78C41.542,38.756,39.828,40.455,39.829,42.544z"/>
	<path d="M38.875,33.475L22.832,38.32c2.042,0.771,4.095,0.606,6.664,2.789c1.955,1.659,4.183,12.526,4.183,12.526
		s0.763,0.556,2.646-0.05c1.883-0.606,1.991-1.351,1.991-1.351s-4.158-10.282-3.447-12.748
		C35.801,36.246,37.602,35.247,38.875,33.475z"/>
	<path d="M40.61,20.474c-2.482-8.219-10.731-12.527-17.573-10.46c-6.842,2.065-11.328,10.219-8.845,18.439
		c1.333,4.416,4.111,7.243,7.361,9.236c0.007,0.004,0.013,0.008,0.019,0.012l18.011-5.438c0.002-0.008,0.005-0.013,0.009-0.02
		C41.195,28.783,41.944,24.891,40.61,20.474z"/>
</g>
</svg>
