<?xml version="1.0" encoding="utf-8"?>
<!-- Generator: Adobe Illustrator 17.0.0, SVG Export Plug-In . SVG Version: 6.00 Build 0)  -->
<!DOCTYPE svg PUBLIC "-//W3C//DTD SVG 1.1//EN" "http://www.w3.org/Graphics/SVG/1.1/DTD/svg11.dtd">
<svg version="1.1" id="Layer_1" xmlns="http://www.w3.org/2000/svg" xmlns:xlink="http://www.w3.org/1999/xlink" x="0px" y="0px"
	 width="64px" height="64px" viewBox="-0.5 0.5 64 64" enable-background="new -0.5 0.5 64 64" xml:space="preserve">
<g id="Captions">
</g>
<path d="M31.013,28.989c2.348,0,4.251-1.901,4.251-4.249c0-2.348-1.903-4.253-4.251-4.253c-2.348,0-4.252,1.906-4.252,4.253
	C26.761,27.088,28.664,28.989,31.013,28.989z M38.006,27.206c-2.348,0-4.252,1.904-4.252,4.252c0,2.347,1.904,4.251,4.252,4.251
	c2.348,0,4.251-1.904,4.251-4.251C42.257,29.11,40.353,27.206,38.006,27.206z M35.4,37.218c-2.348,0-4.251,1.901-4.251,4.25
	c0,2.348,1.903,4.252,4.251,4.252c2.348,0,4.252-1.904,4.252-4.252C39.651,39.119,37.747,37.218,35.4,37.218z M28.544,38.725
	c2.348,0,4.251-1.904,4.251-4.251c0-2.348-1.903-4.25-4.251-4.25s-4.251,1.903-4.251,4.25
	C24.293,36.821,26.196,38.725,28.544,38.725z M25.938,39.412c-2.348,0-4.251,1.901-4.251,4.25c0,2.348,1.903,4.252,4.251,4.252
	c2.348,0,4.251-1.905,4.251-4.252C30.189,41.313,28.286,39.412,25.938,39.412z M16.751,42.014c-2.349,0-4.251,1.905-4.251,4.253
	c0,2.348,1.902,4.251,4.251,4.251c2.348,0,4.251-1.903,4.251-4.251C21.003,43.919,19.099,42.014,16.751,42.014z M18.809,41.195
	c2.348,0,4.25-1.905,4.25-4.251c0-2.35-1.903-4.252-4.25-4.252c-2.348,0-4.252,1.903-4.252,4.252
	C14.557,39.29,16.461,41.195,18.809,41.195z M21.14,31.183c2.348,0,4.251-1.901,4.251-4.251c0-2.346-1.903-4.252-4.251-4.252
	s-4.251,1.906-4.251,4.252C16.889,29.282,18.793,31.183,21.14,31.183z M51.786,19.117c-0.391,0-0.735,0.155-1.024,0.374
	c-1.707-0.562-3.255-0.816-4.646-0.816c-1.522-0.001-2.839,0.302-3.984,0.763c2.082-4.993-3.046-8.243-4.817-8.938
	c-0.964,8.369,3.699,9.101,4.285,9.16c-1.328,0.623-2.392,1.463-3.203,2.294c-0.796,0.81-1.371,1.612-1.767,2.202
	c-0.195,0.294-0.35,0.538-0.448,0.683c-0.016,0.024-0.03,0.045-0.042,0.063c-0.202,0.151-0.331,0.39-0.331,0.66
	c0,0.456,0.369,0.822,0.825,0.822c0.619-0.081,0.598-0.288,0.711-0.354c0.763-0.94,2.971-5.671,8.77-5.708
	c1.162,0,2.493,0.21,3.993,0.69c0.095,0.856,0.796,1.533,1.678,1.533c0.948,0,1.714-0.767,1.714-1.715
	C53.5,19.884,52.733,19.117,51.786,19.117z"/>
</svg>
