<?xml version="1.0" encoding="utf-8"?>
<!-- Generator: Adobe Illustrator 17.0.0, SVG Export Plug-In . SVG Version: 6.00 Build 0)  -->
<!DOCTYPE svg PUBLIC "-//W3C//DTD SVG 1.1//EN" "http://www.w3.org/Graphics/SVG/1.1/DTD/svg11.dtd">
<svg version="1.1" id="Layer_1" xmlns="http://www.w3.org/2000/svg" xmlns:xlink="http://www.w3.org/1999/xlink" x="0px" y="0px"
	 width="64px" height="64px" viewBox="-0.5 0.5 64 64" enable-background="new -0.5 0.5 64 64" xml:space="preserve">
<g id="Captions">
</g>
<g id="Your_Icon">
	<path d="M50.497,43.901V32.975v-0.863v-0.035L32.14,38.566l-0.432-0.122L12.5,32.328v0.687v10.886c0,2.563,2.665,2.521,2.665,2.521
		h32.802C50.687,46.423,50.497,43.901,50.497,43.901z"/>
	<path d="M50.497,30.384v-5.406c0-2.641-2.57-2.303-2.57-2.303H37.673v-1.481c0-4.693-4.885-4.693-4.885-4.693h-2.405
		c-5.362,0-5.059,4.732-5.059,4.732v1.442H15.205c-2.563,0-2.705,2.303-2.705,2.303v5.685l19.6,6.224L50.497,30.384z M29.124,21.154
		c0-2.523,2.395-2.563,2.395-2.563c2.602,0,2.355,2.602,2.355,2.602v1.481h-4.75V21.154z"/>
</g>
</svg>
