<?xml version="1.0" encoding="utf-8"?>
<!-- Generator: Adobe Illustrator 17.0.0, SVG Export Plug-In . SVG Version: 6.00 Build 0)  -->
<!DOCTYPE svg PUBLIC "-//W3C//DTD SVG 1.1//EN" "http://www.w3.org/Graphics/SVG/1.1/DTD/svg11.dtd">
<svg version="1.1" id="Layer_1" xmlns="http://www.w3.org/2000/svg" xmlns:xlink="http://www.w3.org/1999/xlink" x="0px" y="0px"
	 width="64px" height="64px" viewBox="-0.5 0.5 64 64" enable-background="new -0.5 0.5 64 64" xml:space="preserve">
<g id="Captions">
</g>
<g>
	<g>
		<path d="M29.837,28.847h-8.449c-0.526,0-0.953,0.436-0.953,0.972c0,0.537,0.427,0.973,0.953,0.973h8.449
			c0.526,0,0.952-0.436,0.952-0.973C30.789,29.282,30.363,28.847,29.837,28.847z M29.837,33.105h-8.449
			c-0.526,0-0.953,0.433-0.953,0.971c0,0.536,0.427,0.969,0.953,0.969h8.449c0.526,0,0.952-0.434,0.952-0.969
			C30.789,33.539,30.363,33.105,29.837,33.105z M29.837,37.364h-8.449c-0.526,0-0.953,0.434-0.953,0.968
			c0,0.537,0.427,0.974,0.953,0.974h8.449c0.526,0,0.952-0.436,0.952-0.974C30.789,37.798,30.363,37.364,29.837,37.364z
			 M40.995,40.121v8.358H17.613v-23.12h9.509v-9.688h13.873V27.18l2.892-2.945l0.221-0.225v-9.95c0-0.858-0.689-1.56-1.532-1.56
			H26.828c-0.842,0-2.01,0.506-2.594,1.124l-8.671,9.163c-0.585,0.618-1.063,1.826-1.063,2.684V50.09c0,0.858,0.69,1.56,1.532,1.56
			h26.544c0.842,0,1.532-0.702,1.532-1.56V36.95l-2.241,2.283L40.995,40.121z M24.777,17.578v5.368h-5.074L24.777,17.578z
			 M35.802,34.676l-3.207,7.431l7.392-3.167L35.802,34.676z M36.598,33.864l4.187,4.265l8.37-8.527l-4.185-4.265L36.598,33.864z
			 M50.634,23.832c-1.156-1.177-3.03-1.177-4.186,0l-0.48,0.489l4.187,4.263l0.479-0.487C51.789,26.917,51.789,25.011,50.634,23.832
			z"/>
	</g>
</g>
</svg>
