<?xml version="1.0" encoding="utf-8"?>
<!-- Generator: Adobe Illustrator 17.0.0, SVG Export Plug-In . SVG Version: 6.00 Build 0)  -->
<!DOCTYPE svg PUBLIC "-//W3C//DTD SVG 1.1//EN" "http://www.w3.org/Graphics/SVG/1.1/DTD/svg11.dtd">
<svg version="1.1" id="Layer_1" xmlns="http://www.w3.org/2000/svg" xmlns:xlink="http://www.w3.org/1999/xlink" x="0px" y="0px"
	 width="64px" height="64px" viewBox="-0.5 0.5 64 64" enable-background="new -0.5 0.5 64 64" xml:space="preserve">
<g id="Captions">
</g>
<path d="M26.252,47.087c0,0-0.166,4.811,5.247,4.811c5.414,0,5.247-4.811,5.247-4.811"/>
<path d="M31.499,20.198c-6.307,0-11.419,5.113-11.419,11.419c0,6.539,6.172,10.778,6.172,10.778v2.963h10.495v-2.963
	c0,0,6.172-4.24,6.172-10.778C42.918,25.311,37.805,20.198,31.499,20.198z M29.213,25.835c-1.716,0.584-3.069,1.894-3.708,3.591
	c-0.169,0.445-0.592,0.719-1.04,0.719c-0.13,0-0.263-0.023-0.392-0.072c-0.574-0.217-0.864-0.858-0.648-1.432
	c0.877-2.321,2.724-4.11,5.071-4.91c0.58-0.2,1.212,0.113,1.411,0.693C30.104,25.005,29.793,25.637,29.213,25.835z"/>
<path d="M49.499,29.899c-0.362,0-1.599,0-1.962,0c-1.104,0-1.999,0.717-1.999,1.6c0,0.884,0.896,1.6,1.999,1.6
	c0.363,0,1.6,0,1.962,0c1.103,0,2-0.716,2-1.6C51.499,30.616,50.602,29.899,49.499,29.899z M17.458,31.499
	c0-0.883-0.855-1.6-1.96-1.6c-0.368,0-1.632,0-1.999,0c-1.104,0-1.999,0.717-1.999,1.6c0,0.884,0.895,1.6,1.999,1.6
	c0.367,0,1.632,0,1.999,0C16.603,33.099,17.458,32.383,17.458,31.499z M31.499,17.499c0.883,0,1.6-0.896,1.6-2c0-0.366,0-1.634,0-2
	c0-1.105-0.717-1.999-1.6-1.999c-0.883,0-1.6,0.895-1.6,1.999c0,0.366,0,1.634,0,2C29.899,16.603,30.616,17.499,31.499,17.499z
	 M46.23,19.031c0.781-0.78,0.909-1.921,0.284-2.546c-0.625-0.625-1.765-0.498-2.546,0.282c-0.216,0.216-1.184,1.185-1.399,1.4
	c-0.781,0.781-0.907,1.921-0.282,2.545c0.625,0.626,1.764,0.5,2.543-0.281C45.046,20.215,46.014,19.246,46.23,19.031z
	 M19.031,16.767c-0.781-0.78-1.921-0.907-2.546-0.282c-0.625,0.625-0.498,1.765,0.284,2.545c0.214,0.216,1.183,1.185,1.4,1.4
	c0.781,0.781,1.918,0.907,2.543,0.281c0.625-0.625,0.499-1.764-0.281-2.545C20.214,17.952,19.246,16.983,19.031,16.767z"/>
</svg>
