<?xml version="1.0" encoding="utf-8"?>
<!-- Generator: Adobe Illustrator 17.0.0, SVG Export Plug-In . SVG Version: 6.00 Build 0)  -->
<!DOCTYPE svg PUBLIC "-//W3C//DTD SVG 1.1//EN" "http://www.w3.org/Graphics/SVG/1.1/DTD/svg11.dtd">
<svg version="1.1" id="Layer_1" xmlns="http://www.w3.org/2000/svg" xmlns:xlink="http://www.w3.org/1999/xlink" x="0px" y="0px"
	 width="64px" height="64px" viewBox="0 0 64 64" enable-background="new 0 0 64 64" xml:space="preserve">
<g id="Captions">
</g>
<g>
	<path d="M31.499,36.805c-1.705,0-3.281-0.504-4.632-1.338c-4.768,1.444-8.238,5.572-8.238,10.498c0,0.1,0.029,0.191,0.031,0.29
		h25.677c0.003-0.099,0.032-0.19,0.032-0.29c0-4.926-3.471-9.054-8.238-10.498C34.779,36.301,33.203,36.805,31.499,36.805z"/>
	<path d="M31.499,17.5c3.219,0,6.038,1.715,7.592,4.282c0.811,1.338,1.277,2.908,1.277,4.587c0,4.898-3.971,8.869-8.869,8.869
		s-8.869-3.971-8.869-8.869S26.601,17.5,31.499,17.5z"/>
	<path d="M47.083,21.883c1.741,0,3.264,0.932,4.097,2.325c0.428,0.715,0.674,1.552,0.674,2.446c0,2.635-2.136,4.771-4.771,4.771
		s-4.771-2.136-4.771-4.771S44.448,21.883,47.083,21.883z"/>
	<path d="M53.499,38.825c0-3.543-2.873-6.415-6.416-6.415c-2.884,0-5.323,1.904-6.131,4.524c1.842,1.502,3.189,3.469,3.876,5.676
		h8.671V38.825z"/>
	<path d="M15.914,21.883c1.953,0,3.632,1.174,4.37,2.854c0.258,0.587,0.401,1.235,0.401,1.917c0,2.635-2.136,4.771-4.771,4.771
		s-4.771-2.136-4.771-4.771S13.279,21.883,15.914,21.883z"/>
	<path d="M22.046,36.934c-0.808-2.62-3.247-4.524-6.131-4.524c-3.543,0-6.415,2.873-6.415,6.415v3.785h8.671
		C18.857,40.404,20.204,38.436,22.046,36.934z"/>
</g>
</svg>
