<?xml version="1.0" encoding="utf-8"?>
<!-- Generator: Adobe Illustrator 17.0.0, SVG Export Plug-In . SVG Version: 6.00 Build 0)  -->
<!DOCTYPE svg PUBLIC "-//W3C//DTD SVG 1.1//EN" "http://www.w3.org/Graphics/SVG/1.1/DTD/svg11.dtd">
<svg version="1.1" id="Layer_1" xmlns="http://www.w3.org/2000/svg" xmlns:xlink="http://www.w3.org/1999/xlink" x="0px" y="0px"
	 width="64px" height="64px" viewBox="-0.5 0.5 64 64" enable-background="new -0.5 0.5 64 64" xml:space="preserve">
<g id="Captions">
</g>
<path d="M46.312,23.223c-0.381-0.153-0.75-0.276-1.117-0.384c-0.812-0.214-1.66-0.339-2.539-0.339H20.344
	c-0.879,0-1.727,0.125-2.539,0.339c-0.367,0.108-0.737,0.231-1.117,0.384c-3.626,1.458-6.188,5.003-6.188,9.149
	c0,5.447,4.418,9.863,9.864,9.863c3.428,0,6.446-1.749,8.214-4.402h0.104h5.636h0.104c1.768,2.653,4.786,4.402,8.214,4.402
	c5.447,0,9.864-4.416,9.864-9.863C52.5,28.226,49.938,24.681,46.312,23.223z M25.725,33.69h-4.119v4.084h-2.785V33.69h-4.095v-2.785
	h4.095v-4.106h2.785v4.106h4.119V33.69z M41.326,36.517c-1.143,0-2.069-0.926-2.069-2.069c0-1.142,0.926-2.07,2.069-2.07
	c1.144,0,2.07,0.928,2.07,2.07C43.396,35.59,42.469,36.517,41.326,36.517z M46.294,32.493c-1.144,0-2.07-0.926-2.07-2.068
	c0-1.144,0.926-2.07,2.07-2.07c1.142,0,2.068,0.926,2.068,2.07C48.362,31.567,47.436,32.493,46.294,32.493z"/>
</svg>
