<?xml version="1.0" encoding="utf-8"?>
<!-- Generator: Adobe Illustrator 17.0.0, SVG Export Plug-In . SVG Version: 6.00 Build 0)  -->
<!DOCTYPE svg PUBLIC "-//W3C//DTD SVG 1.1//EN" "http://www.w3.org/Graphics/SVG/1.1/DTD/svg11.dtd">
<svg version="1.1" id="Layer_1" xmlns="http://www.w3.org/2000/svg" xmlns:xlink="http://www.w3.org/1999/xlink" x="0px" y="0px"
	 width="64px" height="64px" viewBox="0 0 64 64" enable-background="new 0 0 64 64" xml:space="preserve">
<g id="Captions">
</g>
<g>
	<path d="M31.702,44.926l-1.214-2.604c0,0,0.679-0.321,1.113-0.519c0.434-0.198,1.503-0.701,1.503-0.701l1.214,2.604L31.702,44.926z
		"/>
	<path d="M35.184,43.304l1.013-3.43L36.116,39.7c0,0-1.695,0.786-1.417,0.661s-1.194,0.556-1.194,0.556l1.214,2.603L35.184,43.304z"
		/>
	<path d="M25.103,37.505l0.823,2.786l2.569-1.198l-1.214-2.603c0,0-0.733,0.308-1.101,0.513
		C25.812,37.208,25.103,37.505,25.103,37.505z"/>
	<path d="M27.078,43.914l-0.071,0.033l0.823,2.786l0.462-0.216c0,0-0.261-0.536-0.425-0.91
		C27.703,45.232,27.078,43.914,27.078,43.914z"/>
	<path d="M28.692,46.332l-1.214-2.604l2.61-1.217l1.214,2.604c0,0-0.937,0.445-1.382,0.644
		C29.476,45.958,28.692,46.332,28.692,46.332z"/>
	<path d="M34.911,29.258l1.22,2.616l-2.61,1.217l-1.22-2.616c0,0,1.088-0.512,1.394-0.65S34.911,29.258,34.911,29.258z"/>
	<path d="M36.329,39.113l0.108-0.051l1.091-3.694c0,0-1.225,0.566-1.369,0.638c-0.144,0.072-1.05,0.49-1.05,0.49L36.329,39.113z"/>
	<path d="M29.289,31.879c0,0,1.143-0.554,1.448-0.675s1.163-0.542,1.163-0.542l1.22,2.616l-2.611,1.218L29.289,31.879z"/>
	<path d="M28.891,32.068l1.22,2.617l-2.617,1.22l-1.22-2.617c0,0,1.478-0.725,1.779-0.829S28.891,32.068,28.891,32.068z"/>
	<path d="M36.322,32.276l1.214,2.603l-2.61,1.217l-1.214-2.603c0,0,0.795-0.375,1.177-0.549
		C35.271,32.771,36.322,32.276,36.322,32.276z"/>
	<path d="M27.292,43.331l-1.22-2.616c0,0,1.018-0.475,1.309-0.61c0.291-0.135,1.301-0.607,1.301-0.607l1.22,2.616L27.292,43.331z"/>
	<path d="M30.298,35.08l1.214,2.604l-2.616,1.22L27.681,36.3c0,0,0.783-0.378,1.218-0.568C29.333,35.542,30.298,35.08,30.298,35.08z
		"/>
	<path d="M31.134,27.971l0.981,2.104l2.611-1.217l-0.544-1.165c-0.306-0.123-0.596-0.285-0.864-0.485
		C32.687,27.679,31.932,27.945,31.134,27.971z"/>
	<path d="M33.309,33.68l1.214,2.604l-2.61,1.217l-1.214-2.604c0,0,0.811-0.401,1.191-0.556C32.271,34.188,33.309,33.68,33.309,33.68
		z"/>
	<path d="M30.302,41.924l-1.22-2.616c0,0,0.973-0.447,1.211-0.565c0.239-0.117,1.405-0.655,1.405-0.655l1.22,2.616L30.302,41.924z"
		/>
	<path d="M33.319,40.514l-1.22-2.617c0,0,0.852-0.399,1.189-0.554s1.422-0.663,1.422-0.663l1.22,2.617L33.319,40.514z"/>
	<path d="M37.808,34.424l0.973-3.297c0,0-0.867,0.406-1.147,0.535s-0.915,0.427-0.915,0.427L37.808,34.424z"/>
	<path d="M31,55.789c0.294,0,0.552-0.193,0.636-0.475l0.294-0.996l-0.644-1.379l-1.426,0.665l0.505,1.71
		C30.448,55.596,30.706,55.789,31,55.789z"/>
	<path d="M29.885,49.935L28.91,50.39c0,0,0.223,0.748,0.304,1.029c0.081,0.281,0.519,1.756,0.519,1.756l1.367-0.637L29.885,49.935z"
		/>
	<path d="M23.2,31.063l0.823,2.786l1.664-0.777c0,0-0.544-1.159-0.709-1.522c-0.165-0.363-0.504-1.081-0.504-1.081L23.2,31.063z"/>
	<path d="M24.874,30.282c0,0,1.37-0.665,1.686-0.786c0.315-0.121,0.931-0.434,0.931-0.434l1.214,2.604l-2.616,1.22L24.874,30.282z"
		/>
	<path d="M23.073,30.635l1.213-0.566c0,0-0.388-0.847-0.524-1.124c-0.137-0.278-0.583-1.25-0.583-1.25
		c-0.288,0.116-0.592,0.197-0.904,0.241L23.073,30.635z"/>
	<path d="M27.304,28.662l-0.342-0.734c-0.196,0.03-0.395,0.046-0.597,0.046c-0.849,0-1.652-0.268-2.318-0.766
		c-0.149,0.111-0.306,0.21-0.468,0.297l1.108,2.377L27.304,28.662z"/>
	<path d="M33.352,49.507c0,0-0.218-0.445-0.284-0.607s-0.172-0.369-0.172-0.369l-2.61,1.217l1.214,2.604l1.172-0.547L33.352,49.507z
		"/>
	<path d="M27.405,27.833l0.299,0.642l1.754-0.818c-0.274-0.118-0.534-0.268-0.776-0.449C28.297,27.496,27.864,27.707,27.405,27.833z
		"/>
	<path d="M39.229,29.613l0.496-1.678c-0.416-0.058-0.815-0.183-1.186-0.368l-0.216,0.101L39.229,29.613z"/>
	<path d="M31.687,52.752l0.431,0.927l0.387-1.309c0,0-0.279,0.132-0.431,0.201C31.922,52.641,31.687,52.752,31.687,52.752z"/>
	<path d="M33.926,47.563l0.849-2.877l-0.269-0.579c0,0-0.985,0.453-1.325,0.618c-0.34,0.165-1.292,0.603-1.292,0.603l1.221,2.615
		L33.926,47.563z"/>
	<path d="M33.759,48.129c0,0-0.197,0.073-0.259,0.12s-0.204,0.095-0.204,0.095l0.244,0.523L33.759,48.129z"/>
	<path d="M30.1,49.348l-1.221-2.616l2.61-1.218l1.221,2.616c0,0-0.725,0.343-1.062,0.496S30.1,49.348,30.1,49.348z"/>
	<path d="M29.105,31.479c0,0,0.869-0.402,1.257-0.586s1.353-0.631,1.353-0.631l-1.075-2.305c-0.195-0.018-0.387-0.049-0.574-0.095
		l-2.175,1.014L29.105,31.479z"/>
	<path d="M28.479,46.918l-0.523,0.243l0.828,2.8l0.915-0.427c0,0-0.617-1.345-0.762-1.634C28.791,47.61,28.479,46.918,28.479,46.918
		z"/>
	<path d="M34.753,27.873l0.372,0.799l2.611-1.217l-0.034-0.073c-0.612,0.386-1.322,0.592-2.066,0.592
		C35.335,27.974,35.039,27.939,34.753,27.873z"/>
	<path d="M24.15,34.277l0.826,2.8l2.118-0.988l-1.22-2.616c0,0-0.652,0.305-0.982,0.458C24.562,34.083,24.15,34.277,24.15,34.277z"
		/>
	<path d="M35.312,29.072l1.22,2.617l2.417-1.127l0.091-0.31l-1.118-2.397c0,0-1.119,0.521-1.434,0.669
		C36.172,28.672,35.312,29.072,35.312,29.072z"/>
	<g>
		<path d="M41.552,21.119C41.058,15.725,36.522,11.5,31,11.5s-10.057,4.225-10.551,9.619c-1.147,0.496-1.949,1.636-1.949,2.964
			c0,1.783,1.446,3.229,3.229,3.229c0.91,0,1.731-0.377,2.317-0.982c0.587,0.605,1.409,0.982,2.318,0.982
			c0.91,0,1.731-0.377,2.318-0.982c0.587,0.605,1.408,0.982,2.318,0.982s1.732-0.377,2.318-0.982
			c0.587,0.605,1.409,0.982,2.318,0.982c0.91,0,1.731-0.377,2.318-0.982c0.586,0.605,1.408,0.982,2.317,0.982
			c1.783,0,3.229-1.445,3.229-3.229C43.501,22.755,42.698,21.614,41.552,21.119z"/>
	</g>
</g>
</svg>
