<?xml version="1.0" encoding="utf-8"?>
<!-- Generator: Adobe Illustrator 17.0.0, SVG Export Plug-In . SVG Version: 6.00 Build 0)  -->
<!DOCTYPE svg PUBLIC "-//W3C//DTD SVG 1.1//EN" "http://www.w3.org/Graphics/SVG/1.1/DTD/svg11.dtd">
<svg version="1.1" id="Layer_1" xmlns="http://www.w3.org/2000/svg" xmlns:xlink="http://www.w3.org/1999/xlink" x="0px" y="0px"
	 width="64px" height="64px" viewBox="-0.5 0.5 64 64" enable-background="new -0.5 0.5 64 64" xml:space="preserve">
<g id="Captions">
</g>
<g>
	<path d="M29.315,36.688c-0.981-0.913-1.446-1.678-1.44-2.368l-4.597-0.015c-5.125,0.02-9.609,8.534-9.778,13.92
		c1.567,0,8.223,0.004,15.601,0.005l-1.259-1.489L29.315,36.688z"/>
	<path d="M44.401,36.776c-1.601-1.603-3.271-2.416-4.964-2.416l-4.507-0.015c-0.006,0.683-0.471,1.441-1.44,2.344l1.474,10.053
		l-1.259,1.489c6.218,0.001,12.315-0.001,15.795-0.006C49.374,44.986,47.45,39.83,44.401,36.776z"/>
	<path d="M31.361,31.463H31.4h0.044c3.999,0,7.267-3.357,7.284-7.484c-0.017-4.107-3.304-7.464-7.327-7.479
		c-1.952,0.008-3.79,0.781-5.171,2.176c-1.401,1.416-2.166,3.298-2.153,5.302c-0.013,2.033,0.755,3.931,2.163,5.348
		C27.609,30.704,29.428,31.463,31.361,31.463z"/>
	<path d="M32.305,35.909c1.117-0.978,1.239-1.452,1.25-1.57c0.002-0.02,0.001-0.03,0.001-0.031c-0.02-0.103-0.097-0.21-0.21-0.313
		c-0.136-0.123-0.327-0.242-0.55-0.344c-0.414-0.19-0.933-0.322-1.394-0.322c-0.453,0-0.962,0.128-1.372,0.312
		c-0.224,0.1-0.418,0.218-0.557,0.34c-0.122,0.107-0.204,0.219-0.225,0.327c0,0,0,0.007,0,0.016c0.003,0.086,0.08,0.558,1.252,1.584
		l0.281,0.246l-1.492,10.172l1.608,1.903l0.29,0.342l0.216,0.256l0.216-0.255l0.29-0.343l1.608-1.903l-1.492-10.173L32.305,35.909z"
		/>
</g>
</svg>
