<?xml version="1.0" encoding="utf-8"?>
<!-- Generator: Adobe Illustrator 17.0.0, SVG Export Plug-In . SVG Version: 6.00 Build 0)  -->
<!DOCTYPE svg PUBLIC "-//W3C//DTD SVG 1.1//EN" "http://www.w3.org/Graphics/SVG/1.1/DTD/svg11.dtd">
<svg version="1.1" id="Layer_1" xmlns="http://www.w3.org/2000/svg" xmlns:xlink="http://www.w3.org/1999/xlink" x="0px" y="0px"
	 width="64px" height="64px" viewBox="-0.5 0.5 64 64" enable-background="new -0.5 0.5 64 64" xml:space="preserve">
<g id="Captions">
</g>
<path d="M42.679,41.41c-2.784-0.999-5.56-3.768-5.56-6.219c0-0.439,1.319-0.048,3.047-0.375c2.665-0.504,5.057-1.882,5.057-3.955
	c0-1.036-4.429-1.125-6.785-2.727c-2.356-1.602-3.487-3.852-3.487-5.077c0-0.659,1.791-0.659,3.141-1.138
	c1.947-0.692,2.796-1.147,2.796-2.183c0-0.754-3.588-0.935-5.183-2.45c-1.885-1.791-2.922-6.786-4.053-6.786h-0.259
	c-1.131,0-2.191,4.995-4.075,6.785c-1.595,1.515-5.183,1.602-5.183,2.356c0,1.036,0.848,1.539,2.796,2.23
	c1.35,0.479,3.141,0.503,3.141,1.162c0,1.225-1.131,3.487-3.487,5.089c-2.356,1.602-6.786,1.697-6.786,2.733
	c0,2.074,2.381,3.509,5.056,3.957c1.684,0.283,3.044-0.062,3.044,0.378c0,2.449-2.889,4.962-5.566,6.22
	c-2.91,1.366-7.833,1.507-7.833,2.827c0,1.812,6.761,4.052,11.002,4.052c3.204,0,6.11-0.848,6.11-0.848s0,3.769,0,4.523
	c0,0.75,0.914,1.174,1.853,1.178c0.939-0.002,1.633-0.426,1.633-1.178c0-0.754,0-4.523,0-4.523s3.078,0.848,6.282,0.848
	c4.241,0,11.119-2.239,11.119-4.052C50.501,42.917,45.695,42.493,42.679,41.41z M25.387,44.331c-0.859,0-1.555-0.697-1.555-1.555
	c0-0.859,0.696-1.555,1.555-1.555c0.858,0,1.555,0.696,1.555,1.555C26.942,43.634,26.246,44.331,25.387,44.331z M26.518,33.022
	c-0.859,0-1.555-0.696-1.555-1.555s0.696-1.555,1.555-1.555c0.859,0,1.555,0.696,1.555,1.555
	C28.073,32.326,27.377,33.022,26.518,33.022z M28.355,19.405c0-0.859,0.696-1.555,1.555-1.555c0.859,0,1.555,0.696,1.555,1.555
	c0,0.859-0.696,1.555-1.555,1.555C29.052,20.96,28.355,20.264,28.355,19.405z M32.549,39.431c-0.859,0-1.555-0.697-1.555-1.555
	c0-0.859,0.696-1.555,1.555-1.555c0.858,0,1.555,0.696,1.555,1.555C34.104,38.734,33.408,39.431,32.549,39.431z M32.926,28.876
	c-0.858,0-1.555-0.696-1.555-1.555c0-0.858,0.696-1.555,1.555-1.555s1.555,0.696,1.555,1.555S33.785,28.876,32.926,28.876z
	 M40.087,46.593c-0.858,0-1.555-0.697-1.555-1.555s0.696-1.555,1.555-1.555s1.556,0.696,1.556,1.555
	C41.643,45.896,40.946,46.593,40.087,46.593z"/>
</svg>
