<?xml version="1.0" encoding="utf-8"?>
<!-- Generator: Adobe Illustrator 17.0.0, SVG Export Plug-In . SVG Version: 6.00 Build 0)  -->
<!DOCTYPE svg PUBLIC "-//W3C//DTD SVG 1.1//EN" "http://www.w3.org/Graphics/SVG/1.1/DTD/svg11.dtd">
<svg version="1.1" id="Layer_1" xmlns="http://www.w3.org/2000/svg" xmlns:xlink="http://www.w3.org/1999/xlink" x="0px" y="0px"
	 width="64px" height="64px" viewBox="-0.5 0.5 64 64" enable-background="new -0.5 0.5 64 64" xml:space="preserve">
<g id="Captions">
</g>
<g>
	<g>
		<path d="M17.739,41.846c-0.251,0.546-0.483,1.072-0.699,1.576l5.727,4.884c0.464-0.293,0.947-0.605,1.446-0.939L17.739,41.846z"/>
	</g>
	<g>
		<path d="M32.833,41.167c5.814-4.657,11.502-10.634,13.621-18.473l-7.864-6.706c-7.405,3.331-12.409,9.891-16.09,16.368
			c-1.234,0.3-6.165,0.939-6.165,0.939L10.5,41.079l1.516,1.293l5.262-3.796l1.746,0.538c-0.315,0.662-0.616,1.301-0.908,1.927
			l6.833,5.827c0.572-0.388,1.157-0.785,1.76-1.2l0.806,1.639l-2.917,5.795l1.516,1.293l6.766-6.992
			C32.88,47.402,32.732,42.432,32.833,41.167z M38.78,23.731c0.897,0.795,1.01,2.149,0.243,3.049
			c-0.767,0.899-2.122,1.003-3.049,0.243c-0.898-0.796-1.008-2.15-0.242-3.049C36.499,23.073,37.852,22.97,38.78,23.731z"/>
	</g>
	<g id="_x3C_Path_x3E_">
		<path d="M43.071,18.68l0.019,0.016l3.588,3.06c0.547-2.484,0.896-8.178,0.809-8.252c-0.088-0.075-5.636,1.184-8.003,2.117
			L43.071,18.68z"/>
	</g>
</g>
</svg>
