<?xml version="1.0" encoding="utf-8"?>
<!-- Generator: Adobe Illustrator 17.0.0, SVG Export Plug-In . SVG Version: 6.00 Build 0)  -->
<!DOCTYPE svg PUBLIC "-//W3C//DTD SVG 1.1//EN" "http://www.w3.org/Graphics/SVG/1.1/DTD/svg11.dtd">
<svg version="1.1" id="Layer_1" xmlns="http://www.w3.org/2000/svg" xmlns:xlink="http://www.w3.org/1999/xlink" x="0px" y="0px"
	 width="64px" height="64px" viewBox="-0.5 0.5 64 64" enable-background="new -0.5 0.5 64 64" xml:space="preserve">
<g id="Captions">
</g>
<g>
	<path d="M24.086,27.931c0.286,0.286,0.661,0.429,1.036,0.429c0.375,0,0.75-0.143,1.037-0.429c0.572-0.572,0.572-1.5,0-2.072
		l-2.017-2.017c-0.572-0.572-1.499-0.572-2.072,0c-0.572,0.572-0.572,1.5,0,2.072L24.086,27.931z"/>
	<path d="M34.186,24.286c0.286,0.286,0.661,0.429,1.036,0.429s0.749-0.143,1.036-0.429c0.572-0.572,0.572-1.5,0-2.072l-2.017-2.017
		c-0.572-0.572-1.5-0.572-2.072,0c-0.572,0.572-0.572,1.5,0.001,2.072L34.186,24.286z"/>
	<path d="M27.108,24.716c0.375,0,0.75-0.143,1.036-0.429l2.017-2.017c0.572-0.572,0.572-1.499,0-2.072
		c-0.571-0.572-1.5-0.572-2.072,0l-2.017,2.017c-0.572,0.572-0.572,1.499,0,2.072C26.358,24.572,26.733,24.716,27.108,24.716z"/>
	<path d="M29.202,28.94c0.286,0.286,0.661,0.429,1.036,0.429s0.75-0.143,1.036-0.429l2.017-2.017c0.572-0.572,0.572-1.499,0-2.072
		c-0.571-0.572-1.499-0.572-2.072,0l-2.017,2.017C28.63,27.441,28.63,28.368,29.202,28.94z"/>
	<path d="M36.844,27.931c0.286,0.286,0.661,0.429,1.036,0.429c0.375,0,0.75-0.143,1.036-0.429l2.017-2.017
		c0.572-0.572,0.572-1.499,0-2.072c-0.571-0.572-1.5-0.572-2.072,0l-2.017,2.017C36.272,26.432,36.272,27.359,36.844,27.931z"/>
	<path d="M47.453,23.979c-3.087-5.643-9.079-9.479-15.952-9.479c-6.873,0-12.865,3.835-15.952,9.478
		c-2.329,0.637-4.049,2.766-4.049,5.295c0,1.738,0.813,3.286,2.076,4.293c0.511,0.408,1.096,0.727,1.732,0.932h0.963l2.644,13.29
		c0.171,0.856,0.922,1.474,1.796,1.474h22.459c0.874,0,1.626-0.618,1.797-1.474l2.644-13.29h0.083
		c0.636-0.205,1.22-0.525,1.732-0.932c1.263-1.007,2.076-2.556,2.076-4.293C51.501,26.745,49.782,24.615,47.453,23.979z
		 M17.38,27.175c0.235,0,0.459,0.048,0.666,0.13c0.407-1.02,0.918-1.984,1.535-2.875c2.621-3.78,6.982-6.267,11.92-6.267
		s9.298,2.487,11.919,6.267c0.618,0.891,1.129,1.855,1.536,2.875c0.207-0.081,0.43-0.13,0.666-0.13c1.012,0,1.831,0.82,1.831,1.831
		c0,0.921-0.681,1.675-1.565,1.805c0.001,0.01,0.003,0.018,0.004,0.026h-0.27h-0.553h-2.671h-1.655H22.258h-1.655h-2.671H17.38
		h-0.271c0.001-0.009,0.003-0.017,0.004-0.026c-0.884-0.13-1.565-0.884-1.565-1.805C15.549,27.994,16.368,27.175,17.38,27.175z
		 M41.667,45.601H22.214L20.005,34.5h1.913h19.159h2.799L41.667,45.601z"/>
</g>
</svg>
