<?xml version="1.0" encoding="utf-8"?>
<!-- Generator: Adobe Illustrator 17.0.0, SVG Export Plug-In . SVG Version: 6.00 Build 0)  -->
<!DOCTYPE svg PUBLIC "-//W3C//DTD SVG 1.1//EN" "http://www.w3.org/Graphics/SVG/1.1/DTD/svg11.dtd">
<svg version="1.1" id="Layer_1" xmlns="http://www.w3.org/2000/svg" xmlns:xlink="http://www.w3.org/1999/xlink" x="0px" y="0px"
	 width="64px" height="64px" viewBox="-0.5 0.5 64 64" enable-background="new -0.5 0.5 64 64" xml:space="preserve">
<g id="Captions">
</g>
<path d="M18.211,25.365h16.553c0.404,0,0.731-0.327,0.731-0.731c0-0.405-0.327-0.733-0.731-0.733H18.211
	c-0.403,0-0.731,0.328-0.731,0.733C17.48,25.038,17.807,25.365,18.211,25.365z M54.768,23.901H38.216
	c-0.404,0-0.732,0.328-0.732,0.733c0,0.404,0.328,0.731,0.732,0.731h16.552c0.404,0,0.732-0.327,0.732-0.731
	C55.5,24.229,55.172,23.901,54.768,23.901z M37.474,26.667l-0.498-2.67c0-0.274-0.222-0.497-0.496-0.497
	c-0.274,0-0.496,0.223-0.496,0.497l-0.364,2.606c0,0,0,0-1.663,0.128c-6.204,1.216-10.362,6.206-10.362,6.206l-12.939-0.484
	l-0.556-0.049c-0.545-0.048-1.025,0.354-1.073,0.899c-0.048,0.538,0.344,1.01,0.877,1.068c1.344,0.309,13.248,3.022,14.395,3.747
	c3.518,3.326,6.844,3.647,14.711,3.647c11.963,0.319,10.682-4.606,10.811-5.95C48.989,26.667,37.474,26.667,37.474,26.667z
	 M43.308,36.19c0,0-5.651,0.38-6.636-1.971c-0.987-2.351-1.289-5.461-0.569-5.688c0.72-0.229,10.011-1.137,11.111,5.31
	C47.252,34.561,47.631,36.342,43.308,36.19z M10.908,37.184c-1.943,0-3.517-1.574-3.517-3.517c0-1.944,1.574-3.519,3.517-3.519
	c1.334,0,2.497,0.744,3.092,1.841l0.916-0.151c-0.695-1.521-2.226-2.582-4.008-2.582c-2.434,0-4.408,1.973-4.408,4.41
	c0,2.435,1.974,4.408,4.408,4.408c1.3,0,2.466-0.567,3.273-1.463l-0.764-0.482C12.779,36.781,11.891,37.184,10.908,37.184z
	 M48.783,42.939h-22.52c-0.418,0-0.758,0.339-0.758,0.759c0,0.419,0.341,0.759,0.758,0.759h22.52c0.42,0,0.759-0.34,0.759-0.759
	C49.543,43.278,49.203,42.939,48.783,42.939z"/>
</svg>
