<?xml version="1.0" encoding="utf-8"?>
<!-- Generator: Adobe Illustrator 17.0.0, SVG Export Plug-In . SVG Version: 6.00 Build 0)  -->
<!DOCTYPE svg PUBLIC "-//W3C//DTD SVG 1.1//EN" "http://www.w3.org/Graphics/SVG/1.1/DTD/svg11.dtd">
<svg version="1.1" id="Layer_1" xmlns="http://www.w3.org/2000/svg" xmlns:xlink="http://www.w3.org/1999/xlink" x="0px" y="0px"
	 width="64px" height="64px" viewBox="-0.5 0.5 64 64" enable-background="new -0.5 0.5 64 64" xml:space="preserve">
<g id="Captions">
</g>
<path d="M31.24,44.514c1.025-3.251,1.768-3.51,3.705-4.915c1.936-1.404,1.962-2.537,2.079-4.164
	c0.118-1.627-2.424-4.532-2.424-4.532s9.647-11.039,10.058-11.528c0.413-0.49,1.85-0.402,1.85-0.402s0.173-0.526,0.631-1.288
	l0.119,0.108c-0.061,0.147-0.017,0.335,0.124,0.464c0.174,0.16,0.424,0.167,0.561,0.02c0.136-0.149,0.105-0.398-0.069-0.557
	c-0.141-0.129-0.334-0.157-0.473-0.083l-0.149-0.135c0.188-0.298,0.418-0.625,0.694-0.967c0.066-0.082,0.133-0.161,0.203-0.237
	l0.261,0.24c-0.061,0.145-0.016,0.333,0.125,0.464c0.175,0.159,0.424,0.168,0.561,0.019c0.135-0.149,0.104-0.398-0.069-0.556
	c-0.141-0.129-0.333-0.157-0.473-0.084l-0.258-0.237c0.377-0.39,0.776-0.702,1.131-0.939l0.203,0.186
	c-0.061,0.146-0.016,0.334,0.126,0.464c0.174,0.159,0.424,0.167,0.56,0.019c0.135-0.149,0.104-0.398-0.07-0.556
	c-0.141-0.129-0.333-0.157-0.473-0.084l-0.161-0.148c0.512-0.321,0.89-0.472,0.89-0.472l-0.011-1.96l-0.808-0.379L49.232,11.5
	l-1.953,0.161c0,0-0.118,0.39-0.393,0.929l-0.255-0.235c0.061-0.146,0.015-0.334-0.126-0.464c-0.173-0.159-0.424-0.167-0.56-0.019
	c-0.135,0.149-0.104,0.398,0.069,0.556c0.142,0.129,0.332,0.157,0.473,0.084l0.297,0.272c-0.205,0.374-0.481,0.799-0.837,1.209
	l-0.248-0.227c0.062-0.147,0.016-0.335-0.125-0.464c-0.174-0.159-0.425-0.168-0.56-0.019c-0.136,0.148-0.105,0.397,0.069,0.556
	c0.141,0.129,0.332,0.157,0.472,0.084l0.251,0.229c-0.07,0.075-0.143,0.149-0.218,0.222c-0.317,0.305-0.622,0.562-0.903,0.776
	l-0.139-0.127c0.061-0.146,0.016-0.334-0.125-0.464c-0.173-0.159-0.425-0.168-0.56-0.019c-0.136,0.148-0.105,0.397,0.069,0.555
	c0.142,0.129,0.333,0.158,0.472,0.084l0.109,0.099c-0.719,0.523-1.227,0.743-1.227,0.743s0.214,1.423-0.238,1.877
	c-0.451,0.454-10.413,11.205-10.413,11.205s-3.117-2.275-4.727-2.016c-1.61,0.259-2.736,0.384-3.965,2.437
	c-1.229,2.053-1.422,2.816-4.569,4.124c-3.148,1.307-6.223,2.536-7.047,4.383c-0.823,1.846-2.488,5.163,3.878,10.991
	c6.366,5.828,9.523,3.878,11.29,2.895C29.26,50.937,30.214,47.765,31.24,44.514z M30.389,33.531
	c0.885,0.811,0.946,2.185,0.135,3.071c-0.811,0.886-2.185,0.947-3.071,0.136c-0.885-0.811-0.946-2.186-0.135-3.071
	C28.128,32.781,29.503,32.72,30.389,33.531z M24.947,44.207l-2.043-1.871l-0.629-0.575l-2.043-1.87l0.863-0.943l1.289,0.999
	l0.333-0.128l0.727,0.666l0.629,0.575l0.727,0.666l-0.099,0.344l1.109,1.195L24.947,44.207z"/>
</svg>
