<?xml version="1.0" encoding="utf-8"?>
<!-- Generator: Adobe Illustrator 17.0.0, SVG Export Plug-In . SVG Version: 6.00 Build 0)  -->
<!DOCTYPE svg PUBLIC "-//W3C//DTD SVG 1.1//EN" "http://www.w3.org/Graphics/SVG/1.1/DTD/svg11.dtd">
<svg version="1.1" id="Layer_1" xmlns="http://www.w3.org/2000/svg" xmlns:xlink="http://www.w3.org/1999/xlink" x="0px" y="0px"
	 width="64px" height="64px" viewBox="-0.5 0.5 64 64" enable-background="new -0.5 0.5 64 64" xml:space="preserve">
<g id="Captions">
</g>
<path d="M47.5,21.332c-3.407-4.737-8.951-7.832-15.232-7.832C21.903,13.5,13.5,21.903,13.5,32.268
	c0,10.366,8.403,18.768,18.768,18.768c6.014,0,11.352-2.838,14.787-7.237L31.987,31.716L47.5,21.332z M29.854,19.5
	c0-1.178,0.956-2.132,2.132-2.132c1.178,0,2.132,0.954,2.132,2.132c0,1.175-0.954,2.131-2.132,2.131
	C30.809,21.631,29.854,20.675,29.854,19.5z"/>
</svg>
