<?xml version="1.0" encoding="utf-8"?>
<!-- Generator: Adobe Illustrator 17.0.0, SVG Export Plug-In . SVG Version: 6.00 Build 0)  -->
<!DOCTYPE svg PUBLIC "-//W3C//DTD SVG 1.1//EN" "http://www.w3.org/Graphics/SVG/1.1/DTD/svg11.dtd">
<svg version="1.1" id="Layer_1" xmlns="http://www.w3.org/2000/svg" xmlns:xlink="http://www.w3.org/1999/xlink" x="0px" y="0px"
	 width="64px" height="64px" viewBox="-0.5 0.5 64 64" enable-background="new -0.5 0.5 64 64" xml:space="preserve">
<g id="Captions">
</g>
<g>
	<path d="M31.501,11.5c-8.837,0-16.001,7.163-16.001,16.001c0,1.348,0.487,3.076,1.353,4.891c0.812-0.879,1.868-1.411,3.026-1.411
		c1.592,0,3.032,1.008,3.873,2.617c0.842-1.609,2.282-2.617,3.873-2.617s3.031,1.008,3.874,2.618
		c0.843-1.61,2.282-2.618,3.874-2.618s3.029,1.008,3.872,2.617c0.844-1.609,2.282-2.617,3.875-2.617
		c1.175,0,2.243,0.548,3.062,1.451c0.843-1.802,1.316-3.532,1.316-4.93C47.502,18.663,40.338,11.5,31.501,11.5z"/>
	<path d="M43.125,32.515c-1.658,0-3.012,1.808-3.099,4.077c-0.002,0.078-0.009,0.154-0.009,0.233c0,0.424-0.344,0.767-0.768,0.767
		c-0.422,0-0.768-0.344-0.768-0.767c0-0.079-0.003-0.156-0.007-0.233c-0.09-2.268-1.442-4.077-3.099-4.077
		c-1.657,0-3.012,1.808-3.101,4.077c-0.003,0.078-0.006,0.155-0.006,0.233c0,0.424-0.345,0.767-0.768,0.767
		s-0.767-0.344-0.767-0.767c0-0.079-0.006-0.156-0.009-0.233c-0.089-2.268-1.441-4.077-3.099-4.077c-1.657,0-3.01,1.808-3.098,4.077
		c-0.003,0.078-0.01,0.155-0.01,0.233c0,0.424-0.344,0.767-0.766,0.767c-0.423,0-0.767-0.344-0.767-0.767
		c0-0.079-0.006-0.156-0.01-0.233c-0.088-2.268-1.441-4.077-3.098-4.077c-0.885,0-1.684,0.518-2.25,1.345
		c0.532,0.919,1.155,1.841,1.852,2.732h-0.003l7.736,10.157h8.576l7.82-10.157h-0.006c0.681-0.872,1.289-1.773,1.806-2.676
		C44.841,33.056,44.027,32.515,43.125,32.515z"/>
	<rect x="27.5" y="50" width="8" height="4.5"/>
</g>
</svg>
