<?xml version="1.0" encoding="utf-8"?>
<!-- Generator: Adobe Illustrator 17.0.0, SVG Export Plug-In . SVG Version: 6.00 Build 0)  -->
<!DOCTYPE svg PUBLIC "-//W3C//DTD SVG 1.1//EN" "http://www.w3.org/Graphics/SVG/1.1/DTD/svg11.dtd">
<svg version="1.1" id="Layer_1" xmlns="http://www.w3.org/2000/svg" xmlns:xlink="http://www.w3.org/1999/xlink" x="0px" y="0px"
	 width="64px" height="64px" viewBox="-0.5 0.5 64 64" enable-background="new -0.5 0.5 64 64" xml:space="preserve">
<g id="Captions">
</g>
<g>
	<path d="M11.08,49.237l-1.039-0.016l0.773-0.695c0.025-0.023,2.531-2.318,2.997-6.195c-3.38-2.1-5.311-5.175-5.311-8.469
		c0-6.077,6.624-11.022,14.765-11.022c0.255,0,0.509,0.004,0.76,0.014c7.852,0.297,14.004,5.133,14.004,11.007
		c0,1.37-0.336,2.711-0.996,3.983c-2.216,4.277-7.621,7.041-13.768,7.041c-1.016,0-2.039-0.08-3.046-0.239
		c-1.022,1.831-3.468,4.594-8.875,4.594C11.257,49.24,11.168,49.239,11.08,49.237z"/>
	<g>
		<path d="M48.163,34.368c3.254-1.944,5.337-4.918,5.337-8.254c0-5.862-6.427-10.614-14.356-10.614
			c-5.705,0-10.295,2.223-12.61,5.787c7.862,0.465,13.631,5.644,13.631,11.631c0,1.305-0.293,2.584-0.865,3.806
			c1.069-0.009,2.108-0.104,3.11-0.276c0.967,1.886,3.349,4.724,8.911,4.633C51.321,41.082,48.569,38.62,48.163,34.368z"/>
	</g>
</g>
</svg>
