<?xml version="1.0" encoding="utf-8"?>
<!-- Generator: Adobe Illustrator 17.0.0, SVG Export Plug-In . SVG Version: 6.00 Build 0)  -->
<!DOCTYPE svg PUBLIC "-//W3C//DTD SVG 1.1//EN" "http://www.w3.org/Graphics/SVG/1.1/DTD/svg11.dtd">
<svg version="1.1" id="Layer_1" xmlns="http://www.w3.org/2000/svg" xmlns:xlink="http://www.w3.org/1999/xlink" x="0px" y="0px"
	 width="64px" height="64px" viewBox="-0.5 0.5 64 64" enable-background="new -0.5 0.5 64 64" xml:space="preserve">
<g id="Captions">
</g>
<g>
	<g>
		<path d="M52.94,35.705l-6.569-20.163c-0.753-2.31-3.221-3.575-5.518-2.827l-17.351,5.653l-6.073,1.978
			c-2.296,0.748-3.548,3.225-2.795,5.535l0.001,0.004l-2.116,0.689c-1.443,0.47-2.472,1.625-2.851,2.992
			c-0.232,0.812-0.232,1.704,0.05,2.57v0.002l4.157,12.761c1.433,4.398,4.422,6.715,9.336,5.115l26.934-8.775
			C52.443,40.491,53.692,38.011,52.94,35.705z M19.259,46.168c-0.99,0.323-2.057-0.227-2.382-1.224l-4.508-13.837
			c-0.064-0.651,0.328-1.285,0.975-1.496l2.267-0.738l1.005,3.086l-1.708,0.556l0.604,1.854l1.708-0.556l0.796,2.443l-1.708,0.556
			l0.604,1.855l1.708-0.556l0.796,2.442l-1.708,0.556l0.605,1.856l1.708-0.556l0.445,1.367
			C20.79,44.772,20.251,45.845,19.259,46.168z M47.799,39.173L47.8,39.18l-25.394,8.273c1.578-0.592,2.424-2.331,1.893-3.96
			L18.244,24.89c-0.245-0.752,0.164-1.56,0.911-1.803l22.823-7.435c0.746-0.243,1.553,0.168,1.798,0.92l6.056,18.588l-0.007,0.002
			C50.37,36.834,49.464,38.63,47.799,39.173z M30.08,22.452l-8.704,2.836l3.755,11.524l8.704-2.836L30.08,22.452z M42.074,20.43
			l-0.575-1.766l-8.701,2.835l0.575,1.766L42.074,20.43z M34.976,28.186l8.701-2.835l-0.575-1.766l-8.701,2.835L34.976,28.186z
			 M36.579,33.106l8.701-2.835l-0.575-1.766l-8.701,2.835L36.579,33.106z M26.129,40l0.576,1.768l20.178-6.574l-0.576-1.768
			L26.129,40z"/>
	</g>
</g>
</svg>
