<?xml version="1.0" encoding="utf-8"?>
<!-- Generator: Adobe Illustrator 17.0.0, SVG Export Plug-In . SVG Version: 6.00 Build 0)  -->
<!DOCTYPE svg PUBLIC "-//W3C//DTD SVG 1.1//EN" "http://www.w3.org/Graphics/SVG/1.1/DTD/svg11.dtd">
<svg version="1.1" id="Layer_1" xmlns="http://www.w3.org/2000/svg" xmlns:xlink="http://www.w3.org/1999/xlink" x="0px" y="0px"
	 width="64px" height="64px" viewBox="-0.5 0.5 64 64" enable-background="new -0.5 0.5 64 64" xml:space="preserve">
<g id="Captions">
</g>
<g id="layer1" transform="translate(0,-952.362)">
	<path id="path6080-4" d="M21.98,966.862c-0.573,0-0.68,1.268-0.68,2.267v4.533c0,4.604,4.533,6.942,9.067,6.8v18.133
		c-2.267-4.533-9.067-11.333-15.867-9.066c0,0,5.667,13.6,17,13.6c11.334,0,17-13.6,17-13.6c-6.8-2.267-13.6,4.533-15.866,9.066
		v-18.133c4.533,0.141,9.066-2.196,9.066-6.8v-4.533c0-0.998-0.106-2.267-0.68-2.267c-0.437,0-0.965,0.511-1.586,1.133l-3.4,3.4
		l-3.4-3.825c-0.355-0.399-0.56-0.708-1.134-0.708c-0.573,0-0.779,0.309-1.133,0.708l-3.4,3.825l-3.4-3.4
		C22.945,967.373,22.417,966.862,21.98,966.862z"/>
</g>
</svg>
