<?xml version="1.0" encoding="utf-8"?>
<!-- Generator: Adobe Illustrator 17.0.0, SVG Export Plug-In . SVG Version: 6.00 Build 0)  -->
<!DOCTYPE svg PUBLIC "-//W3C//DTD SVG 1.1//EN" "http://www.w3.org/Graphics/SVG/1.1/DTD/svg11.dtd">
<svg version="1.1" id="Layer_1" xmlns="http://www.w3.org/2000/svg" xmlns:xlink="http://www.w3.org/1999/xlink" x="0px" y="0px"
	 width="64px" height="64px" viewBox="-0.5 0.5 64 64" enable-background="new -0.5 0.5 64 64" xml:space="preserve">
<g id="Captions">
</g>
<g>
	<path d="M41.801,30.229c-4.561-9.814-6.931-13.541-14.384-13.387c-2.654,0.055-2.016-1.922-4.04-1.172
		c-2.022,0.75-0.287,1.848-2.355,3.545c-5.805,4.764-5.27,9.173-2.578,19.679c1.135,4.425-2.734,4.642-1.203,8.932
		c1.117,3.128,9.357,4.437,18.051,1.211c8.694-3.225,14.181-9.628,13.064-12.756C46.824,31.992,43.723,34.361,41.801,30.229z
		 M34.348,46.395c-7.764,2.881-14.145,1.186-14.415,0.433c-0.465-1.299,2.506-5.632,11.383-8.926s13.83-2.072,14.348-0.621
		C45.971,38.138,42.113,43.514,34.348,46.395z M31.853,39.406c-4.059,1.506-6.88,3.229-8.705,4.78
		c1.284,1.167,3.692,1.452,6.092,0.562c3.055-1.133,4.93-3.735,4.188-5.811c-0.009-0.025-0.022-0.048-0.031-0.072
		C32.896,39.03,32.382,39.21,31.853,39.406z"/>
</g>
</svg>
