<?xml version="1.0" encoding="utf-8"?>
<!-- Generator: Adobe Illustrator 17.0.0, SVG Export Plug-In . SVG Version: 6.00 Build 0)  -->
<!DOCTYPE svg PUBLIC "-//W3C//DTD SVG 1.1//EN" "http://www.w3.org/Graphics/SVG/1.1/DTD/svg11.dtd">
<svg version="1.1" id="Layer_1" xmlns="http://www.w3.org/2000/svg" xmlns:xlink="http://www.w3.org/1999/xlink" x="0px" y="0px"
	 width="64px" height="64px" viewBox="-0.5 0.5 64 64" enable-background="new -0.5 0.5 64 64" xml:space="preserve">
<g id="Captions">
</g>
<g>
	<path d="M31.5,19.056c4.562,0,8.914,0.907,12.895,2.538l2.105-5.158c-4.628-1.891-9.692-2.936-15-2.936s-10.372,1.045-15,2.936
		l2.105,5.158C22.586,19.963,26.938,19.056,31.5,19.056z"/>
	<path d="M31.5,20.643c-4.349,0-8.499,0.864-12.295,2.419L31.5,53.186l12.295-30.123C39.999,21.508,35.849,20.643,31.5,20.643z
		 M24.555,27.787c0-1.753,1.422-3.175,3.175-3.175c1.753,0,3.175,1.422,3.175,3.175s-1.422,3.175-3.175,3.175
		C25.977,30.962,24.555,29.54,24.555,27.787z M31.5,40.883c-1.096,0-1.984-0.888-1.984-1.984c0-1.096,0.888-1.984,1.984-1.984
		c1.096,0,1.984,0.888,1.984,1.984C33.484,39.995,32.596,40.883,31.5,40.883z M36.858,28.977c-1.315,0-2.381-1.066-2.381-2.381
		s1.067-2.381,2.381-2.381s2.381,1.066,2.381,2.381S38.172,28.977,36.858,28.977z"/>
</g>
</svg>
