<?xml version="1.0" encoding="utf-8"?>
<!-- Generator: Adobe Illustrator 17.0.0, SVG Export Plug-In . SVG Version: 6.00 Build 0)  -->
<!DOCTYPE svg PUBLIC "-//W3C//DTD SVG 1.1//EN" "http://www.w3.org/Graphics/SVG/1.1/DTD/svg11.dtd">
<svg version="1.1" id="Layer_1" xmlns="http://www.w3.org/2000/svg" xmlns:xlink="http://www.w3.org/1999/xlink" x="0px" y="0px"
	 width="64px" height="64px" viewBox="0 0 64 64" enable-background="new 0 0 64 64" xml:space="preserve">
<g id="Captions">
</g>
<g>
	<path d="M45.045,28.917H26.833v-5.361L20.369,11.5L14.5,23.579V50.5h34V35.521L45.045,28.917z M24.093,47.053h-6.852v-21.87h6.852
		v3.733C24.093,28.916,24.093,47.053,24.093,47.053z M26.833,47.053v-9.839h18.926v9.839H26.833z"/>
	<path d="M29.386,39.081h2.741c0,0,0,3.856,0,3.575s0,2.531,0,2.531h-2.741V39.081z"/>
	<path d="M34.985,39.081h2.742v6.106h-2.742c0,0,0-3.015,0-2.703S34.985,39.081,34.985,39.081z"/>
	<path d="M40.467,39.081h2.74v6.106h-2.74c0,0,0-2.466,0-3.249C40.467,41.156,40.467,39.081,40.467,39.081z"/>
	<path d="M20.611,27.05c0.353,0,0.68,0.113,0.947,0.305c0.409,0.294,0.675,0.775,0.675,1.317c0,0.896-0.726,1.622-1.622,1.622
		s-1.622-0.726-1.622-1.622S19.715,27.05,20.611,27.05z"/>
</g>
</svg>
