<?xml version="1.0" encoding="utf-8"?>
<!-- Generator: Adobe Illustrator 17.0.0, SVG Export Plug-In . SVG Version: 6.00 Build 0)  -->
<!DOCTYPE svg PUBLIC "-//W3C//DTD SVG 1.1//EN" "http://www.w3.org/Graphics/SVG/1.1/DTD/svg11.dtd">
<svg version="1.1" id="Layer_1" xmlns="http://www.w3.org/2000/svg" xmlns:xlink="http://www.w3.org/1999/xlink" x="0px" y="0px"
	 width="64px" height="64px" viewBox="-0.5 0.5 64 64" enable-background="new -0.5 0.5 64 64" xml:space="preserve">
<g id="Captions">
</g>
<path d="M49.5,30.9c-0.362,0-1.598,0-1.96,0c-1.105,0-2,0.716-2,1.6c0,0.884,0.895,1.6,2,1.6c0.363,0,1.598,0,1.96,0
	c1.105,0,2-0.716,2-1.6C51.5,31.617,50.605,30.9,49.5,30.9z M31.5,21.501c-6.101,0-11,4.899-11,11c0,6.101,4.899,11,11,11
	c6.101,0,11-4.9,11-11C42.5,26.4,37.601,21.501,31.5,21.501z M17.459,32.5c0-0.884-0.855-1.6-1.959-1.6c-0.369,0-1.632,0-2,0
	c-1.105,0-2,0.716-2,1.6c0,0.884,0.895,1.6,2,1.6c0.368,0,1.631,0,2,0C16.605,34.1,17.459,33.384,17.459,32.5z M31.5,18.5
	c0.884,0,1.6-0.895,1.6-2c0-0.366,0-1.634,0-2c0-1.105-0.716-2-1.6-2c-0.884,0-1.6,0.895-1.6,2c0,0.366,0,1.634,0,2
	C29.9,17.605,30.616,18.5,31.5,18.5z M31.5,46.5c-0.884,0-1.6,0.895-1.6,2c0,0.366,0,1.634,0,2c0,1.105,0.716,2,1.6,2
	c0.884,0,1.6-0.895,1.6-2c0-0.366,0-1.634,0-2C33.1,47.396,32.384,46.5,31.5,46.5z M46.231,20.032
	c0.781-0.781,0.908-1.921,0.283-2.546s-1.765-0.498-2.545,0.283c-0.216,0.216-1.184,1.184-1.4,1.4
	c-0.781,0.781-0.908,1.921-0.283,2.545c0.625,0.625,1.765,0.499,2.545-0.282C45.047,21.216,46.016,20.248,46.231,20.032z
	 M18.168,43.569c-0.216,0.216-1.184,1.185-1.4,1.4c-0.78,0.78-0.907,1.92-0.283,2.545c0.625,0.625,1.765,0.498,2.545-0.283
	c0.216-0.215,1.185-1.184,1.4-1.399c0.781-0.781,0.908-1.921,0.283-2.546S18.948,42.789,18.168,43.569z M19.032,17.769
	c-0.781-0.781-1.921-0.908-2.546-0.283s-0.498,1.765,0.283,2.546c0.216,0.215,1.184,1.185,1.4,1.4
	c0.781,0.781,1.92,0.907,2.545,0.282s0.498-1.764-0.282-2.545C20.216,18.953,19.248,17.984,19.032,17.769z M42.569,45.832
	c0.216,0.216,1.185,1.184,1.401,1.4c0.78,0.78,1.92,0.907,2.545,0.283c0.624-0.625,0.498-1.765-0.283-2.545
	c-0.216-0.215-1.184-1.185-1.4-1.4c-0.78-0.781-1.921-0.908-2.546-0.283S41.788,45.052,42.569,45.832z"/>
</svg>
