<?xml version="1.0" encoding="utf-8"?>
<!-- Generator: Adobe Illustrator 17.0.0, SVG Export Plug-In . SVG Version: 6.00 Build 0)  -->
<!DOCTYPE svg PUBLIC "-//W3C//DTD SVG 1.1//EN" "http://www.w3.org/Graphics/SVG/1.1/DTD/svg11.dtd">
<svg version="1.1" id="Layer_1" xmlns="http://www.w3.org/2000/svg" xmlns:xlink="http://www.w3.org/1999/xlink" x="0px" y="0px"
	 width="64px" height="64px" viewBox="-0.5 0.5 64 64" enable-background="new -0.5 0.5 64 64" xml:space="preserve">
<g id="Captions">
</g>
<path d="M31.501,29.596c2.24,0,4.124,1.532,4.657,3.604c0.671,2.596,0.577,5.445,3.519,6.921c2.609,0.896,3.596,2.022,3.596,5.037
	c0,2.408-2.042,4.966-4.677,5.285c-2.943,0.447-5.238-0.136-7.095-1.206c-1.858,1.07-4.153,1.652-7.094,1.206
	c-2.637-0.319-4.679-2.887-4.679-5.285c0-2.951,1.054-4.2,3.659-5.056c3.205-1.65,2.775-4.543,3.49-7.029
	C27.455,31.065,29.305,29.596,31.501,29.596L31.501,29.596z M46.186,27.803c-0.794-0.697-4.037,2.02-5.056,3.364
	c-0.622,0.716-1.006,1.702-1.006,2.789c0,2.188,1.55,3.959,3.462,3.959c1.453,0,2.695-1.02,3.21-2.468
	C47.795,32.843,47.848,29.259,46.186,27.803L46.186,27.803z M16.813,27.803c-1.662,1.456-1.609,5.041-0.607,7.644
	c0.514,1.449,1.757,2.468,3.208,2.468c1.912,0,3.461-1.772,3.461-3.959c0-1.087-0.384-2.073-1.005-2.789
	C20.851,29.822,17.609,27.106,16.813,27.803L16.813,27.803z M35.767,13.524c8.071,1.38,7.504,15.081,1.042,13.976
	c-1.864-0.319-3.247-2.031-3.456-4.075C33.138,21.347,32.657,12.993,35.767,13.524L35.767,13.524z M27.232,13.524
	c3.111-0.531,2.629,7.823,2.416,9.902c-0.211,2.043-1.593,3.756-3.457,4.075C19.728,28.605,19.162,14.904,27.232,13.524z"/>
</svg>
