<?xml version="1.0" encoding="utf-8"?>
<!-- Generator: Adobe Illustrator 17.0.0, SVG Export Plug-In . SVG Version: 6.00 Build 0)  -->
<!DOCTYPE svg PUBLIC "-//W3C//DTD SVG 1.1//EN" "http://www.w3.org/Graphics/SVG/1.1/DTD/svg11.dtd">
<svg version="1.1" id="Layer_1" xmlns="http://www.w3.org/2000/svg" xmlns:xlink="http://www.w3.org/1999/xlink" x="0px" y="0px"
	 width="64px" height="64px" viewBox="-0.5 0.5 64 64" enable-background="new -0.5 0.5 64 64" xml:space="preserve">
<g id="Captions">
</g>
<path d="M47.931,45.621c-0.636-1.272-11.634-16.41-11.634-16.41V18.826h0.764c0.766,0,1.39-0.623,1.39-1.389v-0.548
	c0-0.767-0.623-1.389-1.39-1.389h-11.12c-0.767,0-1.39,0.622-1.39,1.389v0.548c0,0.766,0.623,1.389,1.39,1.389h0.763v10.385
	c0,0-10.997,15.138-11.636,16.41c-1.996,3.298,1.911,3.212,1.911,3.212h14.717h6.555h7.771
	C46.022,48.834,49.929,48.92,47.931,45.621z M31.692,36.331h-6.465l4.862-6.599V18.826h2.821v10.906l4.862,6.599H31.692z"/>
</svg>
