<?xml version="1.0" encoding="utf-8"?>
<!-- Generator: Adobe Illustrator 17.0.0, SVG Export Plug-In . SVG Version: 6.00 Build 0)  -->
<!DOCTYPE svg PUBLIC "-//W3C//DTD SVG 1.1//EN" "http://www.w3.org/Graphics/SVG/1.1/DTD/svg11.dtd">
<svg version="1.1" id="Layer_1" xmlns="http://www.w3.org/2000/svg" xmlns:xlink="http://www.w3.org/1999/xlink" x="0px" y="0px"
	 width="64px" height="64px" viewBox="-0.5 0.5 64 64" enable-background="new -0.5 0.5 64 64" xml:space="preserve">
<g id="Captions">
</g>
<g>
	<path d="M36.771,41.608c1.373-1.603,3.743-3.686,7.235-4.505c0.423-0.1,0.55-0.162,0.582-0.198
		c0.063-0.078,0.055-0.124,0.053-0.142c-0.023-0.164-0.31-0.372-0.518-0.524c-0.109-0.079-0.211-0.153-0.284-0.219
		c-0.407-0.376-0.781-0.792-1.093-1.148c-0.337-0.388-1.177-2.179-1.939-3.828l-0.221-0.477c-0.449-0.959-0.975-1.888-1.563-2.761
		c-1.172-1.743-2.611-3.306-4.277-4.645C31.764,20.766,28.18,19.5,24.379,19.5c-0.609,0-1.227,0.034-1.836,0.1
		c-4.409,0.481-8.368,2.65-11.146,6.107c-4.549,5.671-3.642,13.989,2.023,18.54c1.85,1.484,4.178,2.301,6.553,2.301
		c1.351,0,2.67-0.256,3.919-0.764c1.647-0.67,3.105-1.756,4.216-3.141c1.381-1.72,2.01-3.873,1.769-6.065
		c-0.239-2.192-1.317-4.159-3.035-5.539c-1.147-0.923-2.591-1.431-4.065-1.431c-1.988,0-3.841,0.886-5.083,2.429
		c-1.757,2.191-1.404,5.408,0.788,7.172c0.827,0.666,1.856,0.968,2.921,0.852c1.057-0.117,2.007-0.636,2.673-1.466
		c1.062-1.328,0.849-3.272-0.474-4.331c-0.494-0.396-1.106-0.574-1.74-0.51c-0.628,0.069-1.192,0.378-1.585,0.869l-0.063,0.053
		c-0.019,0.011-0.121,0.067-0.259,0.067c-0.141,0-0.272-0.056-0.378-0.162c-0.184-0.184-0.166-0.418-0.126-0.527l0.036-0.065
		c0.565-0.703,1.37-1.144,2.267-1.241c0.904-0.097,1.778,0.161,2.482,0.726c1.759,1.408,2.043,3.99,0.631,5.756
		c-0.839,1.041-2.029,1.695-3.353,1.839c-1.341,0.145-2.632-0.234-3.669-1.07c-2.623-2.115-3.046-5.972-0.943-8.597
		c1.436-1.785,3.577-2.807,5.873-2.807c1.705,0,3.374,0.589,4.701,1.657c1.929,1.547,3.139,3.755,3.408,6.215
		c0.27,2.463-0.436,4.882-1.987,6.811c-0.464,0.577-0.986,1.111-1.552,1.588c-0.092,0.076-0.246,0.183-0.424,0.304
		c-0.274,0.187-1.002,0.684-1.023,0.874c-0.001,0.028,0.002,0.063,0.043,0.107c0.193,0.213,0.807,0.339,1.827,0.378l0.047,0.002
		c1.832,0.074,3.456-0.347,4.951-1.284C34.433,44.203,35.99,42.52,36.771,41.608z"/>
	<path d="M51.711,33.415c-0.236-0.297-0.902-1.496-1.079-1.945c-0.381-0.959-0.44-2.324-0.154-3.563l0.081-0.341
		c0.085-0.359,0.167-0.697,0.217-1.067c0.042-0.305-0.054-0.509-0.302-0.642c-0.191-0.103-0.41-0.122-0.678-0.06l-0.076,0.018
		v-4.479c0.3-0.101,0.52-0.375,0.52-0.71c0-0.418-0.34-0.757-0.758-0.757c-0.418,0-0.759,0.339-0.759,0.757
		c0,0.319,0.203,0.582,0.483,0.693v4.712c-0.204,0.107-0.406,0.23-0.585,0.343l-0.159,0.099c-0.09,0.057-0.177,0.119-0.262,0.183
		l-0.13,0.097v-3.595c0.28-0.111,0.482-0.376,0.482-0.695c0-0.418-0.339-0.758-0.758-0.758c-0.418,0-0.758,0.339-0.758,0.758
		c0,0.334,0.22,0.609,0.521,0.709v4.104c-0.404,0.488-0.686,1.08-0.843,1.817c-0.17,0.801-0.206,1.642-0.105,2.502
		c0.031,0.273,0.074,0.543,0.116,0.812c0.075,0.473,0.152,0.963,0.167,1.469l0.005,0.1c0.028,0.534,0.11,2.152-1.161,3.33
		c-0.386,0.357-1.016,0.527-1.682,0.706c-0.355,0.096-0.722,0.195-1.075,0.327c-0.564,0.209-1.151,0.488-1.846,0.878
		c-1.165,0.651-2.269,1.528-3.284,2.602c-0.305,0.324-0.617,0.665-0.925,1.001c-0.746,0.815-1.45,1.584-1.996,2.042
		c-0.784,0.657-1.536,1.181-2.859,1.764l-0.009,0.004c0.183,0.01,0.366,0.019,0.551,0.028c0.461,0.024,0.922,0.045,1.382,0.063
		c0.358,0.015,1.192,0.023,2.231,0.023h0c2.41,0,5.768-0.044,7.96-0.169c4.501-0.258,9.313-3.562,9.313-8.075
		C53.5,36.655,52.865,34.849,51.711,33.415z"/>
</g>
</svg>
