<?xml version="1.0" encoding="utf-8"?>
<!-- Generator: Adobe Illustrator 17.0.0, SVG Export Plug-In . SVG Version: 6.00 Build 0)  -->
<!DOCTYPE svg PUBLIC "-//W3C//DTD SVG 1.1//EN" "http://www.w3.org/Graphics/SVG/1.1/DTD/svg11.dtd">
<svg version="1.1" id="Layer_1" xmlns="http://www.w3.org/2000/svg" xmlns:xlink="http://www.w3.org/1999/xlink" x="0px" y="0px"
	 width="64px" height="64px" viewBox="-0.5 0.5 64 64" enable-background="new -0.5 0.5 64 64" xml:space="preserve">
<g id="Captions">
</g>
<path fill-rule="evenodd" clip-rule="evenodd" d="M51.928,33.643h-1.572v3.143c0,2.603-2.11,4.714-4.715,4.714h-6.285
	c-2.605,0-4.714-2.11-4.714-4.714l-1.556-6.222c-0.543-0.038-1.093-0.065-1.636-0.065c-0.522,0-1.038,0.029-1.541,0.074
	l-1.553,6.213c0,2.603-2.11,4.714-4.715,4.714h-6.285c-2.605,0-4.715-2.11-4.715-4.714v-3.143h-1.57
	c-0.869,0-1.572-0.703-1.572-1.572V30.5c0-0.867,0.703-1.57,1.572-1.57h1.86c0.648-1.828,2.376-3.143,4.425-3.143h7.857
	c1.486,0,2.795,0.7,3.659,1.774c0.826-0.12,1.691-0.203,2.578-0.203c0.904,0,1.814,0.072,2.703,0.17
	c0.864-1.054,2.161-1.742,3.631-1.742h7.857c2.051,0,3.777,1.315,4.426,3.143h1.86c0.869,0,1.572,0.703,1.572,1.57v1.572
	C53.5,32.94,52.797,33.643,51.928,33.643z M22.604,28.394c-0.459-0.46-1.206-0.46-1.667,0l-4.999,5c-0.46,0.46-0.46,1.206,0,1.667
	c0.459,0.46,1.206,0.46,1.665,0l5.001-5C23.065,29.601,23.065,28.855,22.604,28.394z M44.606,28.394c-0.46-0.46-1.206-0.46-1.667,0
	l-5,5c-0.46,0.46-0.46,1.206,0,1.667c0.46,0.46,1.206,0.46,1.667,0l5-5C45.066,29.601,45.066,28.855,44.606,28.394z"/>
</svg>
