<?xml version="1.0" encoding="utf-8"?>
<!-- Generator: Adobe Illustrator 17.0.0, SVG Export Plug-In . SVG Version: 6.00 Build 0)  -->
<!DOCTYPE svg PUBLIC "-//W3C//DTD SVG 1.1//EN" "http://www.w3.org/Graphics/SVG/1.1/DTD/svg11.dtd">
<svg version="1.1" id="Layer_1" xmlns="http://www.w3.org/2000/svg" xmlns:xlink="http://www.w3.org/1999/xlink" x="0px" y="0px"
	 width="64px" height="64px" viewBox="-0.5 0.5 64 64" enable-background="new -0.5 0.5 64 64" xml:space="preserve">
<g id="Captions">
</g>
<g>
	<path d="M25.923,38.899c-1.169,0-2.12-0.955-2.12-2.128c0-1.169,0.952-2.12,2.12-2.12c1.172,0,2.128,0.952,2.128,2.12
		C28.051,37.944,27.095,38.899,25.923,38.899z"/>
	<path d="M36.927,38.899c-1.172,0-2.128-0.955-2.128-2.128c0-1.169,0.955-2.12,2.128-2.12c1.169,0,2.12,0.952,2.12,2.12
		C39.048,37.944,38.096,38.899,36.927,38.899z"/>
	<path d="M31.504,48.179c-3.799,0-6.162-1.529-6.162-3.991c0-2.644,2.765-4.793,6.162-4.793c3.393,0,6.154,2.149,6.154,4.793
		C37.658,46.65,35.299,48.179,31.504,48.179z M31.504,40.856c-2.591,0-4.7,1.493-4.7,3.332c0,2.348,3.599,2.53,4.7,2.53
		s4.694-0.182,4.694-2.53C36.197,42.349,34.091,40.856,31.504,40.856z"/>
	<path d="M33.078,42.688c0-0.873-0.705-1.578-1.576-1.578c-0.877,0-1.582,0.705-1.582,1.578c0,0.873,0.705,1.582,1.582,1.582
		C32.373,44.27,33.078,43.561,33.078,42.688z"/>
	<path d="M41.225,40.471c0,0.232-0.192,0.421-0.421,0.421c-0.235,0-0.421-0.189-0.421-0.421c0-0.232,0.185-0.421,0.421-0.421
		C41.033,40.051,41.225,40.239,41.225,40.471z"/>
	<path d="M40.384,42.089c0,0.235-0.192,0.421-0.421,0.421c-0.235,0-0.421-0.185-0.421-0.421c0-0.232,0.185-0.421,0.421-0.421
		C40.192,41.668,40.384,41.857,40.384,42.089z"/>
	<path d="M42.672,43.076c0,0.235-0.185,0.421-0.421,0.421c-0.228,0-0.421-0.185-0.421-0.421c0-0.232,0.192-0.421,0.421-0.421
		C42.487,42.655,42.672,42.844,42.672,43.076z"/>
	<path d="M40.384,44.27c0,0.235-0.192,0.421-0.421,0.421c-0.235,0-0.421-0.185-0.421-0.421c0-0.232,0.185-0.421,0.421-0.421
		C40.192,43.85,40.384,44.038,40.384,44.27z"/>
	<path d="M21.91,40.471c0,0.232,0.185,0.421,0.421,0.421s0.421-0.189,0.421-0.421c0-0.232-0.185-0.421-0.421-0.421
		S21.91,40.239,21.91,40.471z"/>
	<path d="M22.751,42.089c0,0.235,0.185,0.421,0.421,0.421c0.235,0,0.421-0.185,0.421-0.421c0-0.232-0.185-0.421-0.421-0.421
		C22.936,41.668,22.751,41.857,22.751,42.089z"/>
	<path d="M20.456,43.076c0,0.235,0.192,0.421,0.421,0.421c0.235,0,0.421-0.185,0.421-0.421c0-0.232-0.185-0.421-0.421-0.421
		C20.648,42.655,20.456,42.844,20.456,43.076z"/>
	<path d="M22.751,44.27c0,0.235,0.185,0.421,0.421,0.421c0.228,0,0.421-0.185,0.421-0.421c0-0.232-0.192-0.421-0.421-0.421
		C22.936,43.85,22.751,44.038,22.751,44.27z"/>
	<path d="M22.452,51.686c2.58,1.137,5.592,1.814,9.045,1.814c3.253,0,6.134-0.634,8.639-1.696l2.586-1.354
		c4.238-2.731,6.779-7.128,6.779-12.63c0-5.459-3.083-10.282-7.758-13.186c1.14-4.13,1.486-10.357-0.748-13.25
		c-0.92-1.187-2.227-1.771-3.678-1.6c-3.189,0.335-4.063,5.074-4.907,9.658c-0.15,0.809-0.299,1.628-0.456,2.348
		c-0.153-0.004-0.296-0.039-0.449-0.039c-0.157,0-0.299,0.039-0.456,0.039c-0.157-0.72-0.307-1.54-0.456-2.348
		c-0.845-4.583-1.718-9.323-4.907-9.658c-1.483-0.174-2.758,0.413-3.67,1.6c-2.234,2.89-1.888,9.12-0.748,13.25
		C16.583,27.539,13.5,32.357,13.5,37.82c0,5.449,2.37,9.736,6.394,12.459L22.452,51.686z M35.282,19.969
		c0.324-1.774,1.318-7.177,2.341-7.284c0.432-0.021,0.755,0.093,1.058,0.484c1.243,1.615,1.358,6.287,0.402,10.129
		c-0.378-0.157-0.755-0.303-1.144-0.438c0.641-3.179,0.884-7.708-0.129-7.708c-0.527,0-0.841,2.89-1.376,5.791
		c-0.096,0.503-0.182,0.962-0.271,1.425c-0.432-0.103-0.848-0.235-1.29-0.314C35.011,21.405,35.142,20.714,35.282,19.969z
		 M24.323,13.166c0.303-0.389,0.634-0.51,1.055-0.481c1.023,0.107,2.017,5.509,2.341,7.284c0.139,0.744,0.271,1.436,0.406,2.088
		c-0.435,0.071-0.841,0.203-1.262,0.303c-0.089-0.46-0.174-0.92-0.271-1.419c-0.535-2.901-0.848-5.791-1.376-5.791
		c-1.012,0-0.77,4.526-0.129,7.701c-0.4,0.139-0.784,0.285-1.165,0.445C22.965,19.452,23.079,14.78,24.323,13.166z M16.422,37.82
		c0-7.248,6.764-13.146,15.081-13.146c8.314,0,15.074,5.898,15.074,13.146c0,7.751-5.919,12.758-15.081,12.758
		C22.199,50.578,16.422,45.689,16.422,37.82z"/>
</g>
</svg>
