<?xml version="1.0" encoding="utf-8"?>
<!-- Generator: Adobe Illustrator 17.0.0, SVG Export Plug-In . SVG Version: 6.00 Build 0)  -->
<!DOCTYPE svg PUBLIC "-//W3C//DTD SVG 1.1//EN" "http://www.w3.org/Graphics/SVG/1.1/DTD/svg11.dtd">
<svg version="1.1" id="Layer_1" xmlns="http://www.w3.org/2000/svg" xmlns:xlink="http://www.w3.org/1999/xlink" x="0px" y="0px"
	 width="64px" height="64px" viewBox="-0.5 0.5 64 64" enable-background="new -0.5 0.5 64 64" xml:space="preserve">
<g id="Captions">
</g>
<path d="M45.4,28.882c-0.788,0-1.55,0.118-2.272,0.33l-3.354-8.188c-0.13-0.317-0.44-0.524-0.782-0.524h-3.946
	c-0.467,0-0.844,0.379-0.844,0.846c0,0.467,0.377,0.845,0.844,0.845c0,0,2.548,0,3.379,0c0.086,0.209,0.423,1.03,0.895,2.184H25.133
	l-0.697-1.252l3.309-0.373c0.337,0,0.613-0.275,0.613-0.612c0-0.34-0.276-0.614-0.613-0.614h-5.599
	c-0.338,0-0.613,0.274-0.613,0.614c0,0.337-0.115,1.316,0.938,1.205l0.143-0.014l0.974,1.746l-2.653,4.534
	c-1.02-0.463-2.146-0.727-3.334-0.727c-4.467,0-8.101,3.634-8.101,8.1s3.634,8.1,8.101,8.1c4.181,0,7.63-3.185,8.054-7.255h5.096
	c0,1.426,0,2.671,0,2.958c-0.431,0-1.057,0-1.057,0c-0.232,0-0.421,0.189-0.421,0.423c0,0.233,0.189,0.423,0.421,0.423h1.48
	c0.235,0,0.423-0.189,0.423-0.423c0,0,0-1.664,0-3.483c0.003-0.001,0.006-0.001,0.009-0.002c0.025-0.016,0.049-0.034,0.073-0.052
	c0.016-0.013,0.037-0.023,0.054-0.037c0.043-0.035,0.081-0.077,0.115-0.117c0.004-0.002,0.007-0.006,0.01-0.008l0.001-0.004
	c0.001,0,0.001-0.001,0.003-0.002l8.447-10.711c0.4,0.97,0.829,2.018,1.257,3.06c-2.535,1.371-4.263,4.053-4.263,7.131
	c0,4.466,3.632,8.1,8.098,8.1c4.467,0,8.1-3.634,8.1-8.1S49.868,28.882,45.4,28.882z M24.543,26.79l5.211,9.347
	c-0.97,0-2.486,0-4.099,0c-0.242-2.325-1.475-4.353-3.263-5.671C23.253,28.993,24.064,27.611,24.543,26.79z M23.947,36.137
	c-2.041,0-3.973,0-4.873,0c0.455-0.782,1.429-2.446,2.461-4.204C22.826,32.941,23.721,34.433,23.947,36.137z M17.601,43.391
	c-3.535,0-6.409-2.875-6.409-6.409c0-3.535,2.875-6.409,6.409-6.409c0.878,0,1.716,0.178,2.479,0.5l-3.208,5.483
	c-0.154,0.261-0.156,0.584-0.004,0.847c0.15,0.263,0.43,0.425,0.733,0.425h6.346C23.532,40.962,20.848,43.391,17.601,43.391z
	 M31.596,35.107c0-0.962,0-1.713,0-1.929c0.433,0,1.057,0,1.057,0c0.233,0,0.423-0.189,0.423-0.423s-0.189-0.423-0.423-0.423h-1.48
	c-0.233,0-0.423,0.19-0.423,0.423c0,0,0,0.704,0,1.699l-4.675-8.389c2.902,0,10.421,0,12.651,0
	C37.415,27.729,33.36,32.868,31.596,35.107z M45.4,43.391c-3.533,0-6.408-2.875-6.408-6.409c0-2.373,1.299-4.444,3.22-5.551
	c1.288,3.142,2.406,5.87,2.406,5.87c0.178,0.434,0.67,0.639,1.103,0.463c0.433-0.178,0.637-0.67,0.463-1.102l-2.408-5.872
	c0.52-0.138,1.063-0.217,1.624-0.217c3.535,0,6.409,2.875,6.409,6.409C51.81,40.516,48.935,43.391,45.4,43.391z"/>
</svg>
