<?xml version="1.0" encoding="utf-8"?>
<!-- Generator: Adobe Illustrator 17.0.0, SVG Export Plug-In . SVG Version: 6.00 Build 0)  -->
<!DOCTYPE svg PUBLIC "-//W3C//DTD SVG 1.1//EN" "http://www.w3.org/Graphics/SVG/1.1/DTD/svg11.dtd">
<svg version="1.1" id="Layer_1" xmlns="http://www.w3.org/2000/svg" xmlns:xlink="http://www.w3.org/1999/xlink" x="0px" y="0px"
	 width="64px" height="64px" viewBox="-0.5 0.5 64 64" enable-background="new -0.5 0.5 64 64" xml:space="preserve">
<g id="Captions">
</g>
<g>
	<path d="M31.499,36.805c-1.705,0-3.281-0.504-4.632-1.338c-4.768,1.444-8.238,5.572-8.238,10.498c0,0.1,0.029,0.191,0.031,0.29
		h25.677c0.003-0.099,0.032-0.19,0.032-0.29c0-4.926-3.471-9.054-8.238-10.498C34.779,36.301,33.203,36.805,31.499,36.805z"/>
	<circle cx="31.499" cy="26.369" r="8.869"/>
	<circle cx="47.083" cy="26.654" r="4.771"/>
	<path d="M53.499,38.825c0-3.543-2.873-6.415-6.416-6.415c-2.884,0-5.323,1.904-6.131,4.524c1.842,1.502,3.189,3.469,3.876,5.676
		h8.671V38.825z"/>
	<circle cx="15.914" cy="26.654" r="4.771"/>
	<path d="M22.046,36.934c-0.808-2.62-3.247-4.524-6.131-4.524c-3.543,0-6.415,2.873-6.415,6.415v3.785h8.671
		C18.857,40.404,20.204,38.436,22.046,36.934z"/>
</g>
</svg>
