<?xml version="1.0" encoding="utf-8"?>
<!-- Generator: Adobe Illustrator 17.0.0, SVG Export Plug-In . SVG Version: 6.00 Build 0)  -->
<!DOCTYPE svg PUBLIC "-//W3C//DTD SVG 1.1//EN" "http://www.w3.org/Graphics/SVG/1.1/DTD/svg11.dtd">
<svg version="1.1" id="Layer_1" xmlns="http://www.w3.org/2000/svg" xmlns:xlink="http://www.w3.org/1999/xlink" x="0px" y="0px"
	 width="64px" height="64px" viewBox="-0.5 0.5 64 64" enable-background="new -0.5 0.5 64 64" xml:space="preserve">
<g id="Captions">
</g>
<path d="M31.929,13.816c0,0,0.282-0.001,0.303,0c0.339,0.023,0.463,0.205,0.463,0.556l-0.358,0.964c0,0,0.949,12.523,1.683,17.131
	c0,0,0.284,0,0.63,0c0.348,0,0.632,0.304,0.632,0.676v1.351c0,0,0.01,0.063,0.019,0.083c0.008,0.018,0.075,0.254,0.149,0.523
	c0,0,1.403,5.089,2.441,7.145l0.891,0.009c0.372,0,0.676,0.305,0.676,0.676l-0.009,1.327c0,0.372-0.005,0.68-0.01,0.683
	c-0.005,0.003,5.762,8.352,5.762,8.352c0.165,0.225,0.299,0.4,0.299,0.679v0.665c0,0.278-0.227,0.508-0.507,0.508h-5.087
	c-0.279,0-0.506-0.229-0.506-0.508v-1.043c-0.53-3.401-3.939-6.802-7.877-6.802h-0.045c-3.939,0-7.347,3.401-7.877,6.802v1.043
	c0,0.278-0.228,0.508-0.507,0.508h-5.086c-0.279,0-0.507-0.229-0.507-0.508v-0.546c0-0.279,0.131-0.455,0.292-0.684
	c0,0,5.705-8.517,5.699-8.519c-0.004-0.004-0.01-0.312-0.01-0.682v-1.274c0-0.371,0.305-0.676,0.677-0.676l0.891-0.009
	c1.037-2.057,2.44-7.145,2.44-7.145c0.074-0.269,0.141-0.505,0.15-0.523c0.008-0.018,0.028-0.073,0.028-0.073l-0.003-1.361
	c-0.003-0.371,0.278-0.675,0.624-0.675c0.348,0,0.632,0,0.632,0c0.733-4.608,1.664-17.132,1.664-17.132l-0.367-0.963
	c0-0.352,0.152-0.536,0.495-0.555c0.02-0.001,0.305,0,0.305,0l0.272-4.097c0.006-0.186,0.087-0.22,0.179-0.22
	c0.092,0,0.173,0.033,0.18,0.22L31.929,13.816z M33.82,42.004c0.279,0,0.447-0.22,0.373-0.489l-1.401-5.108
	c-0.074-0.27-0.363-0.489-0.642-0.489H30.85c-0.279,0-0.568,0.22-0.642,0.489l-1.401,5.108c-0.074,0.269,0.093,0.489,0.372,0.489
	H33.82z"/>
</svg>
