<?xml version="1.0" encoding="utf-8"?>
<!-- Generator: Adobe Illustrator 17.0.0, SVG Export Plug-In . SVG Version: 6.00 Build 0)  -->
<!DOCTYPE svg PUBLIC "-//W3C//DTD SVG 1.1//EN" "http://www.w3.org/Graphics/SVG/1.1/DTD/svg11.dtd">
<svg version="1.1" id="Layer_1" xmlns="http://www.w3.org/2000/svg" xmlns:xlink="http://www.w3.org/1999/xlink" x="0px" y="0px"
	 width="64px" height="64px" viewBox="-0.5 0.5 64 64" enable-background="new -0.5 0.5 64 64" xml:space="preserve">
<g id="Captions">
</g>
<g>
	<path d="M39.39,52.551c0-0.7-0.562-1.266-1.257-1.266c-0.696,0-1.257,0.566-1.257,1.266c0,0.703,0.561,1.273,1.257,1.273
		C38.828,53.824,39.39,53.252,39.39,52.551z"/>
	<path d="M24.253,52.514c0-0.703-0.56-1.274-1.251-1.274c-0.698,0-1.261,0.572-1.261,1.274c0,0.711,0.563,1.285,1.261,1.285
		C23.693,53.799,24.253,53.225,24.253,52.514z"/>
	<path d="M20.802,50.036c0,0-0.974-0.068-0.974-0.806v-0.069c0-0.739,0.974-0.808,0.974-0.808h19.805c0,0,0.97,0.051,0.97,0.808
		v0.069c0,0.769-0.97,0.806-0.97,0.806H20.802z"/>
	<path d="M26.036,13.699c0-1.767-1.437-3.199-3.205-3.199c-1.767,0-3.2,1.432-3.2,3.2s1.433,3.205,3.2,3.205
		C24.6,16.905,26.036,15.467,26.036,13.699z"/>
	<path d="M30.984,19.296l10.971,12.72l7.421-0.021c0.17-0.005,0.344,0.009,0.52,0.05c1.114,0.247,1.806,1.339,1.551,2.455
		c-0.217,0.976-1.093,1.637-2.056,1.619l-8.627-0.015c-1.825,0.067-2.515-0.784-2.515-0.784l-4.254-4.743l-4.943,4.806l2.003,8.922
		c0.048,0.166,0.067,0.342,0.067,0.521c0,1.143-0.926,2.07-2.071,2.07c-0.997,0-1.833-0.709-2.027-1.654L24.585,34.37
		c-0.525-1.696,0.392-2.548,0.392-2.548l4.353-4.353l-4.751-5.493L21.54,25.03c0,0-1.21,1.273-2.714-0.226l-4.952-4.992
		c-0.237-0.288-0.374-0.651-0.374-1.054c0-0.917,0.742-1.664,1.665-1.664c0.406,0,0.778,0.147,1.068,0.39l4.107,4.1l4.958-4.956
		c0.379-0.363,0.889-0.593,1.461-0.593l7.775,0.002c0.501,0,0.946,0.23,1.244,0.583l5.37,6.186c0.335,0.294,0.544,0.725,0.544,1.207
		c0,0.888-0.718,1.609-1.612,1.609c-0.5,0-0.95-0.224-1.243-0.589l-4.981-5.752L30.984,19.296z"/>
</g>
</svg>
