<?xml version="1.0" encoding="utf-8"?>
<!-- Generator: Adobe Illustrator 17.0.0, SVG Export Plug-In . SVG Version: 6.00 Build 0)  -->
<!DOCTYPE svg PUBLIC "-//W3C//DTD SVG 1.1//EN" "http://www.w3.org/Graphics/SVG/1.1/DTD/svg11.dtd">
<svg version="1.1" id="Layer_1" xmlns="http://www.w3.org/2000/svg" xmlns:xlink="http://www.w3.org/1999/xlink" x="0px" y="0px"
	 width="64px" height="64px" viewBox="-0.5 0.5 64 64" enable-background="new -0.5 0.5 64 64" xml:space="preserve">
<g id="Captions">
</g>
<g>
	<circle cx="25.394" cy="31.873" r="1.846"/>
	<circle cx="38.357" cy="31.873" r="1.846"/>
	<path d="M28.49,36.508c0,1.751,3.169,3.171,3.169,3.171s3.171-1.421,3.171-3.171C34.83,34.757,28.49,34.757,28.49,36.508z"/>
	<path d="M51.644,40.03l-3.891-0.622c0.234-0.489,0.433-0.997,0.604-1.518l2.966,0.475c0.055,0.009,0.108,0.011,0.163,0.011
		c0.49,0,0.921-0.354,1-0.854c0.089-0.553-0.289-1.075-0.841-1.163l-2.804-0.448c0.118-0.725,0.18-1.473,0.18-2.244
		c0-2.874-1.916-9.251-2.699-11.224c-0.601-1.513-1.204-2.499-1.903-3.641c-0.325-0.531-0.674-1.101-1.056-1.783
		c-0.169-0.302-0.48-0.496-0.824-0.517c-0.357-0.026-0.677,0.136-0.881,0.415c-1.269,1.738-3.237,3.675-4.034,3.675
		c-0.325,0-0.924-0.074-1.619-0.16c-1.227-0.151-2.756-0.34-4.342-0.34c-1.307,0-2.57,0.165-3.686,0.311
		c-0.774,0.101-1.442,0.189-1.904,0.189c-1.673,0-3.588-2.568-4.127-3.467c-0.182-0.304-0.509-0.491-0.864-0.493
		c-0.37-0.002-0.684,0.179-0.87,0.481c-1.195,1.933-1.984,3.21-2.843,5.444c-0.788,2.051-2.636,8.306-2.636,11.112
		c0,0.728,0.057,1.437,0.162,2.126l-3.538,0.566c-0.553,0.088-0.93,0.609-0.842,1.163c0.079,0.499,0.511,0.855,1.001,0.855
		c0.053,0,0.107-0.003,0.162-0.011l3.681-0.589c0.165,0.522,0.361,1.03,0.589,1.52l-4.593,0.734
		c-0.553,0.089-0.93,0.609-0.842,1.163c0.08,0.499,0.511,0.855,1.001,0.855c0.053,0,0.108-0.004,0.162-0.012l5.353-0.856
		c2.86,4.114,8.19,6.646,14.846,6.646c6.597,0,11.893-2.489,14.772-6.538l4.677,0.747c0.054,0.009,0.108,0.012,0.162,0.012
		c0.491,0,0.921-0.355,1.001-0.854C52.575,40.639,52.197,40.119,51.644,40.03z M31.875,45.794c-4.877,0-9.781-1.578-12.628-4.971
		l0.891-0.142c0.554-0.089,0.93-0.609,0.842-1.163c-0.089-0.553-0.61-0.93-1.162-0.842L18,38.967
		c-0.25-0.478-0.465-0.982-0.643-1.513l2.781-0.444c0.554-0.089,0.93-0.609,0.842-1.163c-0.089-0.553-0.61-0.93-1.162-0.843
		l-2.926,0.468c-0.082-0.578-0.13-1.178-0.13-1.807c0-2.277,1.622-8.097,2.501-10.384c0.591-1.539,1.137-2.569,1.867-3.786
		c1.042,1.323,2.845,3.125,4.942,3.125c0.594,0,1.323-0.095,2.167-0.205c1.053-0.138,2.248-0.294,3.423-0.294
		c1.461,0,2.92,0.18,4.093,0.324c0.792,0.097,1.417,0.175,1.867,0.175c1.642,0,3.543-1.895,4.732-3.307
		c0.114,0.188,0.224,0.37,0.333,0.546c0.676,1.107,1.211,1.98,1.747,3.331c0.874,2.204,2.554,8.142,2.554,10.475
		c0,0.672-0.054,1.31-0.148,1.924l-3.66-0.586c-0.559-0.09-1.075,0.289-1.163,0.843c-0.089,0.553,0.289,1.074,0.842,1.163
		l3.493,0.559c-0.184,0.528-0.402,1.033-0.658,1.509l-2.513-0.402c-0.559-0.089-1.075,0.289-1.163,0.842
		c-0.089,0.553,0.289,1.075,0.841,1.163l1.552,0.249C41.552,44.248,36.701,45.794,31.875,45.794z"/>
</g>
</svg>
