<?xml version="1.0" encoding="utf-8"?>
<!-- Generator: Adobe Illustrator 17.0.0, SVG Export Plug-In . SVG Version: 6.00 Build 0)  -->
<!DOCTYPE svg PUBLIC "-//W3C//DTD SVG 1.1//EN" "http://www.w3.org/Graphics/SVG/1.1/DTD/svg11.dtd">
<svg version="1.1" id="Layer_1" xmlns="http://www.w3.org/2000/svg" xmlns:xlink="http://www.w3.org/1999/xlink" x="0px" y="0px"
	 width="64px" height="64px" viewBox="-0.5 0.5 64 64" enable-background="new -0.5 0.5 64 64" xml:space="preserve">
<g id="Captions">
</g>
<path d="M50.944,32.722h-3.112c-0.859,0-1.556-0.696-1.556-1.556c0-0.859,0.697-1.554,1.556-1.554h3.112
	c0.858,0,1.556,0.696,1.556,1.554C52.5,32.026,51.803,32.722,50.944,32.722z M44.832,22.367c-0.608,0.607-1.592,0.607-2.2,0
	c-0.608-0.607-0.608-1.592,0-2.199l2.2-2.2c0.608-0.607,1.592-0.607,2.2,0c0.608,0.607,0.608,1.593,0,2.2L44.832,22.367z
	 M42.54,34.507L42.54,34.507c1.361,1.623,2.183,3.711,2.183,5.993c0,5.153-4.179,9.333-9.335,9.333c-2.158,0-9.957,0-12.444,0
	c-6.873,0-12.444-5.571-12.444-12.444c0-6.873,5.572-12.444,12.444-12.444c1.223,0,2.404,0.18,3.518,0.509
	c1.708-2.199,4.37-3.62,7.37-3.62c5.156,0,9.335,4.18,9.335,9.333C43.165,32.344,42.938,33.469,42.54,34.507z M13.611,37.389
	c0,5.155,4.178,9.333,9.333,9.333c2.813,0,10.096,0,12.445,0c3.437,0,6.221-2.786,6.221-6.222c0-3.436-2.785-6.223-6.221-6.223
	c-1.245,0-2.399,0.375-3.371,1.004c-0.957-4.135-4.647-7.226-9.074-7.226C17.788,28.056,13.611,32.234,13.611,37.389z
	 M33.833,24.945c-1.721,0-3.279,0.698-4.404,1.827c1.82,1.117,3.333,2.686,4.379,4.554c0.517-0.088,1.04-0.16,1.582-0.16
	c1.653,0,3.204,0.435,4.55,1.188l0,0c0.074-0.384,0.117-0.781,0.117-1.188C40.056,27.731,37.269,24.945,33.833,24.945z
	 M33.833,18.722c-0.859,0-1.556-0.696-1.556-1.555v-3.111c0-0.86,0.697-1.556,1.556-1.556c0.859,0,1.556,0.696,1.556,1.556v3.111
	C35.388,18.026,34.692,18.722,33.833,18.722z M22.833,22.367l-2.199-2.199c-0.608-0.607-0.608-1.593,0-2.2
	c0.607-0.607,1.592-0.607,2.199,0l2.2,2.2c0.608,0.607,0.608,1.592,0,2.199C24.426,22.974,23.441,22.974,22.833,22.367z"/>
</svg>
