<?xml version="1.0" encoding="utf-8"?>
<!-- Generator: Adobe Illustrator 17.0.0, SVG Export Plug-In . SVG Version: 6.00 Build 0)  -->
<!DOCTYPE svg PUBLIC "-//W3C//DTD SVG 1.1//EN" "http://www.w3.org/Graphics/SVG/1.1/DTD/svg11.dtd">
<svg version="1.1" id="Layer_1" xmlns="http://www.w3.org/2000/svg" xmlns:xlink="http://www.w3.org/1999/xlink" x="0px" y="0px"
	 width="64px" height="64px" viewBox="-0.5 0.5 64 64" enable-background="new -0.5 0.5 64 64" xml:space="preserve">
<g id="Captions">
</g>
<g>
	<path d="M31.5,23.742c3.103-0.003,5.621-2.52,5.621-5.621c0-3.11-2.517-5.628-5.621-5.621c-3.107-0.007-5.624,2.51-5.622,5.621
		C25.875,21.222,28.392,23.739,31.5,23.742L31.5,23.742z"/>
	<path d="M31.5,18.121"/>
	<path d="M31.5,35.505h-5.96v-4.313l-4.538,4.584c-2.056,2.056-4.839-0.577-2.777-2.641l7.517-7.541
		c0.614-0.6,1.282-0.986,2.348-0.994h3.409l0,0h3.341c1.053,0.008,1.768,0.382,2.393,0.994l7.608,7.63
		c1.957,1.949-0.902,4.607-2.777,2.619l-4.673-4.673v4.335H31.5L31.5,35.505L31.5,35.505z"/>
	<path d="M37.369,37.717L32.9,42.186l3.295,3.272l-3.363,3.365c-1.991,1.981,0.746,4.818,2.798,2.777l5.306-5.531
		c1.149-1.17,1.464-3.32,0.25-4.537C41.172,41.524,37.369,37.717,37.369,37.717L37.369,37.717z"/>
	<path d="M25.539,37.717l4.47,4.469l-3.272,3.272l3.364,3.365c1.977,1.981-0.759,4.818-2.8,2.777l-5.328-5.531
		c-1.137-1.17-1.453-3.32-0.225-4.537C21.746,41.524,25.539,37.717,25.539,37.717L25.539,37.717z"/>
</g>
</svg>
