<?xml version="1.0" encoding="utf-8"?>
<!-- Generator: Adobe Illustrator 17.0.0, SVG Export Plug-In . SVG Version: 6.00 Build 0)  -->
<!DOCTYPE svg PUBLIC "-//W3C//DTD SVG 1.1//EN" "http://www.w3.org/Graphics/SVG/1.1/DTD/svg11.dtd">
<svg version="1.1" id="Layer_1" xmlns="http://www.w3.org/2000/svg" xmlns:xlink="http://www.w3.org/1999/xlink" x="0px" y="0px"
	 width="64px" height="64px" viewBox="-0.5 0.5 64 64" enable-background="new -0.5 0.5 64 64" xml:space="preserve">
<g id="Captions">
</g>
<g>
	<path d="M49.407,36.827c-0.164-0.625-0.531-1.162-0.955-1.607c0.286-1.252,0.443-2.553,0.443-3.89c0-1.721-0.254-3.384-0.722-4.954
		v-3.714c0-7.55-6.708-9.087-8.278-9.343c-1.504-1.87-3.52-2.818-5.996-2.818c-3.021,0-5.816,1.439-6.742,1.97
		c-1.192-0.44-2.33-0.662-3.389-0.662c-3.686,0-5.762,2.747-6.481,4.479c-1.251,0.401-2.209,1.18-2.853,2.32
		c-1.949,3.456-0.252,9.085-0.179,9.323c0.044,0.143,0.131,0.259,0.24,0.349c-0.175,0.99-0.272,2.009-0.272,3.05
		c0,1.206,0.123,2.382,0.358,3.517c-0.434,0.51-0.838,1.158-0.989,1.923c-0.177,0.911,0.021,1.812,0.593,2.679
		c-0.194,1.447,0.082,3.838,2.23,4.695c0.156,1.692,1.072,4.171,3.723,4.489c0.426,1.536,1.659,3.728,4.136,3.728
		c0.182,0,0.371-0.013,0.561-0.037c0.592,0.485,2.044,1.484,3.973,1.482c0.954,0,1.894-0.244,2.801-0.726
		c1.014,0.399,1.967,0.598,2.84,0.598l0,0c2.339,0,3.524-1.38,4.009-2.168c0.175,0.017,0.349,0.027,0.516,0.027
		c2.336,0,3.534-1.747,3.976-3.017c2.674-0.303,3.593-2.794,3.751-4.492c2.15-0.856,2.425-3.249,2.23-4.695
		C49.593,38.311,49.562,37.415,49.407,36.827 M31.559,42.888c-3.368,0-6.067-2.1-7.224-5.057h14.447
		C37.625,40.787,34.926,42.888,31.559,42.888 M45.826,33.489c-0.338-0.125-0.689-0.193-1.05-0.193c-1.32,0-2.459,0.852-3.105,1.462
		c-0.687-0.609-1.489-0.928-2.357-0.928c-1.207,0-2.258,0.613-2.798,0.997c-0.628-0.254-1.268-0.382-1.91-0.382
		c-1.365,0-2.431,0.577-3.028,0.999c-0.834-0.639-1.832-0.973-2.919-0.973c-0.874,0-1.626,0.214-2.066,0.376
		c-0.874-0.576-1.776-0.867-2.687-0.867c-1.022,0-1.834,0.372-2.351,0.697c-1.189-1.257-2.507-1.541-3.452-1.541
		c-0.314,0-0.6,0.033-0.856,0.078c-0.081-0.618-0.137-1.244-0.137-1.884c0-3.253,1.095-6.249,2.916-8.667
		c0.37,0.036,0.744,0.059,1.115,0.059c4.231,0,7.761-2.359,10.099-3.919c0.82-0.548,1.527-1.021,2.061-1.264
		c0.363-0.165,0.728-0.289,1.098-0.374c6.61,1.324,11.606,7.17,11.606,14.163C46.006,32.065,45.933,32.783,45.826,33.489"/>
	<path d="M27.946,28.078c0,1.397-1.132,2.528-2.528,2.528c-1.397,0-2.528-1.131-2.528-2.528c0-1.396,1.132-2.528,2.528-2.528
		C26.814,25.55,27.946,26.682,27.946,28.078"/>
	<path d="M40.226,28.078c0,1.397-1.132,2.528-2.528,2.528c-1.397,0-2.528-1.131-2.528-2.528c0-1.396,1.132-2.528,2.528-2.528
		C39.095,25.55,40.226,26.682,40.226,28.078"/>
</g>
</svg>
