<?xml version="1.0" encoding="utf-8"?>
<!-- Generator: Adobe Illustrator 17.0.0, SVG Export Plug-In . SVG Version: 6.00 Build 0)  -->
<!DOCTYPE svg PUBLIC "-//W3C//DTD SVG 1.1//EN" "http://www.w3.org/Graphics/SVG/1.1/DTD/svg11.dtd">
<svg version="1.1" id="Layer_1" xmlns="http://www.w3.org/2000/svg" xmlns:xlink="http://www.w3.org/1999/xlink" x="0px" y="0px"
	 width="64px" height="64px" viewBox="-0.5 0.5 64 64" enable-background="new -0.5 0.5 64 64" xml:space="preserve">
<g id="Captions">
</g>
<path d="M46.955,28.003l-6.182,1.572v-3.343c1.882-1.511,3.09-3.853,3.09-6.481c0-4.557-3.632-8.251-8.113-8.251
	c-2.701,0-5.093,1.343-6.568,3.407c-1.475-2.065-3.867-3.408-6.568-3.408c-4.481,0-8.114,3.694-8.114,8.252
	c0,2.628,1.209,4.969,3.091,6.481v11.987c0,1.302,1.038,2.357,2.318,2.357h5.432l-5.957,9.363c-0.464,0.729-0.258,1.702,0.458,2.173
	c0.26,0.171,0.551,0.253,0.838,0.253c0.507,0,1.003-0.253,1.299-0.719l5.657-8.891v11.18c0,0.869,0.692,1.572,1.545,1.572
	c0.854,0,1.546-0.704,1.546-1.572v-11.18l5.657,8.891c0.296,0.465,0.792,0.719,1.299,0.719c0.288,0,0.579-0.082,0.839-0.253
	c0.717-0.471,0.921-1.445,0.458-2.173l-5.957-9.363h5.432c1.28,0,2.318-1.055,2.318-2.357v-2.358l6.182,1.572H48.5v-9.43H46.955z"/>
</svg>
