<?xml version="1.0" encoding="utf-8"?>
<!-- Generator: Adobe Illustrator 17.0.0, SVG Export Plug-In . SVG Version: 6.00 Build 0)  -->
<!DOCTYPE svg PUBLIC "-//W3C//DTD SVG 1.1//EN" "http://www.w3.org/Graphics/SVG/1.1/DTD/svg11.dtd">
<svg version="1.1" id="Layer_1" xmlns="http://www.w3.org/2000/svg" xmlns:xlink="http://www.w3.org/1999/xlink" x="0px" y="0px"
	 width="64px" height="64px" viewBox="-0.5 0.5 64 64" enable-background="new -0.5 0.5 64 64" xml:space="preserve">
<g id="Captions">
</g>
<g>
	<path d="M53.5,43.615v4.537h-1.637V45.23h-4.046v2.923h-1.635V45.23h-4.113v2.923h-1.813V45.23h-4.112v2.923H34.51V45.23h-4.115
		v2.923h-1.631V45.23h-4.111v2.923H23.02V45.23h-4.117v2.923h-1.637V45.23h-4.86v-4.11H9.5v-1.635h2.906V35.37H9.5v-1.631h2.906
		v-4.112H9.5v-1.635h2.906v-4.114H9.5v-1.632h2.906v-4.112H9.5V16.5h4.54v27.098h39.278v0.016H53.5z"/>
	<rect x="17.266" y="33.74" width="7.388" height="8.388"/>
	<rect x="28.765" y="27.993" width="7.388" height="14.135"/>
	<rect x="40.256" y="16.5" width="7.388" height="25.628"/>
</g>
</svg>
