<?xml version="1.0" encoding="utf-8"?>
<!-- Generator: Adobe Illustrator 17.0.0, SVG Export Plug-In . SVG Version: 6.00 Build 0)  -->
<!DOCTYPE svg PUBLIC "-//W3C//DTD SVG 1.1//EN" "http://www.w3.org/Graphics/SVG/1.1/DTD/svg11.dtd">
<svg version="1.1" id="Layer_1" xmlns="http://www.w3.org/2000/svg" xmlns:xlink="http://www.w3.org/1999/xlink" x="0px" y="0px"
	 width="64px" height="64px" viewBox="-0.5 0.5 64 64" enable-background="new -0.5 0.5 64 64" xml:space="preserve">
<g id="Captions">
</g>
<path d="M51.5,44.321c-0.036-2.947-1.334-6.448-3.607-10.106c0.023-0.371,0.056-0.738,0.056-1.113
	c0-9.562-7.75-17.312-17.311-17.312c-0.912,0-1.805,0.075-2.677,0.21c-3.218-1.59-6.251-2.476-8.832-2.5
	c-1.97-0.006-3.798,0.554-5.06,1.909c-1.103,1.183-1.572,2.774-1.567,4.454c0.027,2.137,0.714,4.564,1.954,7.132
	c-0.724,1.899-1.13,3.954-1.13,6.107c0,9.563,7.75,17.312,17.313,17.312c2.495,0,4.858-0.539,7-1.49
	c2.622,1.123,5.086,1.741,7.236,1.761c0.01,0,0.018,0,0.029,0c1.958,0,3.776-0.559,5.031-1.908l0.001-0.001
	C51.036,47.593,51.506,46.002,51.5,44.321z M48.032,47.008c-0.625,0.673-1.632,1.075-3.158,1.08
	c-2.681,0.031-6.598-1.379-10.797-3.972c-0.039-0.024-0.077-0.048-0.117-0.074c-0.189-0.117-0.38-0.244-0.569-0.366
	c-2.307-1.532-4.645-3.372-6.933-5.486c-3.075-2.884-5.668-5.896-7.656-8.837c-2.424-3.71-3.744-7.133-3.704-9.49
	c0.006-1.239,0.32-2.09,0.87-2.684c0.628-0.676,1.634-1.078,3.16-1.084c0.028,0,0.057,0,0.086,0c1.338,0,2.974,0.352,4.794,1.022
	c-2.437,1.017-4.594,2.573-6.321,4.522c1.48,4.213,5.198,9.726,10.54,14.65c4.952,4.639,10.301,7.839,14.499,9.193
	c2.029-1.981,3.572-4.454,4.439-7.227c1.155,2.351,1.767,4.457,1.739,6.064C48.898,45.558,48.583,46.412,48.032,47.008z"/>
</svg>
