<?xml version="1.0" encoding="utf-8"?>
<!-- Generator: Adobe Illustrator 17.0.0, SVG Export Plug-In . SVG Version: 6.00 Build 0)  -->
<!DOCTYPE svg PUBLIC "-//W3C//DTD SVG 1.1//EN" "http://www.w3.org/Graphics/SVG/1.1/DTD/svg11.dtd">
<svg version="1.1" id="Layer_1" xmlns="http://www.w3.org/2000/svg" xmlns:xlink="http://www.w3.org/1999/xlink" x="0px" y="0px"
	 width="64px" height="64px" viewBox="-0.5 0.5 64 64" enable-background="new -0.5 0.5 64 64" xml:space="preserve">
<g id="Captions">
</g>
<g>
	<path d="M25.203,33.961c-1.129,0-2.048-0.923-2.048-2.058c0-1.129,0.919-2.044,2.048-2.044c1.132,0,2.055,0.916,2.055,2.044
		C27.257,33.039,26.335,33.961,25.203,33.961z"/>
	<path d="M37.625,33.961c-1.132,0-2.055-0.923-2.055-2.058c0-1.129,0.923-2.044,2.055-2.044s2.051,0.916,2.051,2.044
		C39.676,33.039,38.757,33.961,37.625,33.961z"/>
	<g>
		<path d="M30.306,43.895c0-0.578-0.571-1.047-1.28-1.047c-0.699,0-1.28,0.468-1.28,1.047s0.582,1.047,1.28,1.047
			C29.735,44.942,30.306,44.474,30.306,43.895z"/>
		<path d="M35.084,43.895c0-0.578-0.571-1.047-1.28-1.047c-0.699,0-1.28,0.468-1.28,1.047s0.582,1.047,1.28,1.047
			C34.513,44.942,35.084,44.474,35.084,43.895z"/>
	</g>
	<path d="M42.187,46.312c4.137-2.637,6.62-6.905,6.62-12.254c0-0.785-0.134-1.542-0.262-2.299c5.74-0.338,7.733-4.748,7.95-7.181
		c0.048-0.554-0.231-1.087-0.719-1.356c-1.91-1.064-6.158-1.728-9.958,2.155c-0.771-1.019-1.714-1.914-2.73-2.74
		c0.079-0.055,0.159-0.09,0.234-0.152c1.15-0.923,1.828-2.416,2.014-4.444c0.058-0.657-0.345-1.27-0.977-1.47
		c-0.634-0.213-1.315,0.062-1.645,0.634c-1.522,2.616-3.759,2.73-4.206,2.716c-2.172-0.871-4.561-1.38-7.087-1.38
		s-4.915,0.509-7.084,1.376c-0.275,0.014-2.629,0.055-4.238-2.712c-0.334-0.571-1.015-0.843-1.649-0.634
		c-0.627,0.2-1.033,0.812-0.974,1.47c0.186,2.028,0.864,3.521,2.014,4.444c0.083,0.069,0.166,0.103,0.248,0.159
		c-0.977,0.798-1.88,1.663-2.633,2.637c-3.776-3.794-7.983-3.111-9.879-2.058c-0.486,0.269-0.768,0.802-0.719,1.356
		c0.22,2.409,2.176,6.753,7.786,7.167c-0.128,0.76-0.262,1.522-0.262,2.313c0,5.439,2.43,9.693,6.56,12.302l2.512,1.273
		c2.403,0.984,5.163,1.569,8.313,1.569c3.108,0,5.862-0.599,8.265-1.604L42.187,46.312z M9.54,25.343
		c1.273-0.3,3.628-0.31,6.01,2.43c-0.193,0.392-0.327,0.805-0.486,1.212C11.288,28.915,9.988,26.722,9.54,25.343z M24.793,45.293
		c-0.034-0.162-0.076-0.32-0.072-0.499c0.034-1.842,2.12-3.697,6.699-3.697c4.379,0,6.412,1.611,6.485,3.208
		c0.02,0.423-0.13,0.802-0.348,1.146c-1.814,0.603-3.869,0.93-6.141,0.93C28.919,46.381,26.716,45.982,24.793,45.293z
		 M39.336,44.701c0.014-0.159,0.083-0.3,0.076-0.461c-0.096-2.145-2.248-4.65-7.992-4.65c-5.886,0-8.075,2.696-8.192,5.053
		c-4.041-2.017-6.375-5.69-6.375-10.585c0-7.001,6.533-12.698,14.567-12.698c8.03,0,14.563,5.697,14.563,12.698
		C45.983,38.956,43.504,42.684,39.336,44.701z M47.776,28.998c-0.145-0.372-0.248-0.751-0.42-1.109
		c2.409-2.846,4.798-2.864,6.103-2.548C52.997,26.75,51.776,29.108,47.776,28.998z"/>
</g>
</svg>
