<?xml version="1.0" encoding="utf-8"?>
<!-- Generator: Adobe Illustrator 17.0.0, SVG Export Plug-In . SVG Version: 6.00 Build 0)  -->
<!DOCTYPE svg PUBLIC "-//W3C//DTD SVG 1.1//EN" "http://www.w3.org/Graphics/SVG/1.1/DTD/svg11.dtd">
<svg version="1.1" id="Layer_1" xmlns="http://www.w3.org/2000/svg" xmlns:xlink="http://www.w3.org/1999/xlink" x="0px" y="0px"
	 width="64px" height="64px" viewBox="-0.5 0.5 64 64" enable-background="new -0.5 0.5 64 64" xml:space="preserve">
<g id="Captions">
</g>
<g>
	<path d="M47.562,26.828"/>
	<path d="M49.354,19.396c0-1.125-0.762-2.041-1.791-2.346V11.5H46.18v5.547c-1.029,0.303-1.796,1.218-1.796,2.349
		c0,1.133,0.767,2.043,1.796,2.344v2.636v1.201v1.276c0,0-0.02,0.535-0.626,0.535c-0.646-0.01-0.615-0.535-0.615-0.535v-0.837
		c0,0-0.03-1.06-0.636-1.06c-0.605,0-0.605,1.06-0.605,1.06v0.787c0,0,0.045,1.978,1.887,1.978c1.947,0,1.977-2.028,1.977-2.028
		v-0.01v-1.165v-0.348v-3.489C48.592,21.434,49.354,20.526,49.354,19.396z M46.866,20.455c-0.585,0-1.06-0.474-1.06-1.06
		c0-0.58,0.475-1.055,1.06-1.055c0.585,0,1.06,0.474,1.06,1.055C47.926,19.981,47.451,20.455,46.866,20.455z"/>
	<path d="M47.381,39.456l2.028-2.855c0,0-14.071-15.257-31.457,0.373l-7.078-4.057l3.133,5.988L10.5,45.359l7.517-3.552
		C36.22,55.379,49.5,41.666,49.5,41.666L47.381,39.456z M44.334,38.507c-0.898,0-1.625-0.737-1.625-1.629
		c0-0.903,0.727-1.63,1.625-1.63c0.903,0,1.634,0.727,1.634,1.63C45.968,37.771,45.237,38.507,44.334,38.507z"/>
</g>
</svg>
