<?xml version="1.0" encoding="utf-8"?>
<!-- Generator: Adobe Illustrator 17.0.0, SVG Export Plug-In . SVG Version: 6.00 Build 0)  -->
<!DOCTYPE svg PUBLIC "-//W3C//DTD SVG 1.1//EN" "http://www.w3.org/Graphics/SVG/1.1/DTD/svg11.dtd">
<svg version="1.1" id="Layer_1" xmlns="http://www.w3.org/2000/svg" xmlns:xlink="http://www.w3.org/1999/xlink" x="0px" y="0px"
	 width="64px" height="64px" viewBox="-0.5 0.5 64 64" enable-background="new -0.5 0.5 64 64" xml:space="preserve">
<g id="Captions">
</g>
<path d="M18.774,36.195c0.881,3.57,2.001,5.13,5.742,6.766c3.741,1.635,5.517,3.419,6.984,3.419s3.131-1.563,6.872-3.198
	c3.741-1.635,2.743-2.133,3.624-5.703L31.5,42.58L18.774,36.195z M49.571,26.878L33.753,18.02c-1.239-0.694-3.267-0.694-4.507,0
	l-15.817,8.858c-1.239,0.694-1.239,1.83,0,2.523l15.817,8.857c1.239,0.694,3.267,0.694,4.507,0l10.225-5.725L32.89,29.936
	c-0.428,0.106-0.898,0.165-1.39,0.165c-1.997,0-3.617-0.963-3.617-2.152c0-1.188,1.619-2.152,3.617-2.152
	c1.551,0,2.87,0.582,3.384,1.398l11.744,3.854l2.943-1.648C50.81,28.708,50.81,27.572,49.571,26.878z M44.736,43.665
	c-0.121,0.731,2.438,1.932,2.682-0.206c1.099-9.636-0.791-12.409-0.791-12.409l-2.65,1.483
	C43.978,32.533,46.225,34.672,44.736,43.665z"/>
</svg>
