<?xml version="1.0" encoding="utf-8"?>
<!-- Generator: Adobe Illustrator 17.0.0, SVG Export Plug-In . SVG Version: 6.00 Build 0)  -->
<!DOCTYPE svg PUBLIC "-//W3C//DTD SVG 1.1//EN" "http://www.w3.org/Graphics/SVG/1.1/DTD/svg11.dtd">
<svg version="1.1" id="Layer_1" xmlns="http://www.w3.org/2000/svg" xmlns:xlink="http://www.w3.org/1999/xlink" x="0px" y="0px"
	 width="64px" height="64px" viewBox="-0.5 0.5 64 64" enable-background="new -0.5 0.5 64 64" xml:space="preserve">
<g id="Captions">
</g>
<g>
	<rect x="30.969" y="41.571" transform="matrix(-0.4226 -0.9063 0.9063 -0.4226 7.1141 90.5613)" width="2.873" height="2.886"/>
	<polygon points="35.184,43.304 36.197,39.874 36.116,39.7 33.505,40.917 34.719,43.52 	"/>
	<polygon points="25.103,37.505 25.926,40.291 28.495,39.093 27.281,36.49 	"/>
	<polygon points="27.078,43.914 27.007,43.947 27.83,46.733 28.292,46.517 	"/>
	<rect x="27.955" y="42.982" transform="matrix(-0.4226 -0.9063 0.9063 -0.4226 1.5514 89.8318)" width="2.873" height="2.88"/>
	<rect x="32.772" y="29.736" transform="matrix(0.4226 0.9063 -0.9063 0.4226 48.0111 -13.0095)" width="2.887" height="2.88"/>
	<polygon points="36.329,39.113 36.437,39.062 37.528,35.368 35.109,36.496 	"/>
	<rect x="29.765" y="31.136" transform="matrix(0.9063 -0.4226 0.4226 0.9063 -10.8446 16.2394)" width="2.881" height="2.887"/>
	<rect x="26.749" y="32.541" transform="matrix(0.4225 0.9064 -0.9064 0.4225 47.0844 -5.9262)" width="2.887" height="2.887"/>
	<rect x="34.185" y="32.746" transform="matrix(0.4226 0.9063 -0.9063 0.4226 51.5532 -12.5441)" width="2.872" height="2.88"/>
	<polygon points="34.906,43.92 34.964,44.046 35.017,43.869 	"/>
	<polygon points="26.88,43.519 26.892,43.514 26.856,43.438 	"/>
	<rect x="26.544" y="39.972" transform="matrix(-0.4225 -0.9063 0.9063 -0.4225 2.2799 84.2759)" width="2.887" height="2.88"/>
	<rect x="28.159" y="35.551" transform="matrix(0.4225 0.9063 -0.9063 0.4225 50.6204 -5.461)" width="2.873" height="2.887"/>
	<path d="M31.134,27.971l0.981,2.104l2.611-1.217l-0.544-1.165c-0.306-0.123-0.596-0.285-0.864-0.485
		C32.687,27.679,31.932,27.945,31.134,27.971z"/>
	<rect x="31.173" y="34.151" transform="matrix(0.4226 0.9063 -0.9063 0.4226 51.0862 -9.0042)" width="2.873" height="2.88"/>
	<rect x="29.558" y="38.561" transform="matrix(-0.4226 -0.9063 0.9063 -0.4226 7.8451 85.0078)" width="2.887" height="2.887"/>
	<rect x="32.571" y="37.16" transform="matrix(-0.4225 -0.9064 0.9064 -0.4225 13.3987 85.7363)" width="2.887" height="2.88"/>
	<polygon points="37.808,34.424 38.781,31.127 36.719,32.089 	"/>
	<path d="M31,55.789c0.294,0,0.552-0.193,0.636-0.475l0.294-0.996l-0.644-1.379l-1.426,0.665l0.505,1.71
		C30.448,55.596,30.706,55.789,31,55.789z"/>
	<polygon points="29.885,49.935 28.91,50.39 29.733,53.175 31.1,52.538 	"/>
	<polygon points="23.2,31.063 24.023,33.849 25.687,33.072 24.474,30.469 	"/>
	<rect x="25.346" y="29.538" transform="matrix(0.9063 -0.4226 0.4226 0.9063 -10.5799 14.2228)" width="2.887" height="2.873"/>
	<path d="M23.073,30.635l1.213-0.566l-1.107-2.374c-0.288,0.116-0.592,0.197-0.904,0.241L23.073,30.635z"/>
	<path d="M27.304,28.662l-0.342-0.734c-0.196,0.03-0.395,0.046-0.597,0.046c-0.849,0-1.652-0.268-2.318-0.766
		c-0.149,0.111-0.306,0.21-0.468,0.297l1.108,2.377L27.304,28.662z"/>
	<polygon points="33.352,49.507 32.896,48.531 30.286,49.748 31.5,52.352 32.672,51.805 	"/>
	<path d="M27.405,27.833l0.299,0.642l1.754-0.818c-0.274-0.118-0.534-0.268-0.776-0.449C28.297,27.496,27.864,27.707,27.405,27.833z
		"/>
	<path d="M39.229,29.613l0.496-1.678c-0.416-0.058-0.815-0.183-1.186-0.368l-0.216,0.101L39.229,29.613z"/>
	<polygon points="31.687,52.752 32.118,53.679 32.505,52.37 	"/>
	<polygon points="33.926,47.563 34.775,44.686 34.506,44.107 31.889,45.328 33.11,47.943 	"/>
	<polygon points="33.759,48.129 33.296,48.344 33.54,48.867 	"/>
	<rect x="29.352" y="45.991" transform="matrix(-0.4228 -0.9062 0.9062 -0.4228 0.8327 95.3913)" width="2.887" height="2.88"/>
	<path d="M29.105,31.479l2.61-1.217l-1.075-2.305c-0.195-0.018-0.387-0.049-0.574-0.095l-2.175,1.014L29.105,31.479z"/>
	<polygon points="28.479,46.918 27.956,47.161 28.784,49.961 29.699,49.534 	"/>
	<path d="M34.753,27.873l0.372,0.799l2.611-1.217l-0.034-0.073c-0.612,0.386-1.322,0.592-2.066,0.592
		C35.335,27.974,35.039,27.939,34.753,27.873z"/>
	<polygon points="24.15,34.277 24.976,37.077 27.094,36.089 25.874,33.473 	"/>
	<polygon points="35.312,29.072 36.532,31.689 38.949,30.562 39.04,30.252 37.922,27.855 	"/>
	<g>
		<path d="M41.552,21.119C41.058,15.725,36.522,11.5,31,11.5c-5.522,0-10.057,4.225-10.551,9.619
			c-1.147,0.496-1.949,1.636-1.949,2.964c0,1.783,1.446,3.229,3.229,3.229c0.91,0,1.731-0.377,2.317-0.982
			c0.587,0.605,1.409,0.982,2.318,0.982c0.91,0,1.731-0.377,2.318-0.982c0.587,0.605,1.408,0.982,2.318,0.982
			c0.91,0,1.732-0.377,2.318-0.982c0.587,0.605,1.409,0.982,2.318,0.982c0.91,0,1.731-0.377,2.318-0.982
			c0.586,0.605,1.408,0.982,2.317,0.982c1.783,0,3.229-1.445,3.229-3.229C43.501,22.755,42.698,21.614,41.552,21.119z"/>
	</g>
</g>
</svg>
