<?xml version="1.0" encoding="utf-8"?>
<!-- Generator: Adobe Illustrator 17.0.0, SVG Export Plug-In . SVG Version: 6.00 Build 0)  -->
<!DOCTYPE svg PUBLIC "-//W3C//DTD SVG 1.1//EN" "http://www.w3.org/Graphics/SVG/1.1/DTD/svg11.dtd">
<svg version="1.1" id="Layer_1" xmlns="http://www.w3.org/2000/svg" xmlns:xlink="http://www.w3.org/1999/xlink" x="0px" y="0px"
	 width="64px" height="64px" viewBox="-0.5 0.5 64 64" enable-background="new -0.5 0.5 64 64" xml:space="preserve">
<g id="Captions">
</g>
<g>
	<path d="M24.001,40.833c1.201,3.071,4.002,5.25,7.5,5.25c3.497,0,6.298-2.179,7.5-5.25H24.001z"/>
	<path d="M27.75,30.708c0,1.45-1.175,2.625-2.625,2.625c-1.449,0-2.624-1.175-2.624-2.625c0-1.449,1.175-2.624,2.624-2.624
		C26.576,28.084,27.75,29.259,27.75,30.708"/>
	<path d="M40.501,30.708c0,1.45-1.175,2.625-2.625,2.625s-2.625-1.175-2.625-2.625c0-1.449,1.175-2.624,2.625-2.624
		S40.501,29.259,40.501,30.708"/>
	<path d="M44.119,21.252c-0.565-1.521-2.126-4.922-5.539-7.662c-0.484-0.39-1.192-0.31-1.582,0.174
		c-0.389,0.484-0.312,1.193,0.173,1.582c0.863,0.691,1.584,1.438,2.196,2.179c-2.284-2.017-5.412-4.26-8.661-4.997
		c-0.419-0.097-0.855,0.057-1.125,0.391c-0.27,0.335-0.325,0.794-0.144,1.182l0.799,1.716c-1.09-0.324-2.392-0.597-3.661-0.597
		c-0.996,0-1.883,0.169-2.638,0.502c-2.622,1.159-4.28,3.025-4.664,5.156c-3.549,3.288-5.773,7.986-5.773,13.206
		c0,9.941,8.058,18,18,18c9.94,0,18-8.059,18-18C49.501,29.059,47.439,24.518,44.119,21.252 M31.501,49.083c-8.271,0-15-6.729-15-15
		c0-3.69,1.343-7.066,3.561-9.681c0.968,1.124,2.711,1.742,5.073,1.742c0.694,0,1.183-0.057,1.205-0.06
		c0.543-0.064,0.963-0.511,0.991-1.059s-0.343-1.036-0.877-1.156c-0.002,0-0.168-0.069-0.248-0.212
		c-0.122-0.217-0.091-0.632,0.084-1.135c0.186-0.539,0.755-2.179,4.522-2.179c4.076,0,9.239,1.934,10.529,2.444
		c3.155,2.752,5.16,6.79,5.16,11.295C46.501,42.354,39.771,49.083,31.501,49.083"/>
</g>
</svg>
