<?xml version="1.0" encoding="utf-8"?>
<!-- Generator: Adobe Illustrator 17.0.0, SVG Export Plug-In . SVG Version: 6.00 Build 0)  -->
<!DOCTYPE svg PUBLIC "-//W3C//DTD SVG 1.1//EN" "http://www.w3.org/Graphics/SVG/1.1/DTD/svg11.dtd">
<svg version="1.1" id="Layer_1" xmlns="http://www.w3.org/2000/svg" xmlns:xlink="http://www.w3.org/1999/xlink" x="0px" y="0px"
	 width="64px" height="64px" viewBox="-0.5 0.5 64 64" enable-background="new -0.5 0.5 64 64" xml:space="preserve">
<g id="Captions">
</g>
<path d="M50.99,23.5c-0.152,10.637-8.816,19.213-19.49,19.213c-10.672,0-19.338-8.577-19.49-19.213H9.5c0,12.15,9.85,22,22,22
	s22-9.85,22-22H50.99z"/>
<path d="M13.95,23.519c0,9.528,7.857,17.253,17.549,17.253c9.693,0,17.55-7.724,17.55-17.253H13.95z M22.372,30.34
	c-0.739,0-1.339-0.599-1.339-1.339c0-0.74,1.339-3.296,1.339-3.296s1.339,2.557,1.339,3.296C23.71,29.741,23.111,30.34,22.372,30.34
	z M26.571,36.366c-0.739,0-1.339-0.6-1.339-1.34c0-0.739,1.339-3.295,1.339-3.295s1.339,2.556,1.339,3.295
	C27.909,35.766,27.31,36.366,26.571,36.366z M31.5,30.34c-0.739,0-1.34-0.599-1.34-1.339c0-0.74,1.34-3.296,1.34-3.296
	s1.339,2.557,1.339,3.296C32.839,29.741,32.239,30.34,31.5,30.34z M35.7,36.366c-0.74,0-1.339-0.6-1.339-1.34
	c0-0.739,1.339-3.295,1.339-3.295s1.34,2.556,1.34,3.295C37.039,35.766,36.439,36.366,35.7,36.366z M40.628,30.34
	c-0.739,0-1.339-0.599-1.339-1.339c0-0.74,1.339-3.296,1.339-3.296s1.34,2.557,1.34,3.296C41.968,29.741,41.369,30.34,40.628,30.34z
	"/>
</svg>
