<?xml version="1.0" encoding="utf-8"?>
<!-- Generator: Adobe Illustrator 17.0.0, SVG Export Plug-In . SVG Version: 6.00 Build 0)  -->
<!DOCTYPE svg PUBLIC "-//W3C//DTD SVG 1.1//EN" "http://www.w3.org/Graphics/SVG/1.1/DTD/svg11.dtd">
<svg version="1.1" id="Layer_1" xmlns="http://www.w3.org/2000/svg" xmlns:xlink="http://www.w3.org/1999/xlink" x="0px" y="0px"
	 width="64px" height="64px" viewBox="-0.5 0.5 64 64" enable-background="new -0.5 0.5 64 64" xml:space="preserve">
<g id="Captions">
</g>
<path d="M51.462,25.992c-0.103-0.318-0.402-0.536-0.738-0.536H36.607l-4.369-13.42c-0.104-0.319-0.402-0.536-0.737-0.536
	c-0.336-0.001-0.635,0.215-0.739,0.534l-4.395,13.422H12.276c-0.336,0-0.635,0.217-0.739,0.536c-0.103,0.319,0.01,0.671,0.28,0.868
	l11.404,8.307l-4.395,13.495c-0.103,0.319,0.01,0.671,0.282,0.869c0.272,0.197,0.642,0.197,0.914,0l11.476-8.332l11.453,8.332
	c0.136,0.099,0.296,0.149,0.455,0.149c0.161,0,0.32-0.05,0.457-0.149c0.273-0.199,0.386-0.548,0.283-0.869l-4.395-13.495
	l11.427-8.306C51.452,26.664,51.566,26.311,51.462,25.992z"/>
</svg>
