<?xml version="1.0" encoding="utf-8"?>
<!-- Generator: Adobe Illustrator 17.0.0, SVG Export Plug-In . SVG Version: 6.00 Build 0)  -->
<!DOCTYPE svg PUBLIC "-//W3C//DTD SVG 1.1//EN" "http://www.w3.org/Graphics/SVG/1.1/DTD/svg11.dtd">
<svg version="1.1" id="Layer_1" xmlns="http://www.w3.org/2000/svg" xmlns:xlink="http://www.w3.org/1999/xlink" x="0px" y="0px"
	 width="64px" height="64px" viewBox="-0.5 0.5 64 64" enable-background="new -0.5 0.5 64 64" xml:space="preserve">
<g id="Captions">
</g>
<g>
	<path d="M48.2,41.363c-1.05-2.43-2.358-5.454-2.358-10.851c0-9.932-6.941-18.012-15.472-18.012s-15.471,8.08-15.471,18.012
		c0,6.799-1.483,10.615-2.464,13.14c-0.522,1.344-0.935,2.406-0.935,3.396c0,0.251,0.074,0.425,0.225,0.534
		c0.149,0.107,0.385,0.162,0.701,0.162c0.793,0,1.968-0.339,3.105-0.668c1.159-0.335,2.357-0.682,3.198-0.682
		c0.094,0,0.184,0.005,0.267,0.012c1.798,0.184,2.492,1.409,3.105,2.489c0.427,0.753,0.83,1.464,1.552,1.817
		c0.221,0.109,0.482,0.162,0.796,0.162c1.014,0,2.36-0.561,3.663-1.103c1.303-0.543,2.533-1.055,3.481-1.055
		c1.356,0,2.635,0.796,3.87,1.567c1.013,0.632,1.97,1.227,2.786,1.227c0.189,0,0.362-0.031,0.528-0.095
		c1.46-0.566,1.849-1.282,2.263-2.041c0.326-0.599,0.663-1.217,1.532-1.719c0.797-0.46,2.008-0.498,3.082-0.498
		c0.174,0,0.349,0.002,0.522,0.002c0.17,0.001,0.339,0.002,0.507,0.002c1.828,0,2.819-0.182,2.819-1.14
		C49.499,44.366,48.896,42.975,48.2,41.363z M32.321,29.839c-1.479,0-2.83-1.076-3.363-2.676c-0.027-0.084-0.106-0.14-0.194-0.14
		c-0.088,0-0.166,0.057-0.194,0.14c-0.532,1.601-1.883,2.676-3.363,2.676c-1.986,0-3.601-1.871-3.601-4.169s1.615-4.169,3.601-4.169
		c1.48,0,2.831,1.074,3.363,2.672c0.027,0.084,0.106,0.14,0.194,0.14c0.088,0,0.166-0.056,0.194-0.14
		c0.532-1.598,1.883-2.672,3.363-2.672c1.986,0,3.601,1.87,3.601,4.169S34.306,29.839,32.321,29.839z"/>
	<path id="path2389" d="M33.066,26.422c0,0.914-0.738,1.655-1.648,1.655c-0.911,0-1.648-0.741-1.648-1.655l0,0
		c0-0.914,0.738-1.655,1.648-1.655C32.329,24.768,33.066,25.509,33.066,26.422z"/>
	<path id="path2396" d="M27.837,26.422c0,0.914-0.738,1.655-1.648,1.655c-0.91,0-1.648-0.741-1.648-1.655l0,0
		c0-0.914,0.738-1.655,1.648-1.655C27.099,24.768,27.837,25.509,27.837,26.422z"/>
</g>
</svg>
