<?xml version="1.0" encoding="utf-8"?>
<!-- Generator: Adobe Illustrator 17.0.0, SVG Export Plug-In . SVG Version: 6.00 Build 0)  -->
<!DOCTYPE svg PUBLIC "-//W3C//DTD SVG 1.1//EN" "http://www.w3.org/Graphics/SVG/1.1/DTD/svg11.dtd">
<svg version="1.1" id="Layer_1" xmlns="http://www.w3.org/2000/svg" xmlns:xlink="http://www.w3.org/1999/xlink" x="0px" y="0px"
	 width="64px" height="64px" viewBox="-0.5 0.5 64 64" enable-background="new -0.5 0.5 64 64" xml:space="preserve">
<g id="Captions">
</g>
<path d="M24.658,36.409c1.033,2.638,3.438,4.508,6.44,4.508c3.003,0,5.409-1.871,6.44-4.508H24.658z"/>
<path d="M27.878,27.715c0,1.245-1.009,2.254-2.254,2.254c-1.245,0-2.254-1.009-2.254-2.254s1.009-2.254,2.254-2.254
	C26.869,25.461,27.878,26.47,27.878,27.715"/>
<path d="M38.827,27.715c0,1.245-1.009,2.254-2.254,2.254c-1.245,0-2.254-1.009-2.254-2.254s1.009-2.254,2.254-2.254
	C37.818,25.461,38.827,26.47,38.827,27.715"/>
<path d="M48.382,36.951c0.803-0.803,2.051-4.201,0-6.251c-0.942-0.943-0.555-1.919-0.144-2.953c0.077-0.195,0.153-0.387,0.22-0.578
	c0.337-0.96,0.873-3.358-1.414-4.882c-2.003-1.336-2.123-2.048-2.262-2.872c-0.042-0.26-0.088-0.528-0.188-0.826
	c-0.771-2.315-2.346-3.44-4.813-3.44h-0.067c-1.042,0-2.568-0.172-3.759-1.662c-1.025-1.281-2.77-1.987-4.912-1.987
	c-2.358,0-5.176,0.945-6.446,2.755l1.036,1.9l0.829,1.519c0.146,0.267,0.213,0.56,0.225,0.855c0.018,0.386-0.065,0.774-0.272,1.114
	c-0.18,0.294-0.434,0.536-0.736,0.701c-0.301,0.164-0.643,0.247-0.989,0.24l-1.6-0.038l-2.431-0.058
	c-0.219,0.249-0.475,0.471-0.782,0.638c-0.294,0.161-0.615,0.266-0.944,0.317l-2.089,3.427c-0.05,0.08-0.117,0.146-0.177,0.219
	c-0.16,0.191-0.34,0.362-0.56,0.482c-0.302,0.165-0.642,0.248-0.991,0.241c-0.699-0.017-1.343-0.409-1.679-1.025l-0.246-0.453
	c-0.405,1.181-0.113,2.377,0.102,2.988c0.066,0.19,0.142,0.382,0.22,0.577c0.411,1.034,0.799,2.01-0.145,2.953
	c-2.05,2.051-0.803,5.449,0,6.252c0.407,0.406,1.238,1.544,0.18,3.32c-1.304,2.19-1.077,4.467-0.273,5.752
	c1.367,2.183,0.039,5.354,0.026,5.385c-0.044,0.103-0.032,0.221,0.033,0.313c0.065,0.092,0.172,0.145,0.284,0.135
	c1.142-0.073,1.976-0.832,2.397-1.318c0.928,1.361,2.664,1.921,2.745,1.947c0.031,0.01,0.06,0.014,0.09,0.014
	c0.093,0,0.182-0.042,0.247-0.116c0.084-0.097,0.099-0.241,0.044-0.357c-0.097-0.2-0.024-1.175,0.113-2.13
	c0.345,0.453,0.501,1.257,0.531,1.575c0.012,0.111,0.08,0.209,0.181,0.257c0.1,0.05,0.221,0.042,0.313-0.017
	c0.085-0.056,2.068-1.377,0.713-4.905c-0.82-2.137-0.566-2.684-0.044-3.466c0.19-0.285,0.337-0.568,0.452-0.849
	c2.653,2.143,6.026,3.428,9.701,3.428c3.548,0,6.815-1.198,9.424-3.209c0.083,0.16,0.174,0.32,0.281,0.48
	c0.522,0.782,0.777,1.33-0.044,3.466c-1.355,3.528,0.627,4.85,0.713,4.905c0.096,0.061,0.214,0.069,0.314,0.017
	c0.101-0.048,0.17-0.146,0.18-0.258c0.031-0.316,0.186-1.122,0.532-1.574c0.137,0.955,0.209,1.929,0.113,2.13
	c-0.061,0.114-0.047,0.256,0.036,0.357c0.083,0.1,0.218,0.143,0.345,0.102c0.081-0.025,1.817-0.585,2.745-1.947
	c0.421,0.486,1.255,1.246,2.397,1.318c0.114,0.012,0.219-0.044,0.283-0.135c0.065-0.092,0.078-0.209,0.035-0.313
	c-0.014-0.032-1.342-3.202,0.023-5.385c0.804-1.285,1.032-3.561-0.271-5.752C47.146,38.494,47.976,37.358,48.382,36.951
	 M40.309,39.599c-2.339,2.399-5.602,3.895-9.211,3.895c-5.222,0-9.72-3.13-11.739-7.609c-0.024-0.567,0.102-1.082,0.307-1.424
	c1.873-3.121,1.267-4.928,0.781-6.38l-0.107-0.325c-0.657-2.031,0.501-3.982,0.821-4.465c9.712-0.897,12.611-3.888,13.258-4.756
	c3.485,1.259,6.07,4.468,6.091,4.494c0.016,0.023,1.653,2.247,0.899,4.58l-0.108,0.324c-0.486,1.453-1.09,3.26,0.782,6.382
	c0.448,0.746,0.559,2.316-0.596,3.471C40.995,38.276,40.567,38.898,40.309,39.599"/>
<path d="M17.001,19.298c0.435,0.775,1.416,1.051,2.193,0.616c0.776-0.435,1.052-1.416,0.616-2.192
	c-0.435-0.776-1.416-1.053-2.193-0.617C16.841,17.541,16.566,18.522,17.001,19.298"/>
<path d="M15.582,17.829l-3.394-0.041c-0.242-0.003-0.468,0.124-0.593,0.332c-0.125,0.209-0.127,0.468-0.008,0.68l2.975,5.304
	c0.12,0.212,0.342,0.344,0.585,0.348c0.121,0.001,0.239-0.03,0.339-0.088c0.104-0.057,0.19-0.141,0.253-0.245l1.722-2.899
	c-0.653-0.222-1.233-0.666-1.596-1.314C15.497,19.249,15.42,18.51,15.582,17.829"/>
<path d="M21.701,12.45c-0.243-0.002-0.469,0.126-0.593,0.334l-1.77,2.978c0.646,0.223,1.221,0.665,1.581,1.308
	c0.355,0.633,0.435,1.342,0.298,2.002l3.442,0.042c0.121,0.002,0.239-0.028,0.34-0.086c0.103-0.058,0.191-0.142,0.253-0.246
	c0.123-0.209,0.126-0.468,0.008-0.68l-2.976-5.304C22.166,12.585,21.944,12.454,21.701,12.45"/>
</svg>
