<?xml version="1.0" encoding="utf-8"?>
<!-- Generator: Adobe Illustrator 17.0.0, SVG Export Plug-In . SVG Version: 6.00 Build 0)  -->
<!DOCTYPE svg PUBLIC "-//W3C//DTD SVG 1.1//EN" "http://www.w3.org/Graphics/SVG/1.1/DTD/svg11.dtd">
<svg version="1.1" id="Layer_1" xmlns="http://www.w3.org/2000/svg" xmlns:xlink="http://www.w3.org/1999/xlink" x="0px" y="0px"
	 width="64px" height="64px" viewBox="-0.5 0.5 64 64" enable-background="new -0.5 0.5 64 64" xml:space="preserve">
<g id="Captions">
</g>
<path d="M51.169,28.866c-0.767-4.154-2.853-8.086-6.19-11.124L32.652,32.414l2.781,2.336C39.675,30.445,45.475,28.437,51.169,28.866
	z M36.661,35.78l10.663,8.959c3.249-4.196,4.575-9.312,4.073-14.249C46.087,29.987,40.643,31.798,36.661,35.78z M31.639,52.499
	c5.402-0.037,10.755-2.251,14.643-6.52l-10.72-9.006C31.807,41.447,30.55,47.187,31.639,52.499z M34.338,35.943l-2.728-2.29
	L19.284,48.325c3.198,2.474,6.93,3.832,10.71,4.118C28.945,46.776,30.343,40.703,34.338,35.943z M30.053,12.555
	c-4.95,0.357-9.762,2.544-13.335,6.469l10.663,8.958C30.618,23.376,31.462,17.7,30.053,12.555z M26.396,29.271l-10.72-9.006
	c-3.535,4.566-4.792,10.221-3.898,15.548C17.198,35.969,22.635,33.742,26.396,29.271z M12.117,37.423
	c0.932,3.675,2.914,7.116,5.902,9.84l12.328-14.672l-2.727-2.292C23.622,35.055,17.88,37.478,12.117,37.423z M28.609,29.016
	l2.78,2.337L43.716,16.68c-3.568-2.763-7.801-4.139-12.025-4.18C33.095,18.036,32.116,24.095,28.609,29.016z"/>
</svg>
