<?xml version="1.0" encoding="utf-8"?>
<!-- Generator: Adobe Illustrator 17.0.0, SVG Export Plug-In . SVG Version: 6.00 Build 0)  -->
<!DOCTYPE svg PUBLIC "-//W3C//DTD SVG 1.1//EN" "http://www.w3.org/Graphics/SVG/1.1/DTD/svg11.dtd">
<svg version="1.1" id="Layer_1" xmlns="http://www.w3.org/2000/svg" xmlns:xlink="http://www.w3.org/1999/xlink" x="0px" y="0px"
	 width="64px" height="64px" viewBox="-0.5 0.5 64 64" enable-background="new -0.5 0.5 64 64" xml:space="preserve">
<g id="Captions">
</g>
<g>
	<polygon points="38.554,47.112 36.394,46.721 32.089,46.721 31.305,46.721 27.003,46.721 24.601,47.149 24.136,53.297 
		39.111,53.297 	"/>
	<path d="M37.782,46.721"/>
	<path d="M48.46,17.891c-0.083-0.118-0.191-0.129-0.299-0.135c0,0,0.083-0.181-0.241-0.162l-1.097,0.031
		c0,0-0.125,0.025,0.037-0.098c0.162-0.125,0.025-0.168,0.025-0.168s-0.075-0.098-1.134,0.025c-1.055,0.123-1.222,0.316-1.355,0.432
		l-0.436,0.025c0,0-0.079-0.069-0.436-0.025c-0.349,0.044-0.823,0.193-0.914,0.212c-0.083,0.019-0.881-0.012-0.997-0.025
		c-0.121-0.012-1.762-0.031-2.169,0.006c-0.407,0.037-2.194-0.378-2.559-0.507c-0.366-0.131-1.662-0.663-2.325-0.738
		c-0.663-0.073-1.195-0.241-1.436-0.253c-0.104-0.004-0.15-0.006-0.166-0.004c-0.002-0.079-0.019-1.099-0.025-1.51
		c-0.006-0.426,0.197-2.412-0.1-2.796c-0.297-0.382-0.698-0.785-1.59-0.686c-0.889,0.098-1.186,1.193-1.255,1.415
		c-0.069,0.224-0.222,1.529-0.26,1.701c-0.037,0.173-0.26,1.633-0.26,1.683c0,0.05-1.733,0.025-2.524,0.141
		c-0.791,0.118-1.39,0.218-1.596,0.231c-0.204,0.01-1.051-0.019-1.558,0.204c-0.507,0.222-0.463-0.019-0.6,0.235
		c0,0-1.787-0.05-2.306-0.019s-1.317,0.075-2.015-0.031c-0.7-0.106-0.7-0.143-0.744-0.069c0,0-0.253,0.012-0.32,0.012
		c-0.069,0-0.15-0.116-0.503-0.322c-0.353-0.204-0.538-0.297-1.064-0.297c-0.526,0-1.18-0.06-1.186,0.069
		c-0.006,0.131,0.141,0.26,0.222,0.266h-1.317c0,0-0.197,0-0.204,0.148c0,0-0.253,0.008-0.253,0.174s0.185,0.166,0.185,0.166
		s-0.05,0.241,0.166,0.241c0.218,0,0.241,0.081,0.241,0.106c0,0.025,0.021,0.06,0.073,0.075c0,0,2.032,0.519,2.709,0.472
		c0.675-0.046,1.298,0.093,1.298,0.093s1.512,3.247,2.746,3.052c0,0,2.449-0.166,2.8,0.056c0.353,0.224,2.663,1.132,2.821,1.114
		c0.158-0.019-0.324,5.456-0.324,5.456h0.501c0,0-0.185,0.862,0.324,1.095c0,0-0.195,2.589,0,2.913
		c0.195,0.326,0.233,0.604,0.233,0.604l-0.272,8.798l-0.05,2.14c0,0-0.11,1.633-0.185,1.916c-0.008,0.033-0.017,0.062-0.021,0.085
		l-1.427,0.22v0.989l2.042-0.318h3.947h0.54h3.946l2.044,0.318v-0.989l-1.87-0.291c-0.033-0.422-0.324-4.633-0.37-7.695
		c0,0,0.411,0.1,0.37-0.272c-0.033-0.372-0.083-3.056-0.083-3.056s0.075-0.012,0.033-0.372c-0.033-0.357,0.424-0.048,0.424-0.914
		s-0.407-7.683-0.407-7.683l-0.175-2.697c0,0,0.864-0.148,1.238-0.322c0.37-0.172,0.465-0.148,0.465-0.148s0.349-0.037,0.524-0.137
		c0.174-0.098,4.242-0.247,4.242-0.247s0.777-0.185,1.583-2.709c0,0,0.175-0.098,0.258-0.135c0.087-0.037,0.499,0,0.669,0.037
		s1.924-0.129,2.979-0.486c0.004,0,0.008-0.002,0.008-0.002s0.141-0.044,0.141-0.175l0.357-0.056c0,0,0.083-0.073,0-0.191
		l0.241-0.05C48.46,18.058,48.551,18.01,48.46,17.891z"/>
</g>
</svg>
