<?xml version="1.0" encoding="utf-8"?>
<!-- Generator: Adobe Illustrator 17.0.0, SVG Export Plug-In . SVG Version: 6.00 Build 0)  -->
<!DOCTYPE svg PUBLIC "-//W3C//DTD SVG 1.1//EN" "http://www.w3.org/Graphics/SVG/1.1/DTD/svg11.dtd">
<svg version="1.1" id="Layer_1" xmlns="http://www.w3.org/2000/svg" xmlns:xlink="http://www.w3.org/1999/xlink" x="0px" y="0px"
	 width="64px" height="64px" viewBox="-0.5 0.5 64 64" enable-background="new -0.5 0.5 64 64" xml:space="preserve">
<g id="Captions">
</g>
<path d="M47.84,21.48H33.112l6.033-6.033c0.207-0.206,0.335-0.492,0.335-0.807c0-0.63-0.51-1.14-1.14-1.14
	c-0.315,0-0.601,0.128-0.808,0.335L31.5,19.868l-6.033-6.033c-0.206-0.207-0.492-0.335-0.807-0.335c-0.63,0-1.14,0.51-1.14,1.14
	c0,0.315,0.128,0.6,0.334,0.806l6.034,6.034H15.16c-1.469,0-2.66,1.174-2.66,2.622v21.355c0,1.449,1.191,2.623,2.66,2.623h32.68
	c1.469,0,2.66-1.174,2.66-2.622V24.102C50.5,22.654,49.309,21.48,47.84,21.48z M41.38,40.48c0,2.518-2.041,4.56-4.56,4.56h-17.1
	c-2.519,0-4.56-2.042-4.56-4.56v-11.4c0-2.518,2.041-4.56,4.56-4.56h17.1c2.519,0,4.56,2.042,4.56,4.56V40.48z M45.94,35.16
	c-1.258,0-2.28-1.02-2.28-2.28c0-1.26,1.022-2.28,2.28-2.28c1.259,0,2.28,1.02,2.28,2.28C48.22,34.14,47.2,35.16,45.94,35.16z
	 M45.94,29.08c-1.258,0-2.28-1.021-2.28-2.28c0-1.259,1.022-2.28,2.28-2.28c1.259,0,2.28,1.021,2.28,2.28
	C48.22,28.059,47.2,29.08,45.94,29.08z"/>
</svg>
